<?xml version="1.0" encoding="utf-8"?>
<!-- Generator: Adobe Illustrator 26.0.0, SVG Export Plug-In . SVG Version: 6.00 Build 0)  -->
<svg version="1.1"
	 id="Layer_1" xmlns:anim="urn:oasis:names:tc:opendocument:xmlns:animation:1.0" xmlns:ooo="http://xml.openoffice.org/svg/export" xmlns:presentation="http://sun.com/xmlns/staroffice/presentation" xmlns:smil="http://www.w3.org/2001/SMIL20/"
	 xmlns="http://www.w3.org/2000/svg" xmlns:xlink="http://www.w3.org/1999/xlink" x="0px" y="0px" viewBox="0 0 521.6 384.3"
	 style="enable-background:new 0 0 521.6 384.3;" xml:space="preserve">
<style type="text/css">
	.st0{clip-path:url(#SVGID_00000031912275974919529920000008033833610928145845_);}
	.st1{fill-rule:evenodd;clip-rule:evenodd;}
	.st2{fill:none;}
	
		.st3{fill-rule:evenodd;clip-rule:evenodd;fill:#FF8000;fill-opacity:0.122;stroke:#FFFFFF;stroke-width:0.8;stroke-linejoin:round;stroke-miterlimit:10;stroke-opacity:0.122;}
	.st4{fill:none;stroke:#000000;stroke-width:0.8;stroke-linejoin:round;stroke-miterlimit:10;}
	
		.st5{fill-rule:evenodd;clip-rule:evenodd;fill:#B3CAC7;fill-opacity:0.29;stroke:#FFFFFF;stroke-width:0.8;stroke-linejoin:round;stroke-miterlimit:10;stroke-opacity:0.29;}
	.st6{fill:none;stroke:#B3CAC7;stroke-width:0.8;stroke-linejoin:round;stroke-miterlimit:10;}
	.st7{fill:none;stroke:#FF8000;stroke-width:0.8;stroke-linejoin:round;stroke-miterlimit:10;}
	.st8{fill-rule:evenodd;clip-rule:evenodd;fill:#FF8000;}
	.st9{fill-rule:evenodd;clip-rule:evenodd;fill:#FF3838;}
	.st10{fill:none;stroke:#333333;stroke-width:0.8;stroke-linejoin:round;stroke-miterlimit:10;}
	.st11{fill:none;stroke:#999999;stroke-width:0.8;stroke-linejoin:round;stroke-miterlimit:10;}
	.st12{fill:none;stroke:#FFFFA6;stroke-width:0.8;stroke-linejoin:round;stroke-miterlimit:10;}
	.st13{fill:#B2B2B2;}
	.st14{font-family:'ArialMT';}
	.st15{font-size:10.9984px;}
	.st16{fill-rule:evenodd;clip-rule:evenodd;fill:#729FCF;}
	.st17{fill:none;stroke:#3465A4;stroke-width:0.8;stroke-linejoin:round;stroke-miterlimit:10;}
	.st18{fill:none;stroke:#729FCF;stroke-width:0.8;stroke-linejoin:round;stroke-miterlimit:10;}
	.st19{fill:none;stroke:#CCCCCC;stroke-width:0.8;stroke-linejoin:round;stroke-miterlimit:10;}
	.st20{fill:none;stroke:#729FCF;stroke-width:0.9921;stroke-linejoin:round;stroke-miterlimit:10;}
	.st21{fill-rule:evenodd;clip-rule:evenodd;fill:#3FAF46;}
	.st22{fill:none;stroke:#E0C2CD;stroke-width:0.5102;stroke-linejoin:round;stroke-miterlimit:10;}
	.st23{fill:none;stroke:#E0C2CD;stroke-width:0.8;stroke-linejoin:round;stroke-miterlimit:10;}
	.st24{fill:#DDDDDD;}
</style>
<g>
	<g id="id2">
		<g id="bg-id2">
		</g>
		<g id="bo-id2">
		</g>
	</g>
</g>
<g>
	<g>
		<g id="container-id1">
			<g>
				<defs>
					<rect id="SVGID_1_" x="-36.8" y="-240.6" width="595.3" height="841.9"/>
				</defs>
				<clipPath id="SVGID_00000046297381068803494770000006654995816474636206_">
					<use xlink:href="#SVGID_1_"  style="overflow:visible;"/>
				</clipPath>
				<g id="id1" style="clip-path:url(#SVGID_00000046297381068803494770000006654995816474636206_);">
					<g>
						<g id="bg-id1">
							<path class="st1" d="M260.8,601.2H-36.8v-841.9h595.2v841.9H260.8z"/>
						</g>
						<g>
							<g id="id3">
								<rect x="87.9" y="20.1" class="st2" width="309.1" height="362.9"/>
								<path class="st3" d="M87.9,320.6L277.8,20.2l119.1,62.4L201.3,383L87.9,320.6z"/>
								<path class="st4" d="M87.9,320.6L277.8,20.2l119.1,62.4L201.3,383L87.9,320.6z"/>
							</g>
						</g>
						<g>
							<g id="id4">
								<rect x="93.5" y="34.3" class="st2" width="416.8" height="294.9"/>
								<path class="st3" d="M436.5,34.3l-343,189.9l76.5,104.9L510.2,142L436.5,34.3z"/>
								<path class="st4" d="M436.5,34.3l-343,189.9l76.5,104.9L510.2,142L436.5,34.3z"/>
							</g>
						</g>
						<g>
							<g id="id5">
								<rect x="36.8" y="0.3" class="st2" width="354.4" height="343.1"/>
								<path class="st3" d="M36.9,88.2L292,343.3l99.2-90.7L184.3,48.5L136.1,0.3L36.9,88.2z"/>
								<path class="st4" d="M36.9,88.2L292,343.3l99.2-90.7L184.3,48.5L136.1,0.3L36.9,88.2z"/>
							</g>
						</g>
						<g>
							<g id="id6">
								<rect x="106.6" y="98.5" class="st2" width="272.4" height="195.6"/>
								<path class="st5" d="M126.2,161.4c3.9-11,13.6-18.7,24-23.2c9.5-4.2,19.1-8.6,29.3-11.3c10.1-2.6,20-6.2,30-9
									c11.1-3.2,19.4-11.3,30-15.7c9.4-3.9,19-4.1,28.5-3c8.8,1,14.7,9.9,24.7,9c8.2-0.8,16.5-0.7,24.7-1.5
									c12.2-1.2,19.4,10.3,24.7,18.8c5.8,9.1,6.1,20.6,11.3,30c5.2,9.5,10.4,19.3,19.5,26.2c7.5,5.7,6.4,16,5.2,24
									c-1.3,9.3-6.1,18.1-12,25.5c-6.2,7.8-3.6,16.9-3.7,25.5c-0.1,11-10.5,17.8-18.8,21.7c-9.1,4.4-17.4-4-27-2.2
									c-10.2,1.8-15.7,11.1-24,15.8c-7.3,4-16,1.6-24,0c-11.1-2.2-14.9-13.8-25.5-15.8c-8.8-1.6-17.6-0.1-26.2,4.5
									c-8.9,4.7-19.1,5.2-29.3,6.7c-9.3,1.5-18.3,3.6-26.2-9c-5.9-9.4-20.9-2.1-30.8-4.5c-10.3-2.4-16.4-13.2-20.2-22.5
									c-3.3-8-3.5-16.9-3.8-25.5c-0.3-9.1,3.1-17.5,4.5-26.2c1.5-9.1,5.7-16.9,9.8-24.7l3-8.2L126.2,161.4z"/>
								<path class="st6" d="M126.2,161.4c3.9-11,13.6-18.7,24-23.2c9.5-4.2,19.1-8.6,29.3-11.3c10.1-2.6,20-6.2,30-9
									c11.1-3.2,19.4-11.3,30-15.7c9.4-3.9,19-4.1,28.5-3c8.8,1,14.7,9.9,24.7,9c8.2-0.8,16.5-0.7,24.7-1.5
									c12.2-1.2,19.4,10.3,24.7,18.8c5.8,9.1,6.1,20.6,11.3,30c5.2,9.5,10.4,19.3,19.5,26.2c7.5,5.7,6.4,16,5.2,24
									c-1.3,9.3-6.1,18.1-12,25.5c-6.2,7.8-3.6,16.9-3.7,25.5c-0.1,11-10.5,17.8-18.8,21.7c-9.1,4.4-17.4-4-27-2.2
									c-10.2,1.8-15.7,11.1-24,15.8c-7.3,4-16,1.6-24,0c-11.1-2.2-14.9-13.8-25.5-15.8c-8.8-1.6-17.6-0.1-26.2,4.5
									c-8.9,4.7-19.1,5.2-29.3,6.7c-9.3,1.5-18.3,3.6-26.2-9c-5.9-9.4-20.9-2.1-30.8-4.5c-10.3-2.4-16.4-13.2-20.2-22.5
									c-3.3-8-3.5-16.9-3.8-25.5c-0.3-9.1,3.1-17.5,4.5-26.2c1.5-9.1,5.7-16.9,9.8-24.7l3-8.2L126.2,161.4z"/>
							</g>
						</g>
						<g>
							<g id="id7">
								<rect x="36.8" y="0.3" class="st2" width="99.3" height="88"/>
								<path class="st7" d="M36.9,88.2l99.2-87.9"/>
							</g>
						</g>
						<g>
							<g id="id8">
								<rect x="86.8" y="320" class="st2" width="116.2" height="63.9"/>
								<path class="st7" d="M86.8,320l116.1,63.9"/>
							</g>
						</g>
						<g>
							<g id="id9">
								<rect x="436.5" y="31.5" class="st2" width="73.6" height="110.4"/>
								<path class="st7" d="M436.5,31.5l73.5,110.3"/>
							</g>
						</g>
						<g>
							<g id="id10">
								<rect x="36.8" y="1.4" class="st2" width="118.7" height="89.6"/>
								<path class="st7" d="M136.5,1.5c7.5,10.8,19.4,21.2,19,34.7c-0.4,16.8-20.9,17.9-33.6,19C107.3,56.5,97.4,66,89.5,75.3
									C80.8,85.7,67.3,89,54.8,91H41.3l-4.5-2.8"/>
							</g>
						</g>
						<g>
							<g id="id11">
								<rect x="402.5" y="32.1" class="st2" width="105" height="110.1"/>
								<path class="st7" d="M436.5,32.2c-12.4,8.3-24.3,19.3-28.6,33.6c-2.5,8.5-14.3,28.9,8,26.9c11.8-1.1,24-2.7,35.5,0
									c14,3.3,11.7,21.9,17.1,33.6c5.4,11.7,24.8,17,38.9,15.8"/>
							</g>
						</g>
						<g>
							<g id="id12">
								<rect x="91" y="295.1" class="st2" width="110.4" height="87.9"/>
								<path class="st7" d="M91,321.2c10.9-10,20.6-25.5,36.9-25.7c12.2-0.2,26.1-3,33.6,13.5c5.6,12.2,0.1,24.6,4.5,35.8
									c5.9,15.3,25,25.7,35.3,38.3"/>
							</g>
						</g>
						<g>
							<g id="id13">
								<rect x="117.6" y="16.2" class="st2" width="31.2" height="31.2"/>
								<path class="st7" d="M117.6,16.2l22.6,22.6"/>
								<path class="st8" d="M148.8,47.4l-6-12l-6,6L148.8,47.4z"/>
							</g>
						</g>
						<g>
							<g id="id14">
								<rect x="110.5" y="23" class="st2" width="28.4" height="28.4"/>
								<path class="st7" d="M110.6,23l19.7,19.7"/>
								<path class="st8" d="M138.9,51.3l-6-12l-6,6L138.9,51.3z"/>
							</g>
						</g>
						<g>
							<g id="id15">
								<rect x="70.8" y="58.1" class="st2" width="17.1" height="17.1"/>
								<path class="st7" d="M70.9,58.1l8.4,8.4"/>
								<path class="st8" d="M87.9,75.1l-6-12l-6,6L87.9,75.1z"/>
							</g>
						</g>
						<g>
							<g id="id16">
								<rect x="87.9" y="42.8" class="st2" width="17.1" height="17.1"/>
								<path class="st7" d="M87.9,42.8l8.4,8.4"/>
								<path class="st8" d="M104.9,59.8l-6-12l-6,6L104.9,59.8z"/>
							</g>
						</g>
						<g>
							<g id="id17">
								<rect x="79.4" y="50.2" class="st2" width="17.1" height="17.1"/>
								<path class="st7" d="M79.4,50.2l8.4,8.4"/>
								<path class="st8" d="M96.4,67.2l-6-12l-6,6L96.4,67.2z"/>
							</g>
						</g>
						<g>
							<g id="id18">
								<rect x="53.8" y="74" class="st2" width="14.2" height="14.2"/>
								<path class="st7" d="M53.9,74l5.6,5.6"/>
								<path class="st8" d="M68,88.2l-6-12l-6,6L68,88.2z"/>
							</g>
						</g>
						<g>
							<g id="id19">
								<rect x="408.2" y="48.5" class="st2" width="39.7" height="22.7"/>
								<path class="st7" d="M447.9,48.5l-29.1,16.6"/>
								<path class="st8" d="M408.2,71.2l13.2-2.6l-4.2-7.4L408.2,71.2z"/>
							</g>
						</g>
						<g>
							<g id="id20">
								<rect x="403.9" y="55.6" class="st2" width="48.2" height="28.4"/>
								<path class="st7" d="M452.1,55.6l-37.7,22.2"/>
								<path class="st8" d="M403.9,83.9l13.2-2.8l-4.3-7.3L403.9,83.9z"/>
							</g>
						</g>
						<g>
							<g id="id21">
								<rect x="411" y="62.6" class="st2" width="45.4" height="28.4"/>
								<path class="st7" d="M456.4,62.7l-35,21.9"/>
								<path class="st8" d="M411,91l13.1-3.1l-4.5-7.2L411,91z"/>
							</g>
						</g>
						<g>
							<g id="id22">
								<rect x="413.9" y="41" class="st2" width="28.7" height="16"/>
								<path class="st7" d="M442.6,41.1l-18,10"/>
								<path class="st8" d="M413.9,57l13.2-2.5l-4.1-7.4L413.9,57z"/>
							</g>
						</g>
						<g>
							<g id="id23">
								<rect x="425.5" y="68.3" class="st2" width="36.1" height="21.6"/>
								<path class="st7" d="M461.5,68.3L436,83.6"/>
								<path class="st8" d="M425.5,89.9l13.1-2.9l-4.4-7.3L425.5,89.9z"/>
							</g>
						</g>
						<g>
							<g id="id24">
								<rect x="440.8" y="75.4" class="st2" width="25.6" height="14.2"/>
								<path class="st7" d="M466.3,75.4l-14.9,8.2"/>
								<path class="st8" d="M440.8,89.6l13.2-2.5l-4.1-7.5L440.8,89.6z"/>
							</g>
						</g>
						<g>
							<g id="id25">
								<rect x="62.3" y="65.5" class="st2" width="17.1" height="17.1"/>
								<path class="st7" d="M62.4,65.5l8.4,8.4"/>
								<path class="st8" d="M79.4,82.5l-6-12l-6,6L79.4,82.5z"/>
							</g>
						</g>
						<g>
							<g id="id26">
								<rect x="103.4" y="29.5" class="st2" width="24.7" height="24.7"/>
								<path class="st7" d="M103.5,29.5l16,16"/>
								<path class="st8" d="M128.1,54.2l-6-12l-6,6L128.1,54.2z"/>
							</g>
						</g>
						<g>
							<g id="id27">
								<rect x="125.6" y="9.6" class="st2" width="28.4" height="28.4"/>
								<path class="st7" d="M125.6,9.7l19.7,19.7"/>
								<path class="st8" d="M153.9,38l-6-12l-6,6L153.9,38z"/>
							</g>
						</g>
						<g>
							<g id="id28">
								<rect x="96.4" y="36" class="st2" width="19.9" height="19.9"/>
								<path class="st7" d="M96.4,36l11.2,11.2"/>
								<path class="st8" d="M116.2,55.9l-6-12l-6,6L116.2,55.9z"/>
							</g>
						</g>
						<g>
							<g id="id29">
								<rect x="41.8" y="79" class="st2" width="12.1" height="12.1"/>
								<path class="st8" d="M53.9,91l-6-12l-6,6L53.9,91z"/>
							</g>
						</g>
						<g>
							<g id="id30">
								<rect x="99.2" y="299.4" class="st2" width="19.9" height="27.6"/>
								<path class="st7" d="M99.2,326.9l12.7-17.6"/>
								<path class="st8" d="M119.1,299.4l-10.9,7.9l6.9,5L119.1,299.4z"/>
							</g>
						</g>
						<g>
							<g id="id31">
								<rect x="36.8" y="88.2" class="st2" width="252.4" height="252.4"/>
								<path class="st7" d="M36.9,88.2l40.2,40.2"/>
								<path class="st7" d="M80.1,131.5l0.5,0.5"/>
								<path class="st7" d="M83.7,135l0.5,0.5"/>
								<path class="st7" d="M87.3,138.6l0.5,0.5"/>
								<path class="st7" d="M90.9,142.2l0.5,0.5"/>
								<path class="st7" d="M94.5,145.8l0.5,0.5"/>
								<path class="st7" d="M98.1,149.4l0.5,0.5"/>
								<path class="st7" d="M101.7,153l0.5,0.5"/>
								<path class="st7" d="M105.2,156.6l0.5,0.5"/>
								<path class="st7" d="M108.8,160.2l0.5,0.5"/>
								<path class="st7" d="M112.4,163.7l0.6,0.6"/>
								<path class="st7" d="M116,167.3l40.2,40.2"/>
								<path class="st7" d="M159.3,210.6l0.5,0.5"/>
								<path class="st7" d="M162.9,214.2l0.5,0.5"/>
								<path class="st7" d="M166.5,217.8l0.5,0.5"/>
								<path class="st7" d="M170,221.4l0.5,0.5"/>
								<path class="st7" d="M173.6,225l0.5,0.5"/>
								<path class="st7" d="M177.2,228.5l0.5,0.5"/>
								<path class="st7" d="M180.8,232.1l0.5,0.5"/>
								<path class="st7" d="M184.4,235.7l0.5,0.5"/>
								<path class="st7" d="M188,239.3l0.5,0.5"/>
								<path class="st7" d="M191.5,242.9l0.6,0.6"/>
								<path class="st7" d="M195.1,246.5l40.2,40.2"/>
								<path class="st7" d="M238.4,289.8l0.5,0.5"/>
								<path class="st7" d="M242,293.3l0.5,0.5"/>
								<path class="st7" d="M245.6,296.9l0.5,0.5"/>
								<path class="st7" d="M249.2,300.5l0.5,0.5"/>
								<path class="st7" d="M252.8,304.1l0.5,0.5"/>
								<path class="st7" d="M256.3,307.7l0.5,0.5"/>
								<path class="st7" d="M259.9,311.3l0.5,0.5"/>
								<path class="st7" d="M263.5,314.8l0.5,0.5"/>
								<path class="st7" d="M267.1,318.4l0.5,0.5"/>
								<path class="st7" d="M270.7,322l0.6,0.6"/>
								<path class="st7" d="M274.3,325.6l14.9,14.9"/>
							</g>
						</g>
						<g>
							<g id="id32">
								<rect x="136" y="0.3" class="st2" width="252.4" height="252.4"/>
								<path class="st7" d="M136.1,0.3l40.2,40.2"/>
								<path class="st7" d="M179.4,43.6l0.5,0.5"/>
								<path class="st7" d="M182.9,47.2l0.5,0.5"/>
								<path class="st7" d="M186.5,50.8l0.5,0.5"/>
								<path class="st7" d="M190.1,54.3l0.5,0.5"/>
								<path class="st7" d="M193.7,57.9l0.5,0.5"/>
								<path class="st7" d="M197.3,61.5l0.5,0.5"/>
								<path class="st7" d="M200.9,65.1l0.5,0.5"/>
								<path class="st7" d="M204.4,68.7l0.5,0.5"/>
								<path class="st7" d="M208,72.3l0.5,0.5"/>
								<path class="st7" d="M211.6,75.9l0.6,0.6"/>
								<path class="st7" d="M215.2,79.5l40.2,40.2"/>
								<path class="st7" d="M258.5,122.7l0.5,0.5"/>
								<path class="st7" d="M262.1,126.3l0.5,0.5"/>
								<path class="st7" d="M265.7,129.9l0.5,0.5"/>
								<path class="st7" d="M269.2,133.5l0.5,0.5"/>
								<path class="st7" d="M272.8,137.1l0.5,0.5"/>
								<path class="st7" d="M276.4,140.7l0.5,0.5"/>
								<path class="st7" d="M280,144.3l0.5,0.5"/>
								<path class="st7" d="M283.6,147.8l0.5,0.5"/>
								<path class="st7" d="M287.2,151.4l0.5,0.5"/>
								<path class="st7" d="M290.8,155l0.6,0.6"/>
								<path class="st7" d="M294.4,158.6l40.2,40.2"/>
								<path class="st7" d="M337.6,201.9l0.5,0.5"/>
								<path class="st7" d="M341.2,205.5l0.5,0.5"/>
								<path class="st7" d="M344.8,209.1l0.5,0.5"/>
								<path class="st7" d="M348.4,212.6l0.5,0.5"/>
								<path class="st7" d="M352,216.2l0.5,0.5"/>
								<path class="st7" d="M355.6,219.8l0.5,0.5"/>
								<path class="st7" d="M359.2,223.4l0.5,0.5"/>
								<path class="st7" d="M362.7,227l0.5,0.5"/>
								<path class="st7" d="M366.3,230.6l0.5,0.5"/>
								<path class="st7" d="M369.9,234.1l0.6,0.6"/>
								<path class="st7" d="M373.5,237.7l14.9,14.9"/>
							</g>
						</g>
						<g>
							<g id="id33">
								<rect x="199.3" y="140" class="st2" width="311" height="175"/>
								<path class="st7" d="M510.2,140l-49.6,27.9"/>
								<path class="st7" d="M456.9,170l-0.7,0.4"/>
								<path class="st7" d="M452.5,172.5l-0.7,0.4"/>
								<path class="st7" d="M448.1,175l-0.7,0.4"/>
								<path class="st7" d="M443.6,177.5l-0.7,0.4"/>
								<path class="st7" d="M439.2,179.9l-0.7,0.4"/>
								<path class="st7" d="M434.8,182.4l-0.7,0.4"/>
								<path class="st7" d="M430.4,184.9l-0.7,0.4"/>
								<path class="st7" d="M426,187.4l-0.7,0.4"/>
								<path class="st7" d="M421.6,189.9l-0.7,0.4"/>
								<path class="st7" d="M417.1,192.4l-0.7,0.4"/>
								<path class="st7" d="M412.7,194.9l-49.6,27.9"/>
								<path class="st7" d="M359.4,224.9l-0.7,0.4"/>
								<path class="st7" d="M354.9,227.4l-0.7,0.4"/>
								<path class="st7" d="M350.5,229.9l-0.7,0.4"/>
								<path class="st7" d="M346.1,232.4l-0.7,0.4"/>
								<path class="st7" d="M341.7,234.8l-0.7,0.4"/>
								<path class="st7" d="M337.2,237.3l-0.7,0.4"/>
								<path class="st7" d="M332.8,239.8l-0.7,0.4"/>
								<path class="st7" d="M328.4,242.3l-0.7,0.4"/>
								<path class="st7" d="M324,244.8l-0.7,0.4"/>
								<path class="st7" d="M319.6,247.3l-0.7,0.4"/>
								<path class="st7" d="M315.1,249.8l-49.6,27.9"/>
								<path class="st7" d="M261.8,279.8l-0.7,0.4"/>
								<path class="st7" d="M257.4,282.2l-0.7,0.4"/>
								<path class="st7" d="M253,284.7l-0.7,0.4"/>
								<path class="st7" d="M248.6,287.2l-0.7,0.4"/>
								<path class="st7" d="M244.1,289.7l-0.7,0.4"/>
								<path class="st7" d="M239.7,292.2l-0.7,0.4"/>
								<path class="st7" d="M235.3,294.7l-0.7,0.4"/>
								<path class="st7" d="M230.9,297.2l-0.7,0.4"/>
								<path class="st7" d="M226.4,299.6l-0.7,0.4"/>
								<path class="st7" d="M222,302.1l-0.7,0.4"/>
								<path class="st7" d="M217.6,304.6l-18.3,10.3"/>
							</g>
						</g>
						<g>
							<g id="id34">
								<rect x="125.6" y="32.3" class="st2" width="311" height="175"/>
								<path class="st7" d="M436.5,32.3L387,60.2"/>
								<path class="st7" d="M383.2,62.3l-0.7,0.4"/>
								<path class="st7" d="M378.8,64.8l-0.7,0.4"/>
								<path class="st7" d="M374.4,67.3l-0.7,0.4"/>
								<path class="st7" d="M369.9,69.8l-0.7,0.4"/>
								<path class="st7" d="M365.5,72.2l-0.7,0.4"/>
								<path class="st7" d="M361.1,74.7l-0.7,0.4"/>
								<path class="st7" d="M356.7,77.2l-0.7,0.4"/>
								<path class="st7" d="M352.3,79.7l-0.7,0.4"/>
								<path class="st7" d="M347.9,82.2l-0.7,0.4"/>
								<path class="st7" d="M343.4,84.7l-0.7,0.4"/>
								<path class="st7" d="M339,87.2l-49.6,27.9"/>
								<path class="st7" d="M285.7,117.2l-0.7,0.4"/>
								<path class="st7" d="M281.2,119.6l-0.7,0.4"/>
								<path class="st7" d="M276.8,122.1l-0.7,0.4"/>
								<path class="st7" d="M272.4,124.6l-0.7,0.4"/>
								<path class="st7" d="M268,127.1l-0.7,0.4"/>
								<path class="st7" d="M263.5,129.6l-0.7,0.4"/>
								<path class="st7" d="M259.1,132.1l-0.7,0.4"/>
								<path class="st7" d="M254.7,134.6l-0.7,0.4"/>
								<path class="st7" d="M250.3,137.1l-0.7,0.4"/>
								<path class="st7" d="M245.9,139.5l-0.7,0.4"/>
								<path class="st7" d="M241.4,142l-49.6,27.9"/>
								<path class="st7" d="M188.1,172l-0.7,0.4"/>
								<path class="st7" d="M183.7,174.5l-0.7,0.4"/>
								<path class="st7" d="M179.3,177l-0.7,0.4"/>
								<path class="st7" d="M174.9,179.5l-0.7,0.4"/>
								<path class="st7" d="M170.4,182l-0.7,0.4"/>
								<path class="st7" d="M166,184.5l-0.7,0.4"/>
								<path class="st7" d="M161.6,187l-0.7,0.4"/>
								<path class="st7" d="M157.2,189.4l-0.7,0.4"/>
								<path class="st7" d="M152.7,191.9l-0.7,0.4"/>
								<path class="st7" d="M148.3,194.4l-0.7,0.4"/>
								<path class="st7" d="M143.9,196.9l-18.3,10.3"/>
							</g>
						</g>
						<g>
							<g id="id35">
								<rect x="202.4" y="82.5" class="st2" width="192.4" height="300.6"/>
								<path class="st7" d="M202.4,383l30.7-47.9"/>
								<path class="st7" d="M235.4,331.5l0.4-0.7"/>
								<path class="st7" d="M238.1,327.2l0.4-0.7"/>
								<path class="st7" d="M240.9,322.9l0.4-0.7"/>
								<path class="st7" d="M243.6,318.6l0.4-0.6"/>
								<path class="st7" d="M246.3,314.4l0.4-0.7"/>
								<path class="st7" d="M249.1,310.1l0.4-0.7"/>
								<path class="st7" d="M251.8,305.8l0.4-0.6"/>
								<path class="st7" d="M254.5,301.6l0.4-0.7"/>
								<path class="st7" d="M257.3,297.3l0.4-0.7"/>
								<path class="st7" d="M260,293l0.4-0.7"/>
								<path class="st7" d="M262.8,288.7l30.6-47.9"/>
								<path class="st7" d="M295.7,237.2l0.4-0.7"/>
								<path class="st7" d="M298.5,232.9l0.4-0.7"/>
								<path class="st7" d="M301.2,228.6l0.4-0.6"/>
								<path class="st7" d="M303.9,224.4l0.4-0.7"/>
								<path class="st7" d="M306.7,220.1l0.4-0.7"/>
								<path class="st7" d="M309.4,215.8l0.4-0.6"/>
								<path class="st7" d="M312.1,211.6l0.4-0.7"/>
								<path class="st7" d="M314.9,207.3l0.4-0.7"/>
								<path class="st7" d="M317.6,203l0.4-0.7"/>
								<path class="st7" d="M320.4,198.7l0.4-0.6"/>
								<path class="st7" d="M323.1,194.5l30.7-47.9"/>
								<path class="st7" d="M356.1,142.9l0.4-0.6"/>
								<path class="st7" d="M358.8,138.7l0.4-0.7"/>
								<path class="st7" d="M361.5,134.4l0.4-0.7"/>
								<path class="st7" d="M364.3,130.1l0.4-0.7"/>
								<path class="st7" d="M367,125.8l0.4-0.6"/>
								<path class="st7" d="M369.7,121.6l0.4-0.7"/>
								<path class="st7" d="M372.5,117.3l0.4-0.7"/>
								<path class="st7" d="M375.2,113l0.4-0.7"/>
								<path class="st7" d="M378,108.7l0.4-0.6"/>
								<path class="st7" d="M380.7,104.5l0.4-0.7"/>
								<path class="st7" d="M383.4,100.2l11.3-17.7"/>
							</g>
						</g>
						<g>
							<g id="id36">
								<rect x="86.4" y="19.6" class="st2" width="192.4" height="300.6"/>
								<path class="st7" d="M86.5,320.1l30.7-47.9"/>
								<path class="st7" d="M119.5,268.6l0.4-0.7"/>
								<path class="st7" d="M122.2,264.3l0.4-0.7"/>
								<path class="st7" d="M124.9,260l0.4-0.7"/>
								<path class="st7" d="M127.7,255.7l0.4-0.6"/>
								<path class="st7" d="M130.4,251.5l0.4-0.7"/>
								<path class="st7" d="M133.1,247.2l0.4-0.7"/>
								<path class="st7" d="M135.9,242.9l0.4-0.6"/>
								<path class="st7" d="M138.6,238.6l0.4-0.7"/>
								<path class="st7" d="M141.3,234.4l0.4-0.7"/>
								<path class="st7" d="M144.1,230.1l0.4-0.7"/>
								<path class="st7" d="M146.8,225.8l30.6-47.9"/>
								<path class="st7" d="M179.8,174.3l0.4-0.7"/>
								<path class="st7" d="M182.5,170l0.4-0.7"/>
								<path class="st7" d="M185.3,165.7l0.4-0.6"/>
								<path class="st7" d="M188,161.5l0.4-0.7"/>
								<path class="st7" d="M190.7,157.2l0.4-0.7"/>
								<path class="st7" d="M193.5,152.9l0.4-0.6"/>
								<path class="st7" d="M196.2,148.6l0.4-0.7"/>
								<path class="st7" d="M198.9,144.4l0.4-0.7"/>
								<path class="st7" d="M201.7,140.1l0.4-0.7"/>
								<path class="st7" d="M204.4,135.8l0.4-0.6"/>
								<path class="st7" d="M207.1,131.6l30.7-47.9"/>
								<path class="st7" d="M240.1,80l0.4-0.6"/>
								<path class="st7" d="M242.9,75.7l0.4-0.7"/>
								<path class="st7" d="M245.6,71.5l0.4-0.7"/>
								<path class="st7" d="M248.3,67.2l0.4-0.7"/>
								<path class="st7" d="M251.1,62.9l0.4-0.6"/>
								<path class="st7" d="M253.8,58.6l0.4-0.7"/>
								<path class="st7" d="M256.5,54.4l0.4-0.7"/>
								<path class="st7" d="M259.3,50.1l0.4-0.7"/>
								<path class="st7" d="M262,45.8l0.4-0.6"/>
								<path class="st7" d="M264.7,41.6l0.4-0.7"/>
								<path class="st7" d="M267.5,37.3l11.3-17.7"/>
							</g>
						</g>
						<g>
							<g id="id37">
								<rect x="168.3" y="157.7" class="st2" width="140.7" height="77.9"/>
								<path class="st9" d="M168.4,197.8c4.1-12.9,14.8-24.6,30.5-28.6c11.7-2.9,22.6-8.5,34.8-9.5c11.2-1,22.4-1.4,33.7-1.9
									c14.7-0.6,26.6,8.8,33.7,18.1c8.1,10.5,7.2,23.9,7.7,36.2c0.3,9,0.4,24.9-17.4,21.9c-16.1-2.7-28.6-12.1-35.9-22.9
									c-9.8-14.4-25.1-3.7-27.2,6.7c-2.8,13.8-22.3,21.3-34.8,16.2c-11.9-4.9-26.5-14.6-25.1-28.6v-1.9V197.8z"/>
								<path class="st10" d="M168.4,197.8c4.1-12.9,14.8-24.6,30.5-28.6c11.7-2.9,22.6-8.5,34.8-9.5c11.2-1,22.4-1.4,33.7-1.9
									c14.7-0.6,26.6,8.8,33.7,18.1c8.1,10.5,7.2,23.9,7.7,36.2c0.3,9,0.4,24.9-17.4,21.9c-16.1-2.7-28.6-12.1-35.9-22.9
									c-9.8-14.4-25.1-3.7-27.2,6.7c-2.8,13.8-22.3,21.3-34.8,16.2c-11.9-4.9-26.5-14.6-25.1-28.6v-1.9V197.8z"/>
							</g>
						</g>
						<g>
							<g id="id38">
								<rect x="164.4" y="153.9" class="st2" width="150.1" height="87.9"/>
								<path class="st11" d="M174.2,176.4c1.2-1,2.5-1.8,3.7-2.6"/>
								<path class="st11" d="M179.9,172.5c1.3-0.7,2.7-1.4,4.1-2"/>
								<path class="st11" d="M186.1,169.6c1.4-0.6,2.9-1.1,4.3-1.6"/>
								<path class="st11" d="M192.6,167.3c1.4-0.5,2.9-0.9,4.4-1.3"/>
								<path class="st11" d="M199.1,165.3c1.2-0.3,2.4-0.7,3.5-1c0.3-0.1,0.6-0.2,0.9-0.3"/>
								<path class="st11" d="M205.8,163.4c1.4-0.5,2.8-1.1,4.2-1.7"/>
								<path class="st11" d="M212.1,160.7c1.4-0.6,2.8-1.2,4.3-1.8"/>
								<path class="st11" d="M218.5,158.2c1.4-0.5,2.9-0.9,4.5-1.1"/>
								<path class="st11" d="M225.2,156.9c0.5,0,1-0.1,1.5-0.1c1,0,2.1,0,3.1,0"/>
								<path class="st11" d="M232.1,156.9c1.5,0,3.1,0,4.6,0"/>
								<path class="st11" d="M239,156.9c1.5,0,3.1-0.1,4.6-0.1"/>
								<path class="st11" d="M245.8,156.7c1.5-0.1,3.1-0.2,4.6-0.3"/>
								<path class="st11" d="M252.7,156.2c0.1,0,0.1,0,0.2,0c1.5-0.2,2.9-0.2,4.4-0.3"/>
								<path class="st11" d="M259.6,155.9c1.5,0,3.1,0.1,4.6,0.1"/>
								<path class="st11" d="M266.4,156c1.5,0,3.1,0,4.6-0.1"/>
								<path class="st11" d="M273.3,155.6c1.5-0.2,2.9-0.5,4.4-1c0,0,0.1,0,0.1-0.1"/>
								<path class="st11" d="M280,154.1c1.6-0.2,3.1-0.1,4.5,0.3"/>
								<path class="st11" d="M286.7,155.3c1.3,0.7,2.6,1.6,3.7,2.7"/>
								<path class="st11" d="M292,159.6c1,1.1,2,2.3,2.9,3.5"/>
								<path class="st11" d="M296.4,164.9c1,1.2,2,2.4,3.1,3.4"/>
								<path class="st11" d="M301.2,169.8c1.1,1,2.2,2.2,3.1,3.3"/>
								<path class="st11" d="M305.7,175c0.9,1.2,1.7,2.6,2.4,3.9"/>
								<path class="st11" d="M309.1,180.9c0.6,1.4,1.2,2.8,1.6,4.3"/>
								<path class="st11" d="M311.3,187.4c0.4,1.5,0.6,3,0.8,4.5"/>
								<path class="st11" d="M312.2,194.2c0.1,1.5,0.2,3.1,0.3,4.6"/>
								<path class="st11" d="M312.6,201.1c0.1,1.5,0.2,3.1,0.3,4.6"/>
								<path class="st11" d="M313.1,207.9c0.1,1.5,0.1,3.1,0.1,4.6"/>
								<path class="st11" d="M313.2,214.8c0,1.5-0.1,3.1-0.3,4.6"/>
								<path class="st11" d="M312.9,221.7c0.1,1.4,0.5,2.9,0.8,4.5"/>
								<path class="st11" d="M314.1,228.5c0.3,1.6,0.5,3.2,0.3,4.6"/>
								<path class="st11" d="M313.8,235.2c-0.6,1.2-1.7,2-3.6,2.4"/>
								<path class="st11" d="M307.9,237.7c-1.1-0.1-2.4-0.3-3.9-0.6c-0.2,0-0.4-0.1-0.7-0.1"/>
								<path class="st11" d="M301,236.6c-1.5-0.2-3-0.4-4.6-0.5"/>
								<path class="st11" d="M294.2,235.9c-1.5-0.1-3.1-0.1-4.6-0.2"/>
								<path class="st11" d="M287.3,235.7c-1.5,0-3,0-4.6,0"/>
								<path class="st11" d="M280.4,235.6c-0.4,0-0.9,0-1.3,0c-1.2,0-2.3-0.1-3.3-0.3"/>
								<path class="st11" d="M273.6,234.6c-1.5-0.6-2.8-1.4-3.9-2.3"/>
								<path class="st11" d="M268.1,230.7c-1-1.1-1.9-2.4-2.8-3.6"/>
								<path class="st11" d="M264,225.2c-0.9-1.2-1.8-2.4-2.9-3.5"/>
								<path class="st11" d="M259.4,220.1c-0.8-0.7-1.7-1.2-2.7-1.7c-0.4-0.2-0.8-0.4-1.2-0.6"/>
								<path class="st11" d="M253.3,216.9c-1.4-0.5-2.9-1-4.4-1.4"/>
								<path class="st11" d="M246.7,215.1c-1.6-0.2-3.1-0.3-4.6-0.1"/>
								<path class="st11" d="M239.9,215.5c-1.5,0.4-2.8,1.1-4,2.2"/>
								<path class="st11" d="M234.3,219.3c-0.6,0.8-1.2,1.7-1.7,2.8c-0.2,0.4-0.4,0.8-0.6,1.2"/>
								<path class="st11" d="M231,225.3c-0.8,1.3-1.7,2.5-2.7,3.7"/>
								<path class="st11" d="M226.7,230.7c-1.1,1.1-2.3,2.1-3.5,3"/>
								<path class="st11" d="M221.3,235c-1.3,0.9-2.6,1.6-4,2.2"/>
								<path class="st11" d="M215.2,238.1c-1.4,0.5-2.9,1-4.3,1.3c0,0-0.1,0-0.1,0"/>
								<path class="st11" d="M208.6,239.9c-1.4,0.3-2.9,0.7-4.5,1"/>
								<path class="st11" d="M201.8,241.3c-1.5,0.2-3.1,0.4-4.6,0.5"/>
								<path class="st11" d="M195,241.7c-1.6-0.1-3.1-0.5-4.5-1.1"/>
								<path class="st11" d="M188.6,239.4c-0.7-0.6-1.3-1.4-1.8-2.3c-0.3-0.6-0.6-1.1-0.9-1.6"/>
								<path class="st11" d="M184.6,233.8c-1.1-1.3-2.3-2.2-3.5-2.9"/>
								<path class="st11" d="M179.1,229.8c-1.4-0.6-2.9-1-4.3-1.5"/>
								<path class="st11" d="M172.6,227.6c-1.4-0.6-2.7-1.3-3.9-2.4"/>
								<path class="st11" d="M167.4,223.3c-0.6-1.1-1.2-2.5-1.5-4.2c0,0,0-0.1,0-0.1"/>
								<path class="st11" d="M165.5,216.7c-0.3-1.5-0.5-3-0.6-4.6"/>
								<path class="st11" d="M164.6,209.9c-0.1-1.5-0.1-3.1-0.2-4.6"/>
								<path class="st11" d="M164.5,203c0-1.5,0.1-3,0.2-4.6"/>
								<path class="st11" d="M164.9,196.1c0.1-0.8,0.2-1.7,0.3-2.5l0.9-1.9"/>
								<path class="st11" d="M166.9,189.7l1.9-4.2"/>
								<path class="st11" d="M170.4,183.9l1.5-1.5"/>
							</g>
						</g>
						<g>
							<g id="id39">
								<rect x="156.1" y="144.8" class="st2" width="170.7" height="105.3"/>
								<path class="st11" d="M183.1,167.4c1.1-1.1,2.2-2.2,3.4-3.1"/>
								<path class="st11" d="M188.4,163c1.3-0.8,2.6-1.6,4-2.2"/>
								<path class="st11" d="M194.6,159.9c1.4-0.5,2.9-1,4.4-1.4"/>
								<path class="st11" d="M201.2,158c1.5-0.3,3-0.6,4.5-0.8"/>
								<path class="st11" d="M207.9,156.9c0.3,0,0.5,0,0.7-0.1c1.3-0.1,2.6-0.2,3.8-0.4"/>
								<path class="st11" d="M214.8,156.3c1.5-0.2,3-0.4,4.5-0.6"/>
								<path class="st11" d="M221.6,155.3c1.5-0.3,3-0.6,4.5-1"/>
								<path class="st11" d="M228.3,153.7c1.5-0.5,2.9-1,4.3-1.6"/>
								<path class="st11" d="M234.6,151.1c1.3-0.7,2.7-1.3,4.2-1.9"/>
								<path class="st11" d="M240.9,148.3c1.4-0.5,2.9-1,4.4-1.4"/>
								<path class="st11" d="M247.5,146.4c1.5-0.3,3.1-0.3,4.6-0.3"/>
								<path class="st11" d="M254.3,146.4c1.3,0.3,2.6,0.8,3.8,1.4c0.1,0.1,0.3,0.2,0.4,0.2"/>
								<path class="st11" d="M260.7,149c1.5,0.5,3,0.8,4.5,0.9"/>
								<path class="st11" d="M267.5,149.9c1.5-0.1,3-0.4,4.5-0.8"/>
								<path class="st11" d="M274.2,148.4c1.5-0.5,2.9-1,4.3-1.5"/>
								<path class="st11" d="M280.6,146.1c0.5-0.2,1-0.3,1.5-0.5c1-0.3,2-0.5,2.9-0.7"/>
								<path class="st11" d="M287.4,144.8c1.6,0.1,3.1,0.5,4.4,1.1"/>
								<path class="st11" d="M293.7,147.1c1.2,0.9,2.4,1.9,3.4,3"/>
								<path class="st11" d="M298.7,151.9c1,1.2,1.9,2.4,2.9,3.6"/>
								<path class="st11" d="M303,157.3c0.8,0.9,1.6,1.8,2.4,2.6c0.3,0.3,0.5,0.5,0.7,0.7"/>
								<path class="st11" d="M307.7,162.2c1,1.1,2.1,2.3,3.1,3.4"/>
								<path class="st11" d="M312.3,167.4c1,1.2,2,2.3,2.9,3.5"/>
								<path class="st11" d="M316.7,172.6c1,1.1,2,2.3,3.1,3.4"/>
								<path class="st11" d="M321.5,177.6c0.6,0.6,1.3,1.2,2,1.8c0.5,0.5,1,0.9,1.3,1.4"/>
								<path class="st11" d="M325.9,182.8c0.6,1.4,0.8,2.9,0.8,4.5"/>
								<path class="st11" d="M326.6,189.6c-0.2,1.4-0.5,3-0.9,4.5"/>
								<path class="st11" d="M325.1,196.3c-0.4,1.5-0.9,2.9-1.4,4.4"/>
								<path class="st11" d="M323,202.9c-0.4,1.2-0.8,2.4-1.1,3.5c-0.1,0.3-0.1,0.6-0.2,0.9"/>
								<path class="st11" d="M321.2,209.5c-0.2,1.5-0.3,3-0.3,4.6"/>
								<path class="st11" d="M320.9,216.4c0.1,1.5,0.2,3,0.3,4.6"/>
								<path class="st11" d="M321.5,223.2c0.1,1.5,0.3,3,0.3,4.6"/>
								<path class="st11" d="M321.9,230.1c0,0.3,0,0.7,0,1c0,1.2-0.2,2.4-0.5,3.5"/>
								<path class="st11" d="M320.7,236.8c-0.7,1.4-1.6,2.7-2.7,3.7"/>
								<path class="st11" d="M316.2,242c-1.2,0.9-2.6,1.6-4.1,2.1"/>
								<path class="st11" d="M310,244.6c-1.6,0.3-3.1,0.3-4.6,0"/>
								<path class="st11" d="M303.2,243.9C303.2,243.9,303.1,243.9,303.2,243.9c-1.5-0.7-2.9-1.2-4.3-1.6"/>
								<path class="st11" d="M296.6,241.9c-1.6-0.3-3.1-0.4-4.6-0.4"/>
								<path class="st11" d="M289.8,241.6c-1.5,0.1-3,0.2-4.6,0.4"/>
								<path class="st11" d="M282.9,242.1c-1.5,0.1-3,0.2-4.5,0.2c0,0,0,0-0.1,0"/>
								<path class="st11" d="M276,242.2c-1.5-0.3-2.9-0.8-4.3-1.4"/>
								<path class="st11" d="M269.8,239.6c-1.3-0.8-2.5-1.7-3.7-2.7"/>
								<path class="st11" d="M264.3,235.4c-1.2-1-2.4-2-3.6-2.9"/>
								<path class="st11" d="M258.8,231.3c-1.3-0.8-2.7-1.5-4.1-2"/>
								<path class="st11" d="M252.4,228.8c-1.5-0.3-3-0.6-4.5-0.8"/>
								<path class="st11" d="M245.6,227.7c-1.5-0.1-3.1-0.2-4.6-0.1"/>
								<path class="st11" d="M238.8,228c-1.4,0.3-2.9,0.9-4.2,1.7"/>
								<path class="st11" d="M232.7,231c-1,0.9-2.1,2-3,3.4"/>
								<path class="st11" d="M228.4,236.4c-0.9,1.3-1.9,2.4-3.1,3.4"/>
								<path class="st11" d="M223.5,241.1c-1.2,0.8-2.6,1.5-4.1,2.1"/>
								<path class="st11" d="M217.3,244c-1.4,0.5-2.9,0.9-4.5,1.2"/>
								<path class="st11" d="M210.6,245.6c-1.5,0.2-3,0.4-4.6,0.5"/>
								<path class="st11" d="M203.7,246.2c-1.5,0.1-3,0.4-4.5,0.8"/>
								<path class="st11" d="M197,247.5c-1.5,0.4-2.9,0.9-4.4,1.3"/>
								<path class="st11" d="M190.4,249.4c-1.5,0.4-3.1,0.6-4.5,0.6"/>
								<path class="st11" d="M183.6,249.8c-1.2-0.2-2.3-0.7-3.4-1.4c-0.3-0.2-0.5-0.3-0.7-0.5"/>
								<path class="st11" d="M177.6,246.4c-1.2-1-2.2-2.1-3.2-3.2"/>
								<path class="st11" d="M173,241.4c-0.9-1.2-1.8-2.5-2.6-3.8"/>
								<path class="st11" d="M169.2,235.7c-0.8-1.3-1.5-2.6-2.2-4"/>
								<path class="st11" d="M165.8,229.7c-0.7-1.3-1.4-2.7-2.2-4"/>
								<path class="st11" d="M162.5,223.6c-0.8-1.4-1.5-2.7-2.1-4.1"/>
								<path class="st11" d="M159.5,217.5c-0.6-1.5-1.1-2.9-1.6-4.3"/>
								<path class="st11" d="M157.2,211c-0.4-1.5-0.7-3-0.9-4.5"/>
								<path class="st11" d="M156.2,204.2c-0.1-1.5-0.1-3-0.1-4.6"/>
								<path class="st11" d="M156.3,197.3c0.2-1.5,0.5-3,0.9-4.5"/>
								<path class="st11" d="M157.8,190.6c0.5-1.4,1.1-2.8,1.8-4.2"/>
								<path class="st11" d="M160.7,184.4c0.7-1.3,1.5-2.6,2.4-3.9"/>
								<path class="st11" d="M164.4,178.6c0.9-1.2,1.9-2.4,2.9-3.6"/>
								<path class="st11" d="M168.7,173.3l2.9-3.6"/>
								<path class="st11" d="M173.1,168l1.1-1.3l2.5-1.4"/>
								<path class="st11" d="M178.7,164.2l3.7-2h0.3"/>
								<path class="st11" d="M185.1,162.1h3.3"/>
							</g>
						</g>
						<g>
							<g id="id40">
								<rect x="150.4" y="128.2" class="st2" width="191.6" height="130.6"/>
								<path class="st11" d="M152.4,192.9c-0.1-1.6,0-3.1,0.1-4.6"/>
								<path class="st11" d="M152.9,186c0.3-1.5,0.7-3,1.3-4.4"/>
								<path class="st11" d="M155.1,179.5c0.7-1.4,1.4-2.7,2.2-4"/>
								<path class="st11" d="M158.6,173.6c0.9-1.2,1.9-2.4,2.9-3.5"/>
								<path class="st11" d="M163.1,168.5c0.7-0.7,1.3-1.2,2-1.8c0.5-0.4,0.9-0.8,1.4-1.2"/>
								<path class="st11" d="M168.3,163.9c1.1-1,2.3-2,3.5-2.9"/>
								<path class="st11" d="M173.6,159.6c1.2-0.9,2.5-1.8,3.8-2.5"/>
								<path class="st11" d="M179.5,156c1.4-0.7,2.8-1.2,4.3-1.6"/>
								<path class="st11" d="M186,154c1-0.1,2-0.2,3.1-0.2c0.5,0,1,0,1.5,0"/>
								<path class="st11" d="M192.9,153.6c1.5-0.2,3-0.6,4.5-1"/>
								<path class="st11" d="M199.5,151.9c1.4-0.5,2.8-1.1,4.2-1.7"/>
								<path class="st11" d="M205.9,149.1c1.4-0.7,2.7-1.3,4.1-2"/>
								<path class="st11" d="M212,146.1c0.9-0.4,1.8-0.8,2.6-1.2c0.5-0.2,1-0.4,1.6-0.6"/>
								<path class="st11" d="M218.4,143.7c1.5-0.3,3-0.5,4.5-0.6"/>
								<path class="st11" d="M225.3,142.9c1.5-0.1,3.1-0.3,4.5-0.6"/>
								<path class="st11" d="M232,141.8c1.4-0.5,2.8-1.1,4.1-2"/>
								<path class="st11" d="M237.8,138.2C237.9,138.2,237.9,138.2,237.8,138.2c1.2-1.2,2.4-2.1,3.7-2.8"/>
								<path class="st11" d="M243.6,134.6c1.4-0.5,3-0.7,4.5-0.7"/>
								<path class="st11" d="M250.4,134.1c1.5,0.1,3,0.5,4.5,0.8"/>
								<path class="st11" d="M257.1,135.5c1.5,0.5,3,1,4.4,1.4"/>
								<path class="st11" d="M263.7,137.7c1.6,0.4,3.1,0.4,4.5,0.2"/>
								<path class="st11" d="M270.4,137.2c1.4-0.5,2.7-1.3,4.1-2.1"/>
								<path class="st11" d="M276.5,133.9c1.4-0.8,2.7-1.5,4.1-2"/>
								<path class="st11" d="M282.8,131.5c1.4-0.2,2.9,0,4.5,0.6"/>
								<path class="st11" d="M289.6,132.6c1.5,0.1,3-0.3,4.5-0.8"/>
								<path class="st11" d="M296.2,130.9c1.4-0.7,2.9-1.3,4.2-1.9"/>
								<path class="st11" d="M302.6,128.4c1.6-0.3,3.1-0.1,4.2,1.2"/>
								<path class="st11" d="M308,131.4c0.5,1.1,0.8,2.6,1.1,4.5"/>
								<path class="st11" d="M309.4,138.2c0.3,1.5,0.6,3,1,4.5"/>
								<path class="st11" d="M311.1,144.8c0.5,1.4,1.2,2.8,1.9,4.2"/>
								<path class="st11" d="M314.1,151c0.8,1.3,1.6,2.6,2.5,3.9"/>
								<path class="st11" d="M318,156.7c0.9,1.2,1.9,2.3,2.9,3.5"/>
								<path class="st11" d="M322.5,162c1,1.1,2.1,2.2,3.2,3.3"/>
								<path class="st11" d="M327.3,166.8c1.1,1.1,2.2,2.1,3.3,3.2"/>
								<path class="st11" d="M332.2,171.6c1.1,1.1,2.1,2.2,3.1,3.3"/>
								<path class="st11" d="M336.8,176.8c0.9,1.2,1.8,2.5,2.6,3.8"/>
								<path class="st11" d="M340.4,182.6c0.4,0.9,0.8,1.8,1,2.8c0.2,0.5,0.3,1.1,0.4,1.6"/>
								<path class="st11" d="M341.9,189.3c-0.1,1.5-0.4,3-0.9,4.5"/>
								<path class="st11" d="M340.2,195.9c-0.6,1.4-1.3,2.7-2,4.1"/>
								<path class="st11" d="M337.2,202.1c-0.7,1.4-1.2,2.8-1.7,4.3"/>
								<path class="st11" d="M335,208.5c-0.1,0.8-0.3,1.5-0.3,2.3c0,0.8-0.1,1.5-0.1,2.3"/>
								<path class="st11" d="M334.3,215.4c-0.2,1.5-0.5,3-0.9,4.5"/>
								<path class="st11" d="M332.9,222.1c-0.4,1.4-0.8,2.9-1.2,4.4"/>
								<path class="st11" d="M331.1,228.8c-0.4,1.4-0.8,2.8-1.2,4.4"/>
								<path class="st11" d="M329.3,235.4c-0.5,1.6-1,3.1-1.6,4.3"/>
								<path class="st11" d="M326.6,241.8c-0.9,1.4-1.8,2.6-2.8,3.6"/>
								<path class="st11" d="M322.1,246.8c-1.2,1-2.5,1.8-3.7,2.7"/>
								<path class="st11" d="M316.5,250.8c-1.2,0.8-2.4,1.7-3.6,2.8c0,0,0,0,0,0"/>
								<path class="st11" d="M311,255c-1.4,0.9-2.8,1.3-4.3,1.4"/>
								<path class="st11" d="M304.5,256.5c-1.5-0.1-3-0.3-4.5-0.6"/>
								<path class="st11" d="M297.6,255.5c-1.5-0.3-3-0.5-4.5-0.5"/>
								<path class="st11" d="M290.8,255.2c-0.9,0.1-1.8,0.3-2.7,0.7c-0.6,0.2-1.2,0.4-1.8,0.5"/>
								<path class="st11" d="M284.1,256.8c-1.6,0.1-3.1,0.1-4.6-0.2"/>
								<path class="st11" d="M277.4,256c-1.4-0.5-2.8-1.2-4.1-2"/>
								<path class="st11" d="M271.3,252.8c-1.2-0.9-2.4-1.8-3.6-2.8"/>
								<path class="st11" d="M266,248.4c-1.1-1-2.2-2-3.3-3.1c0,0,0,0-0.1-0.1"/>
								<path class="st11" d="M260.9,243.7c-1.2-1.1-2.3-2.1-3.4-3"/>
								<path class="st11" d="M255.8,239.2c-1.3-1-2.5-2-3.7-2.7"/>
								<path class="st11" d="M250.1,235.3c-1.5-0.7-2.9-1.1-4.4-1.1"/>
								<path class="st11" d="M243.5,234.5c-0.9,0.2-1.7,0.6-2.6,1.1c-0.5,0.3-1,0.6-1.6,0.9"/>
								<path class="st11" d="M237.4,237.7c-1.3,0.9-2.6,1.7-3.8,2.5"/>
								<path class="st11" d="M231.7,241.5c-1.3,0.9-2.5,1.8-3.8,2.6"/>
								<path class="st11" d="M226,245.4c-1.3,0.9-2.6,1.7-3.8,2.5"/>
								<path class="st11" d="M220.2,249.1c-0.9,0.5-1.7,1-2.6,1.5c-0.5,0.3-0.9,0.5-1.4,0.8"/>
								<path class="st11" d="M214.2,252.4c-1.4,0.7-2.8,1.3-4.2,1.9"/>
								<path class="st11" d="M207.9,255.2c-1.4,0.6-2.9,1-4.4,1.4"/>
								<path class="st11" d="M201.3,257c-1.5,0.2-3.1,0.3-4.6,0.2"/>
								<path class="st11" d="M194.4,257c-0.5-0.1-1-0.2-1.5-0.3c-1-0.3-2-0.4-3-0.4"/>
								<path class="st11" d="M187.6,256.3c-1.5,0.2-3,0.5-4.5,0.9"/>
								<path class="st11" d="M180.9,257.8c-1.6,0.4-3.1,0.7-4.5,0.9"/>
								<path class="st11" d="M174.1,258.6c-1.5-0.2-2.8-0.8-3.9-2.1"/>
								<path class="st11" d="M169,254.6c0-0.1-0.1-0.1-0.1-0.2c-0.6-1.4-1.2-2.7-1.9-4"/>
								<path class="st11" d="M165.9,248.4c-0.7-1.4-1.5-2.7-2.3-4"/>
								<path class="st11" d="M162.4,242.4c-0.8-1.3-1.7-2.6-2.6-3.8"/>
								<path class="st11" d="M158.5,236.8c-0.9-1.2-1.9-2.4-2.8-3.6"/>
								<path class="st11" d="M154.2,231.4c-0.1-0.1-0.2-0.2-0.3-0.3c-1-1.1-1.7-2.3-2.2-3.5"/>
								<path class="st11" d="M151,225.4c-0.4-1.5-0.5-3-0.5-4.5"/>
								<path class="st11" d="M150.5,218.6c0.1-1.5,0.2-3.1,0.3-4.6"/>
								<path class="st11" d="M150.9,211.7c0.1-1.6,0.1-3.1,0-4.6"/>
								<path class="st11" d="M150.9,204.9v-4.6"/>
								<path class="st11" d="M150.9,198l1.2-4.4"/>
								<path class="st11" d="M152.8,191.4l0.4-1.5v-2.2"/>
							</g>
						</g>
						<g>
							<g id="id41">
								<rect x="453.6" y="82.1" class="st2" width="17.1" height="10"/>
								<path class="st7" d="M470.6,82.5l-6.4,3.6"/>
								<path class="st8" d="M453.6,92.2l13.2-2.6l-4.2-7.4L453.6,92.2z"/>
							</g>
						</g>
						<g>
							<g id="id42">
								<rect x="460.9" y="89.6" class="st2" width="15.4" height="9.9"/>
								<path class="st7" d="M476.2,91l-4.6,2.6"/>
								<path class="st8" d="M460.9,99.5l13.2-2.5l-4.1-7.5L460.9,99.5z"/>
							</g>
						</g>
						<g>
							<g id="id43">
								<rect x="465.5" y="97.8" class="st2" width="15.6" height="10.3"/>
								<path class="st7" d="M481.1,98.7l-5.1,3.1"/>
								<path class="st8" d="M465.5,108l13.1-2.9l-4.4-7.3L465.5,108z"/>
							</g>
						</g>
						<g>
							<g id="id44">
								<rect x="466" y="105.2" class="st2" width="19.9" height="11.4"/>
								<path class="st7" d="M485.9,105.2l-9.3,5.3"/>
								<path class="st8" d="M466,116.5l13.2-2.6l-4.2-7.4L466,116.5z"/>
							</g>
						</g>
						<g>
							<g id="id45">
								<rect x="469.4" y="112.3" class="st2" width="21.3" height="12.8"/>
								<path class="st7" d="M490.7,112.3l-10.8,6.5"/>
								<path class="st8" d="M469.4,125l13.1-2.9l-4.4-7.3L469.4,125z"/>
							</g>
						</g>
						<g>
							<g id="id46">
								<rect x="475.1" y="120.8" class="st2" width="21.3" height="12.8"/>
								<path class="st7" d="M496.4,120.8l-10.8,6.5"/>
								<path class="st8" d="M475.1,133.5l13.1-2.9l-4.4-7.3L475.1,133.5z"/>
							</g>
						</g>
						<g>
							<g id="id47">
								<rect x="487.6" y="127.8" class="st2" width="14.2" height="10.6"/>
								<path class="st7" d="M501.7,129l-4,2.6"/>
								<path class="st8" d="M487.6,138.4l13-3.5l-4.7-7.1L487.6,138.4z"/>
							</g>
						</g>
						<g>
							<g id="id48">
								<rect x="107.7" y="296.2" class="st2" width="24.2" height="35.5"/>
								<path class="st7" d="M107.7,331.7l17.2-25.3"/>
								<path class="st8" d="M131.8,296.2l-10.7,8.2l7,4.8L131.8,296.2z"/>
							</g>
						</g>
						<g>
							<g id="id49">
								<rect x="116.2" y="296.2" class="st2" width="25.6" height="39.7"/>
								<path class="st7" d="M116.2,335.9l18.9-29.4"/>
								<path class="st8" d="M141.7,296.2l-10.5,8.4l7.2,4.6L141.7,296.2z"/>
							</g>
						</g>
						<g>
							<g id="id50">
								<rect x="124.7" y="297.9" class="st2" width="28.4" height="42.6"/>
								<path class="st7" d="M124.7,340.5l21.6-32.4"/>
								<path class="st8" d="M153.1,297.9l-10.6,8.2l7.1,4.7L153.1,297.9z"/>
							</g>
						</g>
						<g>
							<g id="id51">
								<rect x="133.2" y="306.7" class="st2" width="25" height="39.2"/>
								<path class="st7" d="M133.2,345.9l18.4-28.8"/>
								<path class="st8" d="M158.2,306.7l-10.4,8.5l7.2,4.6L158.2,306.7z"/>
							</g>
						</g>
						<g>
							<g id="id52">
								<rect x="140.6" y="315.5" class="st2" width="21.6" height="34.1"/>
								<path class="st7" d="M140.6,349.5l15-23.7"/>
								<path class="st8" d="M162.2,315.5l-10.4,8.5l7.2,4.5L162.2,315.5z"/>
							</g>
						</g>
						<g>
							<g id="id53">
								<rect x="148" y="327.1" class="st2" width="16.8" height="26.1"/>
								<path class="st7" d="M148,353.2l10.1-15.8"/>
								<path class="st8" d="M164.7,327.1l-10.5,8.4l7.1,4.6L164.7,327.1z"/>
							</g>
						</g>
						<g>
							<g id="id54">
								<rect x="154" y="341" class="st2" width="10.4" height="15.9"/>
								<path class="st7" d="M154.5,356.9l3.5-5.5"/>
								<path class="st8" d="M164.4,341l-10.4,8.6l7.2,4.5L164.4,341z"/>
							</g>
						</g>
						<g>
							<g id="id55">
								<rect x="158.9" y="349.6" class="st2" width="9.6" height="13.4"/>
								<path class="st8" d="M168.4,349.6l-9.6,9.4l7.6,3.9L168.4,349.6z"/>
							</g>
						</g>
						<g>
							<g id="id56">
								<rect x="300.5" y="246.9" class="st2" width="39.8" height="0.1"/>
								<path class="st12" d="M300.5,246.9h39.7"/>
							</g>
						</g>
						<g>
							<g id="id57">
								<rect x="300.5" y="258.2" class="st2" width="39.8" height="0.1"/>
								<path class="st12" d="M300.5,258.3h39.7"/>
							</g>
						</g>
						<g>
							<g id="id58">
								<rect x="326" y="238.4" class="st2" width="0.1" height="28.4"/>
								<path class="st12" d="M326,266.8v-28.3"/>
							</g>
						</g>
						<g>
							<g id="id59">
								<rect x="314.6" y="238.4" class="st2" width="0.1" height="28.4"/>
								<path class="st12" d="M314.7,266.8v-28.3"/>
							</g>
						</g>
						<g>
							<g id="id60">
								<rect x="300.5" y="238.4" class="st2" width="39.8" height="0.1"/>
								<path class="st12" d="M300.5,238.4h39.7"/>
							</g>
						</g>
						<g>
							<g id="id61">
								<rect x="300.5" y="266.7" class="st2" width="39.8" height="0.1"/>
								<path class="st12" d="M300.5,266.8h39.7"/>
							</g>
						</g>
						<g>
							<g id="id62">
								<rect x="340.1" y="238.4" class="st2" width="0.1" height="28.4"/>
								<path class="st12" d="M340.2,266.8v-28.3"/>
							</g>
						</g>
						<g>
							<g id="id63">
								<rect x="300.5" y="238.4" class="st2" width="0.1" height="28.4"/>
								<path class="st12" d="M300.5,266.8v-28.3"/>
							</g>
						</g>
						<g>
							<g id="id64">
								<rect x="421.2" y="231" class="st2" width="79.4" height="35.8"/>
								<text transform="matrix(1 0 0 1 428.9506 244.5164)" class="st13 st14 st15">NTCP = 0.02</text>
							</g>
						</g>
						<g>
							<g id="id65">
								<rect x="379.8" y="326.2" class="st2" width="11.5" height="11.5"/>
								<path class="st16" d="M391.2,332c0,1-0.3,2-0.8,2.8c-0.5,0.9-1.2,1.6-2.1,2.1c-0.9,0.5-1.8,0.8-2.8,0.8c-1,0-2-0.3-2.9-0.8
									c-0.9-0.5-1.6-1.2-2.1-2.1c-0.5-0.9-0.8-1.8-0.8-2.8c0-1,0.3-2,0.8-2.9c0.5-0.9,1.2-1.6,2.1-2.1c0.9-0.5,1.8-0.8,2.9-0.8
									c1,0,2,0.3,2.8,0.8c0.9,0.5,1.6,1.2,2.1,2.1C391,330,391.2,330.9,391.2,332L391.2,332z"/>
								<path class="st4" d="M391.2,332c0,1-0.3,2-0.8,2.8c-0.5,0.9-1.2,1.6-2.1,2.1c-0.9,0.5-1.8,0.8-2.8,0.8c-1,0-2-0.3-2.9-0.8
									c-0.9-0.5-1.6-1.2-2.1-2.1c-0.5-0.9-0.8-1.8-0.8-2.8c0-1,0.3-2,0.8-2.9c0.5-0.9,1.2-1.6,2.1-2.1c0.9-0.5,1.8-0.8,2.9-0.8
									c1,0,2,0.3,2.8,0.8c0.9,0.5,1.6,1.2,2.1,2.1C391,330,391.2,330.9,391.2,332z"/>
							</g>
						</g>
						<g>
							<g id="id66">
								<rect x="379.9" y="348.9" class="st2" width="11.5" height="11.5"/>
								<path class="st16" d="M391.2,354.6c0,1-0.3,2-0.8,2.9c-0.5,0.9-1.2,1.6-2.1,2.1c-0.9,0.5-1.8,0.8-2.8,0.8
									c-1,0-2-0.3-2.9-0.8c-0.9-0.5-1.6-1.2-2.1-2.1c-0.5-0.9-0.8-1.8-0.8-2.9c0-1,0.3-2,0.8-2.8c0.5-0.9,1.2-1.6,2.1-2.1
									c0.9-0.5,1.8-0.8,2.9-0.8c1,0,2,0.3,2.8,0.8c0.9,0.5,1.6,1.2,2.1,2.1C391,352.7,391.2,353.6,391.2,354.6L391.2,354.6z"/>
								<path class="st4" d="M391.2,354.6c0,1-0.3,2-0.8,2.9c-0.5,0.9-1.2,1.6-2.1,2.1c-0.9,0.5-1.8,0.8-2.8,0.8c-1,0-2-0.3-2.9-0.8
									c-0.9-0.5-1.6-1.2-2.1-2.1c-0.5-0.9-0.8-1.8-0.8-2.9c0-1,0.3-2,0.8-2.8c0.5-0.9,1.2-1.6,2.1-2.1c0.9-0.5,1.8-0.8,2.9-0.8
									c1,0,2,0.3,2.8,0.8c0.9,0.5,1.6,1.2,2.1,2.1C391,352.7,391.2,353.6,391.2,354.6z"/>
							</g>
						</g>
						<g>
							<g id="id67">
								<rect x="405.3" y="317.7" class="st2" width="11.5" height="11.5"/>
								<path class="st16" d="M416.7,323.4c0,1-0.3,2-0.8,2.8c-0.5,0.9-1.2,1.6-2.1,2.1c-0.9,0.5-1.8,0.8-2.8,0.8
									c-1,0-2-0.3-2.9-0.8c-0.9-0.5-1.6-1.2-2.1-2.1c-0.5-0.9-0.8-1.8-0.8-2.8c0-1,0.3-2,0.8-2.9c0.5-0.9,1.2-1.6,2.1-2.1
									c0.9-0.5,1.8-0.8,2.9-0.8c1,0,2,0.3,2.8,0.8c0.9,0.5,1.6,1.2,2.1,2.1C416.4,321.4,416.7,322.4,416.7,323.4L416.7,323.4z"/>
								<path class="st17" d="M416.7,323.4c0,1-0.3,2-0.8,2.8c-0.5,0.9-1.2,1.6-2.1,2.1c-0.9,0.5-1.8,0.8-2.8,0.8
									c-1,0-2-0.3-2.9-0.8c-0.9-0.5-1.6-1.2-2.1-2.1c-0.5-0.9-0.8-1.8-0.8-2.8c0-1,0.3-2,0.8-2.9c0.5-0.9,1.2-1.6,2.1-2.1
									c0.9-0.5,1.8-0.8,2.9-0.8c1,0,2,0.3,2.8,0.8c0.9,0.5,1.6,1.2,2.1,2.1C416.4,321.4,416.7,322.4,416.7,323.4z"/>
							</g>
						</g>
						<g>
							<g id="id68">
								<rect x="405.3" y="334.7" class="st2" width="11.5" height="11.5"/>
								<path class="st16" d="M416.7,340.5c0,1-0.3,2-0.8,2.8c-0.5,0.9-1.2,1.6-2.1,2.1c-0.9,0.5-1.8,0.8-2.8,0.8
									c-1,0-2-0.3-2.9-0.8c-0.9-0.5-1.6-1.2-2.1-2.1c-0.5-0.9-0.8-1.8-0.8-2.8c0-1,0.3-2,0.8-2.9c0.5-0.9,1.2-1.6,2.1-2.1
									c0.9-0.5,1.8-0.8,2.9-0.8c1,0,2,0.3,2.8,0.8c0.9,0.5,1.6,1.2,2.1,2.1C416.5,338.5,416.7,339.4,416.7,340.5L416.7,340.5z"/>
								<path class="st4" d="M416.7,340.5c0,1-0.3,2-0.8,2.8c-0.5,0.9-1.2,1.6-2.1,2.1c-0.9,0.5-1.8,0.8-2.8,0.8c-1,0-2-0.3-2.9-0.8
									c-0.9-0.5-1.6-1.2-2.1-2.1c-0.5-0.9-0.8-1.8-0.8-2.8c0-1,0.3-2,0.8-2.9c0.5-0.9,1.2-1.6,2.1-2.1c0.9-0.5,1.8-0.8,2.9-0.8
									c1,0,2,0.3,2.8,0.8c0.9,0.5,1.6,1.2,2.1,2.1C416.5,338.5,416.7,339.4,416.7,340.5z"/>
							</g>
						</g>
						<g>
							<g id="id69">
								<rect x="405.3" y="317.7" class="st2" width="11.5" height="11.5"/>
								<path class="st16" d="M416.7,323.5c0,1-0.3,2-0.8,2.8c-0.5,0.9-1.2,1.6-2.1,2.1c-0.9,0.5-1.8,0.8-2.8,0.8
									c-1,0-2-0.3-2.9-0.8c-0.9-0.5-1.6-1.2-2.1-2.1c-0.5-0.9-0.8-1.8-0.8-2.8c0-1,0.3-2,0.8-2.9c0.5-0.9,1.2-1.6,2.1-2.1
									c0.9-0.5,1.8-0.8,2.9-0.8c1,0,2,0.3,2.8,0.8c0.9,0.5,1.6,1.2,2.1,2.1C416.5,321.5,416.7,322.4,416.7,323.5L416.7,323.5z"/>
								<path class="st4" d="M416.7,323.5c0,1-0.3,2-0.8,2.8c-0.5,0.9-1.2,1.6-2.1,2.1c-0.9,0.5-1.8,0.8-2.8,0.8c-1,0-2-0.3-2.9-0.8
									c-0.9-0.5-1.6-1.2-2.1-2.1c-0.5-0.9-0.8-1.8-0.8-2.8c0-1,0.3-2,0.8-2.9c0.5-0.9,1.2-1.6,2.1-2.1c0.9-0.5,1.8-0.8,2.9-0.8
									c1,0,2,0.3,2.8,0.8c0.9,0.5,1.6,1.2,2.1,2.1C416.5,321.5,416.7,322.4,416.7,323.5z"/>
							</g>
						</g>
						<g>
							<g id="id70">
								<rect x="430.9" y="326.3" class="st2" width="11.5" height="11.5"/>
								<path class="st16" d="M442.3,332c0,1-0.3,2-0.8,2.8c-0.5,0.9-1.2,1.6-2.1,2.1c-0.9,0.5-1.8,0.8-2.8,0.8c-1,0-2-0.3-2.9-0.8
									c-0.9-0.5-1.6-1.2-2.1-2.1c-0.5-0.9-0.8-1.8-0.8-2.8c0-1,0.3-2,0.8-2.9c0.5-0.9,1.2-1.6,2.1-2.1c0.9-0.5,1.8-0.8,2.9-0.8
									c1,0,2,0.3,2.8,0.8c0.9,0.5,1.6,1.2,2.1,2.1C442,330,442.3,331,442.3,332L442.3,332z"/>
								<path class="st4" d="M442.3,332c0,1-0.3,2-0.8,2.8c-0.5,0.9-1.2,1.6-2.1,2.1c-0.9,0.5-1.8,0.8-2.8,0.8c-1,0-2-0.3-2.9-0.8
									c-0.9-0.5-1.6-1.2-2.1-2.1c-0.5-0.9-0.8-1.8-0.8-2.8c0-1,0.3-2,0.8-2.9c0.5-0.9,1.2-1.6,2.1-2.1c0.9-0.5,1.8-0.8,2.9-0.8
									c1,0,2,0.3,2.8,0.8c0.9,0.5,1.6,1.2,2.1,2.1C442,330,442.3,331,442.3,332z"/>
							</g>
						</g>
						<g>
							<g id="id71">
								<rect x="385.4" y="312" class="st2" width="25.6" height="11.4"/>
								<path class="st18" d="M385.5,312l25.5,11.3"/>
							</g>
						</g>
						<g>
							<g id="id72">
								<rect x="385.4" y="323.3" class="st2" width="25.6" height="8.6"/>
								<path class="st18" d="M385.5,331.9l25.5-8.5"/>
							</g>
						</g>
						<g>
							<g id="id73">
								<rect x="385.4" y="331.9" class="st2" width="25.6" height="8.6"/>
								<path class="st18" d="M385.5,331.9l25.5,8.5"/>
							</g>
						</g>
						<g>
							<g id="id74">
								<rect x="385.4" y="312" class="st2" width="25.6" height="28.4"/>
								<path class="st18" d="M385.5,312l25.5,28.3"/>
							</g>
						</g>
						<g>
							<g id="id75">
								<rect x="385.4" y="340.4" class="st2" width="25.6" height="14.3"/>
								<path class="st18" d="M385.5,354.6l25.5-14.2"/>
							</g>
						</g>
						<g>
							<g id="id76">
								<rect x="385.4" y="323.3" class="st2" width="25.6" height="31.3"/>
								<path class="st18" d="M385.5,354.6l25.5-31.2"/>
							</g>
						</g>
						<g>
							<g id="id77">
								<rect x="411" y="323.3" class="st2" width="25.6" height="8.6"/>
								<path class="st18" d="M411,323.4l25.5,8.5"/>
							</g>
						</g>
						<g>
							<g id="id78">
								<rect x="411" y="331.9" class="st2" width="25.6" height="8.6"/>
								<path class="st18" d="M411,340.4l25.5-8.5"/>
							</g>
						</g>
						<g>
							<g id="id79">
								<rect x="413.8" y="286.6" class="st2" width="107.8" height="0.1"/>
								<path class="st19" d="M413.9,286.6h107.7"/>
							</g>
						</g>
						<g>
							<g id="id80">
								<rect x="464.9" y="255.4" class="st2" width="0.1" height="45.4"/>
								<path class="st19" d="M464.9,255.4v45.4"/>
							</g>
						</g>
						<g>
							<g id="id81">
								<rect x="300.5" y="238.4" class="st2" width="85.1" height="73.8"/>
								<path class="st12" d="M300.5,238.4l85,73.7"/>
							</g>
						</g>
						<g>
							<g id="id82">
								<rect x="300.5" y="266.7" class="st2" width="85.1" height="45.4"/>
								<path class="st12" d="M300.5,266.8l85,45.4"/>
							</g>
						</g>
						<g>
							<g id="id83">
								<rect x="340.1" y="238.4" class="st2" width="45.4" height="73.8"/>
								<path class="st12" d="M340.2,238.4l45.4,73.7"/>
							</g>
						</g>
						<g>
							<g id="id84">
								<rect x="340.1" y="266.7" class="st2" width="45.4" height="45.4"/>
								<path class="st12" d="M340.2,266.8l45.4,45.4"/>
							</g>
						</g>
						<g>
							<g id="id85">
								<rect x="424.7" y="254.9" class="st2" width="91.8" height="32.2"/>
								<path class="st20" d="M425.2,286.5c2.6,0.4,5-0.8,7.5-0.9c3.1-0.1,6-1.4,9-1.8c3.3-0.5,6.1-1.8,9.2-2.9
									c3.1-1,5.4-3.3,8.1-4.9c3.1-1.8,5.4-4.1,7.8-6.3c2.3-2.2,4.4-4.6,7.3-6.4c3.1-1.8,6.7-3.2,10.2-4.5c3.1-1.1,6.5-1.7,9.8-2.6
									c3.2-0.9,6.6-0.7,10-0.7h9.5h2.2"/>
							</g>
						</g>
						<g>
							<g id="id86">
								<rect x="434.5" y="287.3" class="st2" width="8.6" height="44.7"/>
								<path class="st18" d="M436.3,332l2.4-35.7"/>
								<path class="st16" d="M443,296.4l-3.2-8.7l-0.2-0.3l-0.2-0.1l-0.3,0.1l-0.2,0.2l-4.4,8.2l0,0.1v0.1l0,0.2l0.1,0.2l0.1,0.1
									l0.2,0.1l7.5,0.5l0.2,0l0.2-0.1l0.1-0.2l0.1-0.2v-0.1L443,296.4z"/>
							</g>
						</g>
						<g>
							<g id="id87">
								<rect x="229.6" y="212.9" class="st2" width="28.5" height="25.6"/>
								<path class="st21" d="M258,225.7c0,2.2-0.7,4.4-1.9,6.4c-1.2,1.9-3,3.5-5.2,4.7c-2.2,1.1-4.6,1.7-7.1,1.7
									c-2.5,0-5-0.6-7.1-1.7c-2.2-1.1-3.9-2.7-5.2-4.7c-1.2-2-1.9-4.1-1.9-6.4c0-2.3,0.7-4.5,1.9-6.4c1.2-1.9,3-3.5,5.2-4.7
									c2.2-1.1,4.6-1.7,7.1-1.7c2.5,0,4.9,0.6,7.1,1.7c2.2,1.1,3.9,2.7,5.2,4.7C257.3,221.2,258,223.4,258,225.7L258,225.7z"/>
								<path class="st10" d="M258,225.7c0,2.2-0.7,4.4-1.9,6.4c-1.2,1.9-3,3.5-5.2,4.7c-2.2,1.1-4.6,1.7-7.1,1.7
									c-2.5,0-5-0.6-7.1-1.7c-2.2-1.1-3.9-2.7-5.2-4.7c-1.2-2-1.9-4.1-1.9-6.4c0-2.3,0.7-4.5,1.9-6.4c1.2-1.9,3-3.5,5.2-4.7
									c2.2-1.1,4.6-1.7,7.1-1.7c2.5,0,4.9,0.6,7.1,1.7c2.2,1.1,3.9,2.7,5.2,4.7C257.3,221.2,258,223.4,258,225.7z"/>
							</g>
						</g>
						<g>
							<g id="id88">
								<rect x="175.7" y="201.5" class="st2" width="39.8" height="0.1"/>
								<path class="st12" d="M175.8,201.6h39.7"/>
							</g>
						</g>
						<g>
							<g id="id89">
								<rect x="175.7" y="212.9" class="st2" width="39.8" height="0.1"/>
								<path class="st12" d="M175.8,212.9h39.7"/>
							</g>
						</g>
						<g>
							<g id="id90">
								<rect x="201.2" y="193" class="st2" width="0.1" height="28.4"/>
								<path class="st12" d="M201.3,221.4v-28.3"/>
							</g>
						</g>
						<g>
							<g id="id91">
								<rect x="189.9" y="193" class="st2" width="0.1" height="28.4"/>
								<path class="st12" d="M189.9,221.4v-28.3"/>
							</g>
						</g>
						<g>
							<g id="id92">
								<rect x="175.7" y="193" class="st2" width="39.8" height="0.1"/>
								<path class="st12" d="M175.8,193.1h39.7"/>
							</g>
						</g>
						<g>
							<g id="id93">
								<rect x="175.7" y="221.4" class="st2" width="39.8" height="0.1"/>
								<path class="st12" d="M175.8,221.4h39.7"/>
							</g>
						</g>
						<g>
							<g id="id94">
								<rect x="215.4" y="193" class="st2" width="0.1" height="28.4"/>
								<path class="st12" d="M215.4,221.4v-28.3"/>
							</g>
						</g>
						<g>
							<g id="id95">
								<rect x="175.7" y="193" class="st2" width="0.1" height="28.4"/>
								<path class="st12" d="M175.8,221.4v-28.3"/>
							</g>
						</g>
						<g>
							<g id="id96">
								<rect x="76.5" y="193" class="st2" width="99.3" height="71"/>
								<path class="st12" d="M175.8,193.1l-99.2,70.9"/>
							</g>
						</g>
						<g>
							<g id="id97">
								<rect x="76.5" y="193" class="st2" width="139" height="71"/>
								<path class="st12" d="M215.4,193.1L76.5,263.9"/>
							</g>
						</g>
						<g>
							<g id="id98">
								<rect x="76.5" y="221.4" class="st2" width="139" height="42.6"/>
								<path class="st12" d="M215.4,221.4L76.5,263.9"/>
							</g>
						</g>
						<g>
							<g id="id99">
								<rect x="76.5" y="221.4" class="st2" width="99.3" height="42.6"/>
								<path class="st12" d="M175.8,221.4l-99.2,42.5"/>
							</g>
						</g>
						<g>
							<g id="id100">
								<rect x="14.8" y="147.7" class="st2" width="72.4" height="35.8"/>
								<text transform="matrix(1 0 0 1 22.9159 161.2058)" class="st13 st14 st15">TCP = 0.89</text>
							</g>
						</g>
						<g>
							<g id="id101">
								<rect x="70.8" y="258.2" class="st2" width="11.5" height="11.5"/>
								<path class="st16" d="M70.8,263.9c0,1,0.3,2,0.8,2.8c0.5,0.9,1.2,1.6,2.1,2.1c0.9,0.5,1.8,0.8,2.9,0.8c1,0,2-0.3,2.8-0.8
									c0.9-0.5,1.6-1.2,2.1-2.1c0.5-0.9,0.8-1.8,0.8-2.8c0-1-0.3-2-0.8-2.9c-0.5-0.9-1.2-1.6-2.1-2.1c-0.9-0.5-1.8-0.8-2.8-0.8
									c-1,0-2,0.3-2.9,0.8c-0.9,0.5-1.6,1.2-2.1,2.1C71.1,261.9,70.8,262.9,70.8,263.9L70.8,263.9z"/>
								<path class="st4" d="M70.8,263.9c0,1,0.3,2,0.8,2.8c0.5,0.9,1.2,1.6,2.1,2.1c0.9,0.5,1.8,0.8,2.9,0.8c1,0,2-0.3,2.8-0.8
									c0.9-0.5,1.6-1.2,2.1-2.1c0.5-0.9,0.8-1.8,0.8-2.8c0-1-0.3-2-0.8-2.9c-0.5-0.9-1.2-1.6-2.1-2.1c-0.9-0.5-1.8-0.8-2.8-0.8
									c-1,0-2,0.3-2.9,0.8c-0.9,0.5-1.6,1.2-2.1,2.1C71.1,261.9,70.8,262.9,70.8,263.9z"/>
							</g>
						</g>
						<g>
							<g id="id102">
								<rect x="70.8" y="238.4" class="st2" width="11.5" height="11.5"/>
								<path class="st16" d="M70.8,244.1c0,1,0.3,2,0.8,2.8c0.5,0.9,1.2,1.6,2.1,2.1c0.9,0.5,1.8,0.8,2.9,0.8c1,0,2-0.3,2.8-0.8
									c0.9-0.5,1.6-1.2,2.1-2.1c0.5-0.9,0.8-1.8,0.8-2.8c0-1-0.3-2-0.8-2.9c-0.5-0.9-1.2-1.6-2.1-2.1c-0.9-0.5-1.8-0.8-2.8-0.8
									c-1,0-2,0.3-2.9,0.8c-0.9,0.5-1.6,1.2-2.1,2.1C71.1,242.1,70.8,243.1,70.8,244.1L70.8,244.1z"/>
								<path class="st4" d="M70.8,244.1c0,1,0.3,2,0.8,2.8c0.5,0.9,1.2,1.6,2.1,2.1c0.9,0.5,1.8,0.8,2.9,0.8c1,0,2-0.3,2.8-0.8
									c0.9-0.5,1.6-1.2,2.1-2.1c0.5-0.9,0.8-1.8,0.8-2.8c0-1-0.3-2-0.8-2.9c-0.5-0.9-1.2-1.6-2.1-2.1c-0.9-0.5-1.8-0.8-2.8-0.8
									c-1,0-2,0.3-2.9,0.8c-0.9,0.5-1.6,1.2-2.1,2.1C71.1,242.1,70.8,243.1,70.8,244.1z"/>
							</g>
						</g>
						<g>
							<g id="id103">
								<rect x="70.8" y="280.9" class="st2" width="11.5" height="11.5"/>
								<path class="st16" d="M70.8,286.6c0,1,0.3,2,0.8,2.8c0.5,0.9,1.2,1.6,2.1,2.1c0.9,0.5,1.8,0.8,2.9,0.8c1,0,2-0.3,2.8-0.8
									c0.9-0.5,1.6-1.2,2.1-2.1c0.5-0.9,0.8-1.8,0.8-2.8c0-1-0.3-2-0.8-2.9c-0.5-0.9-1.2-1.6-2.1-2.1c-0.9-0.5-1.8-0.8-2.8-0.8
									c-1,0-2,0.3-2.9,0.8c-0.9,0.5-1.6,1.2-2.1,2.1C71.1,284.7,70.8,285.6,70.8,286.6L70.8,286.6z"/>
								<path class="st4" d="M70.8,286.6c0,1,0.3,2,0.8,2.8c0.5,0.9,1.2,1.6,2.1,2.1c0.9,0.5,1.8,0.8,2.9,0.8c1,0,2-0.3,2.8-0.8
									c0.9-0.5,1.6-1.2,2.1-2.1c0.5-0.9,0.8-1.8,0.8-2.8c0-1-0.3-2-0.8-2.9c-0.5-0.9-1.2-1.6-2.1-2.1c-0.9-0.5-1.8-0.8-2.8-0.8
									c-1,0-2,0.3-2.9,0.8c-0.9,0.5-1.6,1.2-2.1,2.1C71.1,284.7,70.8,285.6,70.8,286.6z"/>
							</g>
						</g>
						<g>
							<g id="id104">
								<rect x="45.3" y="249.7" class="st2" width="11.5" height="11.5"/>
								<path class="st16" d="M45.4,255.4c0,1,0.3,2,0.8,2.8c0.5,0.9,1.2,1.6,2.1,2.1c0.9,0.5,1.8,0.8,2.8,0.8c1,0,2-0.3,2.9-0.8
									c0.9-0.5,1.6-1.2,2.1-2.1c0.5-0.9,0.8-1.8,0.8-2.8c0-1-0.3-2-0.8-2.9c-0.5-0.9-1.2-1.6-2.1-2.1c-0.9-0.5-1.8-0.8-2.9-0.8
									c-1,0-2,0.3-2.8,0.8c-0.9,0.5-1.6,1.2-2.1,2.1C45.6,253.4,45.4,254.4,45.4,255.4L45.4,255.4z"/>
								<path class="st17" d="M45.4,255.4c0,1,0.3,2,0.8,2.8c0.5,0.9,1.2,1.6,2.1,2.1c0.9,0.5,1.8,0.8,2.8,0.8c1,0,2-0.3,2.9-0.8
									c0.9-0.5,1.6-1.2,2.1-2.1c0.5-0.9,0.8-1.8,0.8-2.8c0-1-0.3-2-0.8-2.9c-0.5-0.9-1.2-1.6-2.1-2.1c-0.9-0.5-1.8-0.8-2.9-0.8
									c-1,0-2,0.3-2.8,0.8c-0.9,0.5-1.6,1.2-2.1,2.1C45.6,253.4,45.4,254.4,45.4,255.4z"/>
							</g>
						</g>
						<g>
							<g id="id105">
								<rect x="45.3" y="266.7" class="st2" width="11.5" height="11.5"/>
								<path class="st16" d="M45.3,272.4c0,1,0.3,2,0.8,2.8c0.5,0.9,1.2,1.6,2.1,2.1c0.9,0.5,1.8,0.8,2.8,0.8c1,0,2-0.3,2.9-0.8
									c0.9-0.5,1.6-1.2,2.1-2.1c0.5-0.9,0.8-1.8,0.8-2.8c0-1-0.3-2-0.8-2.9c-0.5-0.9-1.2-1.6-2.1-2.1c-0.9-0.5-1.8-0.8-2.9-0.8
									c-1,0-2,0.3-2.8,0.8c-0.9,0.5-1.6,1.2-2.1,2.1C45.6,270.5,45.3,271.4,45.3,272.4L45.3,272.4z"/>
								<path class="st4" d="M45.3,272.4c0,1,0.3,2,0.8,2.8c0.5,0.9,1.2,1.6,2.1,2.1c0.9,0.5,1.8,0.8,2.8,0.8c1,0,2-0.3,2.9-0.8
									c0.9-0.5,1.6-1.2,2.1-2.1c0.5-0.9,0.8-1.8,0.8-2.8c0-1-0.3-2-0.8-2.9c-0.5-0.9-1.2-1.6-2.1-2.1c-0.9-0.5-1.8-0.8-2.9-0.8
									c-1,0-2,0.3-2.8,0.8c-0.9,0.5-1.6,1.2-2.1,2.1C45.6,270.5,45.3,271.4,45.3,272.4z"/>
							</g>
						</g>
						<g>
							<g id="id106">
								<rect x="45.3" y="249.7" class="st2" width="11.5" height="11.5"/>
								<path class="st16" d="M45.3,255.4c0,1,0.3,2,0.8,2.8c0.5,0.9,1.2,1.6,2.1,2.1c0.9,0.5,1.8,0.8,2.8,0.8c1,0,2-0.3,2.9-0.8
									c0.9-0.5,1.6-1.2,2.1-2.1c0.5-0.9,0.8-1.8,0.8-2.8c0-1-0.3-2-0.8-2.9c-0.5-0.9-1.2-1.6-2.1-2.1c-0.9-0.5-1.8-0.8-2.9-0.8
									c-1,0-2,0.3-2.8,0.8c-0.9,0.5-1.6,1.2-2.1,2.1C45.6,253.4,45.3,254.4,45.3,255.4L45.3,255.4z"/>
								<path class="st4" d="M45.3,255.4c0,1,0.3,2,0.8,2.8c0.5,0.9,1.2,1.6,2.1,2.1c0.9,0.5,1.8,0.8,2.8,0.8c1,0,2-0.3,2.9-0.8
									c0.9-0.5,1.6-1.2,2.1-2.1c0.5-0.9,0.8-1.8,0.8-2.8c0-1-0.3-2-0.8-2.9c-0.5-0.9-1.2-1.6-2.1-2.1c-0.9-0.5-1.8-0.8-2.9-0.8
									c-1,0-2,0.3-2.8,0.8c-0.9,0.5-1.6,1.2-2.1,2.1C45.6,253.4,45.3,254.4,45.3,255.4z"/>
							</g>
						</g>
						<g>
							<g id="id107">
								<rect x="19.8" y="258.2" class="st2" width="11.5" height="11.5"/>
								<path class="st16" d="M19.8,264c0,1,0.3,2,0.8,2.8c0.5,0.9,1.2,1.6,2.1,2.1c0.9,0.5,1.8,0.8,2.8,0.8c1,0,2-0.3,2.9-0.8
									c0.9-0.5,1.6-1.2,2.1-2.1c0.5-0.9,0.8-1.8,0.8-2.8c0-1-0.3-2-0.8-2.9c-0.5-0.9-1.2-1.6-2.1-2.1c-0.9-0.5-1.8-0.8-2.9-0.8
									c-1,0-2,0.3-2.8,0.8c-0.9,0.5-1.6,1.2-2.1,2.1C20.1,262,19.8,262.9,19.8,264L19.8,264z"/>
								<path class="st4" d="M19.8,264c0,1,0.3,2,0.8,2.8c0.5,0.9,1.2,1.6,2.1,2.1c0.9,0.5,1.8,0.8,2.8,0.8c1,0,2-0.3,2.9-0.8
									c0.9-0.5,1.6-1.2,2.1-2.1c0.5-0.9,0.8-1.8,0.8-2.8c0-1-0.3-2-0.8-2.9c-0.5-0.9-1.2-1.6-2.1-2.1c-0.9-0.5-1.8-0.8-2.9-0.8
									c-1,0-2,0.3-2.8,0.8c-0.9,0.5-1.6,1.2-2.1,2.1C20.1,262,19.8,262.9,19.8,264z"/>
							</g>
						</g>
						<g>
							<g id="id108">
								<rect x="51.1" y="244" class="st2" width="25.6" height="11.4"/>
								<path class="st18" d="M76.6,244l-25.5,11.3"/>
							</g>
						</g>
						<g>
							<g id="id109">
								<rect x="51.1" y="255.3" class="st2" width="25.6" height="8.6"/>
								<path class="st18" d="M76.6,263.8l-25.5-8.5"/>
							</g>
						</g>
						<g>
							<g id="id110">
								<rect x="51.1" y="263.8" class="st2" width="25.6" height="8.6"/>
								<path class="st18" d="M76.6,263.8l-25.5,8.5"/>
							</g>
						</g>
						<g>
							<g id="id111">
								<rect x="51.1" y="244" class="st2" width="25.6" height="28.4"/>
								<path class="st18" d="M76.6,244l-25.5,28.3"/>
							</g>
						</g>
						<g>
							<g id="id112">
								<rect x="51.1" y="272.3" class="st2" width="25.6" height="14.3"/>
								<path class="st18" d="M76.6,286.5l-25.5-14.2"/>
							</g>
						</g>
						<g>
							<g id="id113">
								<rect x="51.1" y="255.3" class="st2" width="25.6" height="31.3"/>
								<path class="st18" d="M76.6,286.5l-25.5-31.2"/>
							</g>
						</g>
						<g>
							<g id="id114">
								<rect x="25.6" y="255.3" class="st2" width="25.6" height="8.6"/>
								<path class="st18" d="M51.1,255.3l-25.5,8.5"/>
							</g>
						</g>
						<g>
							<g id="id115">
								<rect x="25.6" y="263.8" class="st2" width="25.6" height="8.6"/>
								<path class="st18" d="M51.1,272.4l-25.5-8.5"/>
							</g>
						</g>
						<g>
							<g id="id116">
								<rect x="0" y="201.6" class="st2" width="107.8" height="0.1"/>
								<path class="st19" d="M0,201.6h107.7"/>
							</g>
						</g>
						<g>
							<g id="id117">
								<rect x="51" y="170.4" class="st2" width="0.1" height="45.4"/>
								<path class="st19" d="M51,170.4v45.4"/>
							</g>
						</g>
						<g>
							<g id="id118">
								<rect x="25.5" y="178.9" class="st2" width="32.9" height="85.1"/>
								<path class="st18" d="M25.5,263.9l29.1-79.2"/>
								<path class="st16" d="M56.7,178.9l-6.3,4.9l8,2.9L56.7,178.9z"/>
							</g>
						</g>
						<g>
							<g id="id119">
								<rect x="5.2" y="169.9" class="st2" width="103.1" height="32.1"/>
								<path class="st20" d="M5.7,201.3c5,0,10.1,0.2,15.1,0c4.9-0.2,10.6,1.1,14.6-1.7c3.5-2.4,4-5.8,6.3-8.5
									c2.6-3.1,3.5-5.6,5.9-8.8c2.6-3.5,6.7-6.1,11.7-7.9c4.5-1.6,10.5-0.9,15.1-2.3c4.9-1.5,9.9-0.7,15.1-1.4
									c4.8-0.6,10.1,0,15.1,0h2.9"/>
							</g>
						</g>
						<g>
							<g id="id120">
								<rect x="436.3" y="281" class="st2" width="6.2" height="6.2"/>
								<path class="st22" d="M442.2,286.9l-5.7-5.7"/>
							</g>
						</g>
						<g>
							<g id="id121">
								<rect x="436.3" y="281" class="st2" width="6.2" height="6.2"/>
								<path class="st22" d="M436.5,286.9l5.7-5.7"/>
							</g>
						</g>
						<g>
							<g id="id122">
								<rect x="439.4" y="284" class="st2" width="25.6" height="0.1"/>
								<path class="st23" d="M439.4,284.1h1.5"/>
								<path class="st23" d="M441.8,284.1h1.5"/>
								<path class="st23" d="M444.3,284.1h1.5"/>
								<path class="st23" d="M446.8,284.1h1.5"/>
								<path class="st23" d="M449.3,284.1h1.5"/>
								<path class="st23" d="M451.8,284.1h1.5"/>
								<path class="st23" d="M454.2,284.1h1.5"/>
								<path class="st23" d="M456.7,284.1h1.5"/>
								<path class="st23" d="M459.2,284.1h1.5"/>
								<path class="st23" d="M461.7,284.1h1.5"/>
								<path class="st23" d="M464.1,284.1h0.8"/>
							</g>
						</g>
						<g>
							<g id="id123">
								<rect x="56.3" y="171.3" class="st2" width="6.2" height="6.2"/>
								<path class="st22" d="M62.3,177.2l-5.7-5.7"/>
							</g>
						</g>
						<g>
							<g id="id124">
								<rect x="56.3" y="171.3" class="st2" width="6.2" height="6.2"/>
								<path class="st22" d="M56.6,177.2l5.7-5.7"/>
							</g>
						</g>
						<g>
							<g id="id125">
								<rect x="50.9" y="174.3" class="st2" width="8.7" height="0.4"/>
								<path class="st23" d="M50.9,174.6l1.5-0.1"/>
								<path class="st23" d="M53.4,174.6l1.5-0.1"/>
								<path class="st23" d="M55.9,174.5l1.5,0"/>
								<path class="st23" d="M58.3,174.4l1.2,0"/>
							</g>
						</g>
						<g>
							<g id="id126">
								<rect x="266.5" y="167.6" class="st2" width="39.1" height="31.6"/>
								<text transform="matrix(1 0 0 1 274.6888 181.0486)" class="st24 st14 st15">GTV</text>
							</g>
						</g>
						<g>
							<g id="id127">
								<rect x="223.9" y="216.3" class="st2" width="39.7" height="31.6"/>
								<text transform="matrix(1 0 0 1 231.8573 229.8044)" class="st24 st14 st15">OAR</text>
							</g>
						</g>
						<g>
							<g id="id128">
								<rect x="379.9" y="306.4" class="st2" width="11.5" height="11.5"/>
								<path class="st16" d="M391.2,312.2c0,1-0.3,2-0.8,2.8c-0.5,0.9-1.2,1.6-2.1,2.1c-0.9,0.5-1.8,0.8-2.8,0.8
									c-1,0-2-0.3-2.9-0.8c-0.9-0.5-1.6-1.2-2.1-2.1c-0.5-0.9-0.8-1.8-0.8-2.8c0-1,0.3-2,0.8-2.9c0.5-0.9,1.2-1.6,2.1-2.1
									c0.9-0.5,1.8-0.8,2.9-0.8c1,0,2,0.3,2.8,0.8c0.9,0.5,1.6,1.2,2.1,2.1C391,310.2,391.2,311.1,391.2,312.2L391.2,312.2z"/>
								<path class="st4" d="M391.2,312.2c0,1-0.3,2-0.8,2.8c-0.5,0.9-1.2,1.6-2.1,2.1c-0.9,0.5-1.8,0.8-2.8,0.8c-1,0-2-0.3-2.9-0.8
									c-0.9-0.5-1.6-1.2-2.1-2.1c-0.5-0.9-0.8-1.8-0.8-2.8c0-1,0.3-2,0.8-2.9c0.5-0.9,1.2-1.6,2.1-2.1c0.9-0.5,1.8-0.8,2.9-0.8
									c1,0,2,0.3,2.8,0.8c0.9,0.5,1.6,1.2,2.1,2.1C391,310.2,391.2,311.1,391.2,312.2z"/>
							</g>
						</g>
					</g>
				</g>
			</g>
		</g>
	</g>
</g>
</svg>
