<?xml version="1.0" standalone="no"?>
<!DOCTYPE svg PUBLIC "-//W3C//DTD SVG 20010904//EN"
 "http://www.w3.org/TR/2001/REC-SVG-20010904/DTD/svg10.dtd">
<svg version="1.0" xmlns="http://www.w3.org/2000/svg"
 width="1086.000000pt" height="1086.000000pt" viewBox="0 0 1086.000000 1086.000000"
 preserveAspectRatio="xMidYMid meet">
<metadata>
Created by potrace 1.14, written by Peter Selinger 2001-2017
</metadata>
<g transform="translate(0.000000,1086.000000) scale(0.100000,-0.100000)"
fill="#000000" stroke="none">
<path d="M6714 10748 c-4 -5 4 -8 17 -6 16 2 24 -2 24 -12 0 -11 -10 -14 -40
-12 -22 2 -44 8 -49 13 -13 12 -93 12 -101 -1 -3 -5 0 -7 8 -4 8 3 17 -2 20
-10 5 -12 0 -14 -26 -10 -22 4 -28 3 -19 -4 22 -15 -14 -20 -85 -12 -34 4 -81
3 -105 -2 -23 -6 -56 -11 -73 -13 -16 -1 -45 -5 -64 -10 -18 -4 -59 -9 -90
-10 -31 -2 -60 -4 -64 -4 -5 -1 -5 -7 -1 -13 6 -10 5 -10 -7 -2 -15 12 -106 1
-141 -17 -10 -5 -28 -5 -43 1 -33 13 -46 13 -42 0 1 -6 -41 -12 -102 -15 -58
-2 -107 -8 -110 -12 -3 -5 -15 -9 -26 -11 -11 -2 -33 -5 -50 -8 -16 -3 -68 -7
-115 -10 -80 -4 -84 -4 -65 12 20 16 20 16 -5 10 -14 -3 -34 -6 -45 -7 -20 0
-20 0 0 -8 17 -7 17 -8 -7 -13 -15 -3 -25 -1 -22 3 3 5 -2 9 -11 9 -23 0 -57
-19 -51 -29 3 -4 -11 -8 -31 -9 -20 -1 -40 -5 -45 -10 -5 -5 4 -8 22 -7 16 1
30 -2 30 -6 0 -10 -134 -32 -137 -22 -4 10 -77 3 -158 -15 -27 -6 -89 -14
-136 -17 -47 -4 -91 -10 -98 -14 -7 -5 11 -7 41 -5 44 3 32 -1 -66 -27 -66
-17 -126 -37 -133 -45 -8 -8 -21 -14 -28 -14 -8 0 -34 -13 -58 -30 -25 -16
-54 -30 -64 -30 -11 0 -39 -18 -64 -40 -24 -22 -51 -40 -60 -40 -8 0 -25 -10
-36 -22 -37 -41 -74 -68 -136 -101 -32 -18 -97 -62 -143 -99 -45 -36 -99 -72
-118 -79 -20 -7 -36 -17 -36 -21 0 -4 -5 -8 -12 -8 -14 0 -170 -79 -178 -90
-3 -4 -30 -22 -60 -41 -51 -30 -121 -80 -146 -104 -6 -6 -35 -27 -65 -48 -30
-21 -63 -51 -73 -67 -9 -17 -30 -44 -46 -61 -15 -18 -26 -38 -23 -45 3 -7 -12
-34 -32 -59 -27 -33 -33 -44 -19 -39 18 5 18 5 1 -9 -10 -8 -35 -37 -55 -64
-35 -47 -109 -136 -142 -173 -21 -22 -80 -107 -80 -114 0 -3 -14 -28 -31 -56
-21 -33 -28 -56 -24 -70 4 -12 1 -27 -5 -35 -6 -8 -9 -19 -5 -24 3 -6 -1 -24
-10 -41 -8 -16 -11 -30 -6 -30 5 0 8 -25 7 -55 0 -30 -4 -55 -8 -55 -4 0 -10
-10 -14 -22 -3 -13 -13 -31 -22 -40 -8 -10 -10 -18 -5 -18 24 0 22 -34 -2 -66
-14 -18 -25 -39 -25 -47 0 -7 -3 -17 -7 -21 -5 -4 -9 -12 -9 -17 -1 -5 -2 -13
-3 -18 0 -5 -10 -13 -21 -16 -16 -5 -19 -12 -14 -28 4 -12 10 -23 15 -25 8 -3
-20 -63 -36 -74 -6 -4 -3 -13 9 -21 17 -13 17 -15 -9 -45 -15 -18 -24 -32 -20
-32 4 0 3 -6 -2 -12 -5 -7 -9 -31 -7 -52 1 -22 -2 -51 -8 -65 -7 -21 -7 -24 3
-13 7 6 19 12 27 12 12 0 12 -3 2 -15 -7 -8 -10 -24 -7 -35 3 -11 -1 -27 -10
-35 -13 -13 -13 -15 1 -15 18 0 21 -11 7 -26 -15 -14 -22 -125 -10 -166 7 -26
14 -36 24 -32 17 7 19 -4 5 -26 -6 -10 -4 -20 6 -31 13 -15 13 -20 -6 -52 -22
-36 -16 -52 15 -41 14 6 16 4 8 -12 -6 -10 -13 -33 -16 -51 -5 -25 -3 -31 7
-27 11 4 14 -4 12 -33 -1 -21 -5 -43 -9 -49 -3 -6 4 -16 18 -22 29 -13 32 -34
9 -57 -12 -12 -14 -19 -6 -27 6 -6 8 -24 5 -40 -4 -18 -1 -33 6 -37 8 -6 8
-16 -1 -41 -8 -26 -9 -35 0 -38 16 -5 15 -47 0 -73 -11 -17 -10 -22 5 -33 19
-14 23 -41 7 -51 -5 -3 -7 -11 -5 -18 10 -27 12 -93 4 -103 -14 -17 9 -74 28
-67 12 5 10 -3 -6 -36 -21 -41 -18 -53 8 -28 12 10 13 8 7 -8 -10 -27 -12
-187 -2 -203 4 -6 2 -12 -3 -12 -20 0 -11 -28 9 -33 19 -5 20 -11 15 -69 -3
-34 -8 -71 -11 -80 -4 -13 -1 -16 10 -12 19 7 21 -7 4 -25 -11 -10 -10 -14 4
-22 9 -5 15 -15 13 -22 -12 -33 -11 -128 1 -145 8 -10 13 -12 14 -5 0 16 92
43 143 43 31 0 45 -7 68 -31 16 -17 33 -28 38 -25 5 4 12 2 16 -4 3 -5 1 -10
-4 -10 -21 0 -11 -16 11 -17 23 -2 60 -41 52 -55 -3 -4 7 -15 21 -24 19 -13
23 -19 13 -25 -9 -6 -5 -11 13 -18 27 -10 31 -21 30 -85 -1 -39 12 -67 44 -99
14 -14 14 -21 3 -44 -17 -34 -38 -42 -38 -14 0 16 -8 23 -28 27 -31 6 -63 45
-43 52 6 2 11 10 11 17 0 7 6 16 13 19 6 3 0 4 -14 1 -18 -3 -29 0 -33 10 -3
8 -10 15 -15 15 -9 0 -31 18 -114 93 -22 20 -46 37 -52 37 -5 0 -21 12 -34 25
-25 27 -36 31 -46 14 -5 -6 -12 -4 -22 8 -14 17 -14 17 -9 0 4 -14 2 -16 -12
-8 -25 12 -54 -1 -73 -35 -9 -16 -21 -28 -25 -27 -10 1 -40 -28 -38 -37 1 -3
0 -9 -1 -15 -16 -59 -26 -118 -36 -213 -11 -114 -7 -165 7 -75 7 46 20 67 36
57 4 -3 8 -13 8 -24 0 -10 7 -20 15 -24 17 -6 21 -100 6 -125 -5 -7 -5 -27 0
-45 5 -17 11 -53 14 -79 5 -38 11 -50 31 -59 30 -14 40 -4 49 54 4 21 11 38
15 38 5 0 14 17 20 39 5 21 21 50 35 65 25 27 51 35 42 13 -4 -12 17 -39 29
-36 12 4 84 -43 94 -60 7 -14 3 -24 -20 -46 -17 -16 -30 -25 -30 -19 0 5 -7
-4 -15 -20 -18 -35 -18 -36 0 -36 8 0 15 -4 15 -10 0 -5 -6 -9 -12 -7 -8 1
-13 -10 -14 -28 -1 -43 -15 -104 -25 -111 -5 -3 -9 -12 -9 -20 0 -9 -6 -21
-13 -28 -8 -8 -12 -38 -12 -77 0 -71 -2 -69 71 -48 37 11 43 10 62 -9 12 -12
22 -26 22 -32 0 -5 7 -10 15 -10 8 0 15 -6 15 -13 0 -7 11 -23 25 -35 24 -21
34 -65 16 -76 -4 -3 -6 -29 -3 -57 3 -37 2 -50 -7 -45 -6 4 -11 2 -11 -3 0 -6
7 -11 16 -11 13 0 13 -2 1 -21 -13 -18 -13 -24 -1 -49 8 -15 28 -39 45 -52 74
-56 100 -84 102 -113 2 -25 -4 -33 -39 -52 l-41 -23 -26 20 c-14 11 -30 20
-36 20 -6 0 -11 7 -11 15 0 8 -7 15 -15 15 -8 0 -15 -7 -15 -15 0 -8 -9 -15
-20 -15 -11 0 -20 4 -20 10 0 5 -6 7 -14 4 -8 -3 -23 -1 -33 5 -12 7 -13 10
-4 11 11 0 11 3 1 15 -18 22 -33 18 -27 -7 4 -12 1 -28 -5 -35 -12 -15 -92
-18 -83 -3 3 6 -3 10 -14 10 -12 0 -21 4 -21 9 0 16 -40 23 -56 10 -19 -16
-30 -4 -14 16 10 12 8 16 -11 24 -14 5 -25 5 -27 0 -6 -14 -24 -11 -44 8 -16
14 -18 14 -18 0 0 -8 7 -22 15 -31 8 -8 15 -19 15 -25 0 -11 92 -165 140 -236
15 -22 34 -52 44 -67 25 -43 163 -155 222 -182 54 -25 65 -41 42 -64 -9 -9 -9
-12 1 -12 7 0 16 10 19 23 5 18 7 15 13 -18 4 -23 3 -45 -3 -52 -8 -9 -6 -13
5 -13 15 0 32 -26 28 -46 -1 -7 9 -9 24 -6 15 2 25 0 25 -7 0 -6 -4 -11 -10
-11 -15 0 -42 -72 -30 -80 6 -4 8 -14 4 -24 -5 -12 -1 -19 15 -23 22 -5 27
-18 13 -27 -14 -8 -1 -66 14 -66 8 0 14 -5 14 -11 0 -6 7 -9 15 -5 9 3 15 0
15 -10 0 -11 -6 -15 -19 -11 -12 3 -27 -3 -37 -14 -18 -20 -6 -27 14 -7 6 6
14 9 17 6 3 -3 -1 -13 -10 -21 -8 -9 -15 -26 -15 -39 1 -21 2 -22 14 -5 12 16
14 15 13 -8 0 -19 -4 -25 -15 -20 -12 4 -13 3 -3 -9 7 -8 10 -20 6 -26 -3 -5
-2 -10 4 -10 6 0 8 -6 5 -14 -3 -8 -1 -17 5 -20 6 -4 8 -13 4 -21 -4 -11 -1
-13 12 -9 15 6 16 4 5 -15 -9 -17 -9 -26 1 -37 10 -12 10 -15 -2 -12 -8 2 -13
-3 -11 -10 1 -7 3 -30 4 -52 1 -22 6 -40 12 -40 6 0 6 -4 -2 -8 -8 -5 -10 -16
-5 -28 4 -10 7 -33 6 -51 0 -22 4 -33 13 -33 8 0 14 -4 14 -10 0 -5 -6 -7 -13
-4 -11 4 -13 -16 -10 -98 2 -57 4 -110 4 -118 -1 -8 -1 -114 -2 -235 0 -135
-5 -225 -11 -233 -7 -8 -7 -16 0 -25 7 -8 9 -35 5 -70 l-6 -57 -55 -17 c-66
-21 -110 -72 -136 -160 -10 -32 -22 -67 -26 -78 -5 -11 -25 -65 -44 -120 -41
-120 -141 -375 -167 -428 l-19 -37 -79 0 c-93 0 -223 -16 -266 -32 -16 -6 -50
-25 -75 -41 -70 -47 -610 -599 -759 -777 -40 -47 -89 -104 -109 -128 -50 -59
-71 -100 -72 -142 0 -31 -5 -38 -48 -62 l-47 -27 3018 -1 3017 0 -12 22 c-7
13 -25 39 -39 58 -14 19 -38 55 -53 80 -15 25 -34 56 -43 70 -8 14 3 5 25 -20
23 -25 65 -82 94 -127 l53 -82 140 -1 139 0 -35 38 c-19 20 -48 55 -64 77 -16
22 -42 56 -59 76 -17 20 -42 49 -56 66 -82 97 -181 211 -248 285 -34 38 -51
65 -48 76 22 74 79 392 72 400 -3 3 -1 11 5 18 6 7 15 43 20 80 5 37 13 72 18
78 5 6 11 25 13 41 2 21 8 30 21 29 13 -1 17 6 17 33 0 27 4 33 18 31 12 -2
18 5 20 25 4 30 14 34 32 12 11 -13 14 -13 26 2 7 11 10 30 7 47 -4 21 -3 27
5 22 8 -4 12 0 12 11 1 31 26 56 49 48 22 -7 28 4 12 21 -13 14 -22 74 -11 74
9 0 14 -14 12 -32 -1 -3 6 -12 14 -19 14 -11 16 -10 13 6 -2 11 3 43 10 72 9
37 17 50 27 46 8 -3 14 1 14 10 0 21 18 31 33 18 7 -5 19 -6 26 -2 9 6 10 11
2 15 -6 4 -11 17 -11 28 0 21 0 21 21 2 21 -19 21 -19 8 9 -11 24 -11 30 2 37
11 8 12 13 1 30 -9 15 -10 26 -2 40 14 26 35 25 54 -2 14 -19 16 -19 22 -5 3
9 4 24 0 32 -3 8 -1 15 4 15 6 0 10 4 10 9 0 5 -7 8 -16 7 -20 -1 -27 14 -14
34 7 12 12 11 31 -5 l22 -20 -6 38 c-5 32 -3 38 9 33 9 -3 18 -6 20 -6 2 0 5
-10 5 -22 1 -17 3 -18 6 -6 2 9 0 26 -6 36 -7 12 -7 29 -1 48 l10 29 -4 -31
c-4 -22 2 -39 19 -60 l24 -29 -5 30 c-2 17 -7 36 -9 43 -6 17 5 15 19 -3 9
-12 11 -7 13 25 1 21 -2 42 -7 45 -6 3 -10 15 -10 26 0 14 7 19 26 19 23 0 25
3 20 25 -12 46 5 47 37 3 18 -26 32 -37 35 -29 2 7 -1 18 -7 24 -6 6 -11 15
-11 21 0 6 5 5 12 -2 19 -19 31 -14 26 12 -3 16 -1 23 7 20 7 -3 15 2 19 11 3
9 10 13 16 10 5 -3 10 1 10 9 0 19 -11 21 -28 4 -9 -9 -12 -6 -12 15 0 15 5
27 10 27 6 0 10 8 11 18 1 11 3 9 8 -7 4 -14 12 -26 18 -28 9 -3 10 4 3 28
-11 36 -7 44 18 44 12 0 17 9 17 30 0 23 -4 29 -17 27 -23 -4 -24 24 -1 32 9
4 20 2 23 -5 6 -8 9 -8 14 0 4 6 16 11 27 11 10 0 19 4 19 9 0 4 11 20 25 35
23 25 53 102 35 91 -12 -7 -20 9 -24 47 -2 18 -7 41 -11 51 -5 12 -3 17 8 17
9 0 19 -9 22 -20 4 -12 15 -20 28 -20 16 0 19 3 8 9 -7 5 -10 14 -7 20 4 6 2
11 -3 11 -14 0 -14 37 -1 45 6 3 10 -2 10 -12 0 -10 6 -25 13 -35 11 -13 13
-6 12 43 0 34 5 61 11 63 13 5 6 65 -9 84 -7 9 -6 16 3 25 10 10 11 9 5 -3 -7
-12 -6 -13 6 -2 11 11 12 14 0 21 -18 12 -10 41 17 59 20 13 22 13 22 -2 0
-10 -5 -14 -11 -10 -7 4 -10 1 -7 -7 3 -8 11 -14 19 -14 17 0 13 75 -7 124
-17 40 -17 41 -4 41 6 0 10 -9 10 -20 0 -18 3 -19 21 -9 18 9 20 8 15 -8 -3
-10 -1 -25 5 -33 9 -12 10 -11 6 7 -3 12 -1 23 3 25 5 2 6 15 3 30 -4 21 -11
28 -29 28 -16 0 -24 6 -24 18 0 13 2 14 9 3 13 -20 23 3 15 34 -9 37 11 31 24
-7 11 -32 11 -32 6 -3 -4 17 -8 44 -9 62 -2 18 -6 36 -9 42 -10 15 13 24 29
11 12 -10 15 -10 15 0 0 6 -9 14 -20 17 -11 3 -17 9 -14 14 3 5 -2 9 -10 9 -9
0 -16 -4 -16 -10 0 -5 -5 -10 -11 -10 -7 0 -9 12 -5 33 4 22 1 40 -9 52 -21
29 -18 50 10 81 28 31 28 49 -1 49 -16 0 -19 7 -17 39 3 42 10 56 21 41 4 -6
18 -11 32 -13 l25 -2 -25 14 c-21 13 -22 15 -6 16 18 0 18 1 2 19 -18 20 -14
41 7 41 7 0 13 10 14 23 2 12 4 33 5 47 2 18 -2 26 -17 28 -19 4 -20 4 -2 -16
18 -20 18 -20 -2 -15 -12 3 -21 11 -21 18 0 8 -6 15 -12 18 -7 2 -5 3 5 2 11
-2 17 3 17 16 0 10 7 19 15 19 8 0 15 -7 15 -15 0 -16 16 -20 24 -6 8 13 -42
43 -57 35 -7 -4 -9 -4 -5 1 4 4 3 16 -2 26 -8 14 -6 21 9 29 13 7 22 7 26 0 3
-5 1 -10 -4 -10 -6 0 -11 -4 -11 -10 0 -6 10 -5 25 2 38 17 30 36 -21 49 -25
7 -48 18 -51 25 -3 7 -12 10 -21 6 -15 -5 -15 -4 1 12 10 10 21 31 24 47 3 16
10 32 14 35 11 6 12 34 2 33 -23 -4 -33 3 -33 21 0 18 -2 19 -20 8 -11 -7 -20
-19 -20 -26 0 -7 -4 -11 -9 -8 -5 3 -14 -1 -21 -9 -9 -10 -9 -15 -1 -15 6 0
11 -5 11 -11 0 -6 -7 -9 -14 -6 -10 4 -13 1 -9 -9 3 -7 0 -14 -6 -14 -6 0 -11
4 -11 9 0 5 -13 11 -30 15 -24 4 -30 11 -30 31 0 22 -3 24 -30 20 -94 -15 -88
-16 -82 7 4 19 2 20 -22 14 -33 -8 -58 4 -30 15 16 6 15 8 -8 8 -25 1 -42 21
-18 21 6 0 10 7 10 16 0 11 -6 15 -18 12 -10 -3 -27 1 -37 8 -10 8 -27 14 -38
14 -10 0 -16 3 -14 8 9 15 -13 52 -32 52 -10 0 -21 9 -24 19 -3 14 -1 18 9 14
9 -3 14 2 14 12 0 15 -7 17 -40 12 -27 -3 -40 -1 -40 6 0 7 -5 5 -10 -3 -8
-12 -10 -8 -11 15 -1 17 -3 23 -6 14 -3 -11 -11 -15 -24 -12 -16 4 -19 11 -15
29 4 14 2 24 -4 24 -5 0 -10 -9 -10 -20 0 -27 -18 -25 -23 3 -4 20 -4 19 -6
-4 -1 -34 -28 -45 -52 -23 -11 10 -19 12 -19 6 0 -14 -36 -16 -44 -3 -10 15
-56 5 -72 -15 -14 -18 -15 -18 -11 9 2 15 0 27 -4 27 -5 0 -9 -6 -9 -14 0 -11
-15 -14 -58 -14 -32 1 -68 -2 -80 -6 -22 -8 -68 15 -55 27 3 4 -1 7 -10 7 -15
0 -22 -11 -18 -32 0 -5 -11 -9 -27 -9 -35 -2 -34 -2 -56 7 -13 5 -17 4 -12 -4
3 -6 1 -14 -5 -18 -6 -4 -16 1 -21 10 -6 11 -23 16 -57 16 -39 0 -54 6 -81 30
-18 17 -42 30 -51 30 -10 0 -21 5 -24 10 -3 6 -17 7 -31 4 -13 -3 -30 -1 -38
5 -7 6 -21 9 -30 5 -9 -3 -23 -1 -31 6 -10 9 -15 9 -15 1 0 -14 -37 -15 -45
-1 -3 6 -11 10 -16 10 -6 0 -7 -5 -4 -10 3 -6 -4 -14 -17 -19 -20 -9 -20 -10
-4 -10 15 -1 17 -4 8 -13 -9 -9 -16 -8 -29 4 -16 15 -22 15 -51 2 -24 -10 -39
-11 -52 -4 -14 8 -21 6 -28 -6 -8 -14 -10 -14 -21 0 -23 28 -48 18 -42 -16 0
-5 -6 -8 -14 -8 -8 0 -14 3 -14 8 5 30 -35 38 -66 12 -14 -11 -17 -10 -22 8
-5 22 -23 31 -23 12 0 -5 -3 -10 -8 -10 -4 0 -7 23 -6 50 0 35 -3 50 -12 50
-11 0 -11 6 -2 27 7 16 17 33 24 39 7 5 15 21 19 35 8 30 75 79 109 79 14 0
34 8 45 19 10 10 25 21 32 24 11 4 11 8 -3 23 -17 17 -18 17 -18 1 0 -9 -4
-17 -10 -17 -17 0 -11 25 9 37 16 10 19 20 14 50 -4 21 -12 43 -19 48 -7 6
-14 21 -16 35 -2 19 -9 25 -28 25 -14 0 -34 -4 -45 -9 -11 -6 -24 -11 -30 -12
-33 -6 -41 -11 -52 -29 -7 -11 -12 -28 -13 -38 0 -11 -4 -15 -12 -11 -7 4 -8
3 -4 -5 10 -15 -11 -41 -34 -41 -11 0 -20 -10 -24 -25 -5 -20 -13 -25 -39 -25
l-32 -1 33 -14 c17 -8 32 -20 32 -26 0 -7 -2 -10 -5 -7 -6 5 -75 -56 -75 -66
0 -3 9 -6 20 -6 31 0 24 -15 -15 -29 -36 -13 -39 -31 -5 -31 13 0 17 -5 13
-19 -3 -10 0 -22 6 -25 13 -9 15 -36 2 -36 -5 0 -11 8 -14 19 -3 14 -11 17
-30 14 -18 -4 -24 -10 -20 -20 4 -9 -2 -22 -13 -30 -15 -11 -16 -16 -6 -22 11
-6 11 -13 1 -35 -10 -21 -10 -32 -1 -47 7 -10 12 -30 12 -43 0 -14 5 -28 10
-31 6 -3 7 -18 4 -32 -6 -21 -4 -25 9 -20 13 5 15 -1 11 -35 -3 -23 -5 -44 -6
-47 -5 -47 5 -142 15 -153 7 -7 20 -28 28 -46 8 -18 21 -35 30 -37 9 -3 26
-16 39 -30 l23 -24 -24 -10 c-14 -5 -31 -21 -38 -35 -8 -14 -20 -26 -28 -26
-7 0 -13 -4 -13 -10 0 -5 -5 -10 -10 -10 -7 0 -7 7 0 20 11 21 6 40 -11 40 -5
0 -9 -10 -10 -22 0 -22 -1 -22 -8 -3 -5 11 -6 25 -4 31 2 7 0 15 -6 19 -7 3
-11 -2 -11 -14 0 -11 -4 -22 -9 -25 -5 -3 -7 -14 -4 -25 3 -13 -5 -25 -26 -40
-17 -13 -29 -27 -26 -32 4 -5 -1 -9 -9 -9 -8 0 -18 5 -21 10 -3 6 0 10 8 10
13 0 27 20 27 37 0 2 -14 2 -31 -2 -28 -6 -30 -5 -24 14 8 27 -5 27 -28 1 -9
-11 -14 -20 -11 -20 4 0 -5 -9 -20 -21 -14 -11 -42 -22 -60 -23 -29 -3 -35 1
-41 22 -6 23 -9 24 -48 18 -23 -4 -50 -7 -61 -7 -10 0 -29 -7 -42 -16 -14 -9
-28 -13 -32 -9 -3 4 0 11 8 17 13 8 11 12 -7 28 -13 11 -23 26 -23 35 0 8 -3
17 -7 19 -14 8 -53 -12 -53 -28 0 -9 -9 -15 -22 -15 -21 0 -21 0 -2 -15 16
-12 17 -14 2 -15 -9 0 -26 13 -38 30 -18 25 -19 32 -8 50 7 11 19 20 26 20 23
0 8 35 -16 38 -23 3 -23 4 -5 19 10 8 13 12 7 9 -7 -3 -17 1 -24 9 -6 7 -18
11 -26 8 -8 -3 -14 -1 -14 5 0 28 76 30 85 2 3 -11 14 -20 23 -20 13 0 14 2 4
8 -9 7 -7 15 12 35 27 29 59 39 36 12 -7 -9 -10 -19 -6 -22 10 -10 27 19 21
35 -3 7 2 15 9 18 8 3 16 14 19 25 3 11 9 18 14 17 4 -1 18 4 30 12 l23 15
-33 17 -32 17 28 1 c15 0 27 4 27 9 0 5 11 12 24 15 24 6 24 7 10 36 -15 30
-31 42 -21 17 3 -8 1 -20 -4 -28 -7 -12 -11 -11 -26 3 -11 11 -13 18 -5 18 7
0 12 14 12 35 0 28 4 35 19 35 11 0 23 4 26 10 3 6 16 10 28 10 16 0 18 3 9
12 -9 9 -17 9 -36 -2 -14 -7 -39 -13 -55 -14 -18 -1 -31 -6 -31 -13 0 -20 -34
-15 -58 7 -25 23 -40 27 -22 5 7 -8 10 -15 6 -15 -3 0 2 -8 12 -18 9 -10 22
-17 29 -15 10 4 33 -25 33 -41 0 -10 -36 -6 -47 5 -18 18 -103 18 -100 0 1 -8
-4 -16 -11 -18 -7 -3 -10 1 -6 11 4 10 1 16 -9 16 -23 0 -77 -33 -77 -47 0
-16 -16 -17 -25 -3 -12 19 -25 -1 -20 -30 5 -28 4 -29 -25 -24 -19 4 -30 2
-30 -5 0 -6 -15 -11 -34 -11 -19 0 -37 -4 -40 -9 -3 -5 -18 -11 -33 -14 -16
-3 -38 -8 -50 -12 -28 -9 -32 19 -6 34 10 5 14 13 10 17 -5 5 -12 2 -17 -6 -8
-13 -13 -13 -40 2 -17 10 -32 13 -35 7 -8 -12 -25 -11 -25 2 0 6 9 13 21 16
12 4 18 11 15 20 -3 8 -6 21 -6 30 0 10 -6 13 -16 9 -10 -4 -13 -2 -8 6 5 7 2
9 -9 5 -8 -3 -21 1 -27 9 -14 16 -50 19 -50 4 0 -6 16 -18 35 -27 39 -19 45
-33 15 -33 -11 0 -20 7 -20 15 0 20 -12 19 -44 -6 -29 -23 -55 -17 -35 8 10
12 10 16 -2 23 -12 8 -32 7 -80 -6 -9 -3 -19 2 -22 10 -5 14 -10 13 -36 -1
-16 -10 -28 -21 -25 -24 6 -10 -54 -29 -92 -29 -19 0 -34 5 -34 11 0 7 11 9
28 6 17 -3 39 2 60 15 34 21 34 43 1 33 -16 -5 -20 -3 -17 11 2 13 -6 21 -29
27 -18 6 -33 13 -33 18 0 4 -10 5 -22 2 -17 -3 -19 -2 -9 5 9 7 11 19 7 38 -6
23 -5 26 5 17 9 -9 16 -7 30 12 23 28 24 35 4 35 -18 0 -20 16 -2 23 9 4 8 8
-3 16 -12 8 -16 6 -20 -12 -5 -19 -13 -22 -55 -22 -28 0 -50 5 -51 10 0 6 -4
18 -9 28 -10 24 2 34 25 20 15 -10 19 -9 24 3 10 26 -2 32 -41 24 -37 -9 -59
2 -47 22 3 4 -12 8 -33 9 -21 0 -32 3 -25 6 6 2 12 14 12 26 0 31 11 44 40 49
15 2 24 9 22 18 -2 8 4 19 13 26 14 10 13 12 -6 17 -14 4 -20 11 -16 21 6 16
-4 22 -16 9 -4 -3 0 -15 10 -25 9 -10 13 -21 9 -25 -4 -4 -12 -1 -17 7 -8 11
-12 12 -16 3 -8 -22 -23 -14 -23 12 0 14 -11 37 -24 50 -22 22 -23 25 -9 45
13 18 22 21 59 16 48 -5 49 -4 45 64 -3 36 -21 69 -21 37 0 -25 -37 -21 -51 5
-6 12 -14 38 -16 57 -2 20 -6 43 -9 51 -4 13 -6 13 -14 0 -9 -13 -10 -13 -10
0 0 8 12 26 25 39 14 12 22 27 19 32 -8 13 -48 11 -62 -3 -18 -18 -22 -7 -13
34 5 21 5 38 0 40 -9 3 -20 54 -21 95 0 22 -17 22 -46 0 -16 -13 -29 0 -14 15
7 7 8 17 1 30 -12 23 -1 24 17 1 11 -15 15 -16 23 -4 5 8 7 21 3 29 -4 11 -1
14 10 9 9 -3 23 2 33 13 16 18 16 19 -11 16 -16 -2 -32 -10 -38 -18 -8 -13
-11 -13 -27 3 -10 10 -17 24 -15 31 1 7 1 10 -1 6 -6 -11 -33 -10 -33 1 0 5
-12 12 -27 16 -16 4 -22 10 -15 12 25 9 11 28 -24 31 -31 2 -64 20 -64 35 0 3
9 7 20 10 11 3 18 2 15 -3 -3 -4 2 -13 10 -20 12 -10 15 -9 15 6 0 11 -7 31
-14 47 -8 15 -11 27 -6 27 5 0 7 14 3 30 -4 25 -3 29 10 24 8 -3 18 -1 21 4 3
5 -10 13 -28 16 -19 4 -49 20 -67 37 -32 30 -53 33 -29 4 19 -23 6 -28 -14 -6
-16 17 -16 22 -4 40 14 20 14 20 31 1 9 -11 22 -20 29 -19 10 0 10 2 1 6 -10
3 -10 10 -2 25 8 15 14 17 22 9 16 -16 37 -14 37 4 0 8 -7 15 -15 15 -28 0
-63 30 -69 60 -3 17 -12 30 -20 30 -7 0 -17 7 -20 16 -4 12 -2 15 9 11 8 -4
17 -2 20 3 4 6 -1 10 -9 10 -19 0 -21 16 -3 23 6 2 -5 8 -25 12 -22 4 -38 13
-38 21 0 8 4 14 10 14 5 0 7 6 4 14 -3 8 -1 16 3 19 5 3 9 -6 9 -21 -1 -21 3
-26 18 -24 10 2 26 10 34 19 13 12 13 16 2 23 -12 7 -11 11 0 27 12 15 12 16
0 6 -17 -15 -40 -17 -40 -3 0 6 7 10 16 10 8 0 12 5 9 10 -3 6 -13 10 -21 10
-8 0 -23 9 -33 19 -14 14 -16 22 -7 31 8 9 4 10 -16 5 -24 -6 -28 -4 -28 13 0
12 -8 26 -17 31 -17 10 -17 10 0 11 9 0 17 7 17 15 0 17 35 21 45 5 8 -13 42
-13 50 0 3 5 -6 17 -21 26 -21 14 -30 15 -45 6 -10 -7 -26 -12 -34 -12 -9 0
-14 -4 -11 -8 2 -4 -5 -9 -17 -9 -19 -2 -20 -1 -5 8 13 7 16 19 13 42 -4 25
-3 27 3 8 6 -21 9 -22 20 -8 7 8 10 26 7 39 -6 22 -3 24 29 24 37 0 56 -20 36
-40 -5 -5 -10 -14 -10 -18 0 -14 22 -9 34 8 9 12 22 14 64 8 28 -3 49 -10 46
-15 -6 -10 45 -58 61 -58 6 0 0 8 -12 18 -13 11 -23 22 -23 25 0 11 36 6 48
-6 9 -9 20 -9 49 1 27 10 38 11 41 2 2 -6 13 -11 25 -11 16 0 18 -3 9 -12 -9
-9 -15 -9 -24 0 -22 22 -48 13 -62 -20 -12 -27 -15 -29 -19 -12 -4 16 -5 16
-6 2 -1 -11 -9 -18 -21 -18 -11 0 -20 -5 -20 -11 0 -7 -11 -8 -29 -4 -32 7
-53 -12 -30 -26 38 -23 40 -27 33 -52 -3 -15 -12 -27 -20 -27 -8 0 -24 -10
-35 -21 -17 -17 -19 -23 -8 -30 22 -14 32 -11 25 7 -4 11 -2 14 6 11 7 -3 22
-8 33 -12 l20 -8 -20 16 c-15 12 -17 19 -9 27 30 31 72 -21 45 -54 -9 -10 -6
-13 14 -11 21 3 23 1 15 -15 -14 -27 -13 -30 13 -30 21 0 21 -1 -7 -25 -27
-23 -24 -30 12 -26 6 1 12 -4 12 -12 0 -10 15 -16 46 -20 55 -6 124 2 124 14
0 5 9 9 19 9 11 0 26 8 33 19 12 17 62 31 116 32 13 1 32 -8 43 -20 21 -22 48
-26 163 -23 32 1 56 -2 52 -5 -4 -4 4 -13 16 -20 l23 -13 -22 -6 c-13 -3 -23
-10 -23 -15 0 -16 33 -47 45 -43 7 3 23 -11 35 -30 12 -20 28 -36 36 -36 8 0
13 -3 11 -8 -1 -4 3 -7 8 -7 6 0 9 3 8 7 -2 5 6 8 17 8 16 0 20 -7 20 -35 0
-33 2 -35 36 -35 21 0 33 -4 29 -10 -9 -14 29 -12 43 2 9 9 12 8 12 -5 0 -11
9 -18 23 -18 41 -3 52 -5 69 -13 10 -5 15 -13 12 -18 -4 -6 -10 -5 -15 3 -7
11 -11 10 -23 -6 -14 -19 -13 -20 25 -29 45 -10 73 4 51 26 -16 16 -15 28 3
28 9 0 15 -6 14 -12 -5 -41 1 -45 54 -46 28 0 75 -3 103 -6 62 -7 165 9 175
26 6 10 12 8 24 -7 10 -13 14 -15 13 -5 -2 8 4 15 12 16 8 0 26 4 39 8 14 5
27 4 34 -3 8 -8 16 -6 29 6 14 13 21 14 30 5 20 -20 38 -14 38 13 0 14 -4 25
-10 25 -5 0 -10 -7 -10 -15 0 -20 -6 -19 -29 4 -20 20 -19 20 36 27 47 5 58 4
69 -10 11 -15 13 -15 27 -1 24 23 36 18 32 -14 -3 -28 -3 -28 46 -26 27 2 56
8 64 15 8 6 20 8 26 4 8 -4 9 -3 5 4 -4 7 -2 12 3 12 22 0 10 28 -14 34 -14 4
-25 13 -25 21 0 17 16 20 25 5 4 -7 13 -7 26 0 11 6 17 15 14 20 -3 5 11 16
32 25 31 13 42 14 62 3 l24 -13 -29 -6 -29 -7 33 -1 c21 -1 35 4 39 15 3 9 9
12 12 6 3 -5 20 -12 38 -15 32 -6 32 -6 28 31 -1 20 -4 39 -5 42 -1 3 -3 12
-4 20 0 8 -14 17 -31 21 -25 5 -27 7 -12 14 14 6 16 14 11 41 -7 40 -5 41 26
14 13 -11 30 -20 39 -20 18 0 45 -36 36 -50 -3 -5 4 -11 15 -15 11 -4 18 -10
15 -15 -3 -4 2 -13 10 -20 7 -6 11 -18 8 -26 -3 -9 1 -14 12 -14 9 0 19 -9 22
-20 5 -19 7 -20 23 -5 12 11 26 14 45 9 23 -6 27 -4 22 9 -3 9 1 18 9 21 23 9
24 8 24 -14 0 -11 -4 -20 -10 -20 -5 0 -10 -7 -10 -15 0 -27 31 -16 41 15 6
16 15 28 19 25 12 -7 19 58 8 72 -5 6 -5 13 0 17 12 7 8 104 -7 139 -16 41
-14 87 4 87 18 0 20 41 4 57 -8 8 -5 15 10 25 12 8 18 17 15 21 -3 3 -1 15 6
26 9 18 8 21 -10 21 -11 0 -20 2 -20 5 0 3 23 28 50 57 54 56 59 67 33 64 -25
-2 -30 44 -7 61 16 12 16 13 1 13 -9 0 -17 -5 -17 -11 0 -5 -4 -7 -10 -4 -15
10 -12 35 5 35 8 0 15 5 15 11 0 6 -6 9 -12 7 -18 -6 -39 18 -32 35 3 8 0 18
-6 22 -8 5 -5 11 7 21 11 8 13 14 6 15 -7 1 -17 2 -21 3 -5 0 -17 9 -27 20
-19 18 -19 18 4 11 20 -6 22 -4 17 13 -6 18 -1 21 48 27 30 4 59 4 64 1 13 -8
22 17 15 44 l-6 23 -16 -21 c-17 -22 -55 -30 -85 -17 -14 6 -24 2 -38 -14 -17
-22 -18 -23 -18 -3 0 12 -9 23 -20 27 -15 5 -19 12 -15 26 7 23 -1 25 -21 5
-8 -8 -11 -22 -8 -30 4 -11 1 -16 -11 -16 -12 0 -15 5 -9 23 3 12 11 28 16 35
8 9 5 12 -11 12 -19 0 -26 -11 -22 -34 1 -5 -5 -6 -14 -2 -9 3 -35 6 -58 6
-39 1 -41 2 -23 15 11 8 14 15 8 15 -18 0 -14 27 5 34 12 5 14 9 5 18 -9 9
-15 7 -27 -8 -8 -10 -15 -25 -15 -31 0 -15 -50 -18 -50 -3 0 6 9 10 20 10 12
0 20 7 20 16 0 12 -5 14 -17 9 -31 -13 -84 -5 -106 15 -11 11 -29 21 -39 21
-45 3 -76 8 -108 16 -33 8 -34 10 -15 21 19 11 19 11 -2 12 -13 0 -23 -4 -23
-9 0 -10 -46 -29 -75 -32 -36 -3 -55 1 -55 10 0 5 8 12 18 14 9 3 1 5 -20 6
-20 0 -38 6 -40 13 -3 8 -14 7 -38 -5 -37 -19 -61 -21 -76 -8 -13 13 -142 22
-149 11 -8 -13 -67 -13 -102 1 -20 7 -24 12 -14 18 10 7 11 10 1 16 -8 5 -18
1 -26 -10 -16 -22 -10 -35 17 -35 10 0 19 -4 19 -10 0 -14 -20 -12 -54 5 -15
8 -40 15 -55 15 -15 0 -32 5 -38 11 -6 6 -16 10 -22 8 -25 -9 14 -38 52 -41
21 -1 40 -5 43 -9 7 -12 -59 -40 -69 -30 -5 5 -15 7 -22 4 -10 -3 -12 2 -8 19
4 19 3 20 -6 8 -9 -12 -11 -10 -6 10 9 41 -8 55 -65 53 -27 0 -50 3 -50 7 0
14 -47 17 -66 3 -10 -7 -28 -13 -41 -13 -13 0 -23 -4 -23 -10 0 -5 -25 -10
-55 -10 -30 0 -55 5 -55 10 0 6 -9 10 -20 10 -11 0 -20 -4 -20 -10 0 -5 -11
-12 -24 -16 -14 -3 -27 -12 -30 -20 -3 -8 -12 -14 -20 -14 -7 0 -16 -6 -19
-14 -3 -8 -29 -18 -59 -23 -29 -5 -52 -14 -51 -20 1 -6 -16 -13 -38 -16 -22
-3 -48 -12 -58 -21 -10 -9 -26 -16 -37 -16 -11 0 -27 -13 -37 -30 -10 -16 -23
-30 -28 -30 -17 0 -23 32 -7 44 8 6 13 17 11 24 -6 16 14 16 20 0 3 -10 7 -10
17 -1 14 13 5 33 -16 33 -8 0 -14 5 -14 10 0 6 4 10 9 10 17 0 20 29 5 44 -12
13 -12 19 -2 36 10 15 10 24 1 39 -8 13 -9 21 0 30 6 6 8 14 4 18 -4 4 -13 1
-19 -5 -18 -18 -31 -14 -25 8 3 13 0 20 -9 20 -19 0 -18 10 3 25 16 12 14 14
-20 20 -20 4 -44 5 -52 1 -12 -4 -13 -2 -3 13 9 14 8 26 -2 50 -13 33 -28 39
-48 19 -9 -9 -12 -8 -12 5 0 9 6 17 13 17 7 0 13 10 14 22 1 12 9 26 18 30 19
11 20 28 1 28 -8 0 -18 -10 -22 -22 -7 -22 -8 -22 -15 6 -5 16 -5 34 -2 39 3
6 1 7 -6 3 -6 -4 -19 -2 -27 5 -13 11 -12 15 11 33 21 17 25 26 19 53 -4 20
-14 33 -28 37 -18 5 -19 8 -6 16 13 9 12 13 -8 27 l-22 16 20 17 21 18 -20 7
c-12 3 -21 11 -21 17 0 33 -88 65 -105 38 -8 -12 -35 6 -35 23 0 5 16 32 35
58 25 35 31 49 20 49 -21 0 -30 27 -15 45 11 14 15 14 35 1 20 -13 25 -13 35
-2 7 9 7 16 1 20 -5 3 -12 0 -14 -6 -3 -7 -6 -3 -6 10 -1 13 3 21 8 18 11 -7
36 22 27 31 -3 3 -6 2 -6 -4 0 -6 -18 -10 -41 -10 -29 0 -39 3 -35 13 3 7 0
15 -7 18 -9 3 -9 7 1 13 10 7 8 13 -7 27 -16 14 -17 21 -7 41 6 14 14 25 19
25 4 0 7 5 7 10 0 6 -7 10 -16 10 -13 0 -15 7 -11 33 3 19 1 40 -4 48 -6 10
-9 3 -9 -22 0 -20 -7 -42 -15 -49 -13 -10 -15 -9 -15 11 0 19 2 21 10 9 8 -12
10 -9 10 11 0 24 -22 45 -42 41 -5 -1 -8 1 -8 6 0 12 40 33 50 27 17 -10 11 7
-7 20 -9 7 -13 17 -9 24 6 9 12 9 24 -1 15 -12 16 -11 3 4 -7 10 -11 24 -8 33
4 8 2 17 -3 20 -6 3 -15 15 -20 26 -8 15 -7 19 3 19 8 0 18 -10 22 -22 6 -20
8 -20 12 -5 4 15 15 21 35 18 11 -1 -8 43 -20 47 -6 2 -12 -7 -15 -20 l-4 -23
-2 23 c-1 15 -7 22 -21 22 -15 0 -20 7 -20 25 0 29 7 31 30 10 15 -14 18 -14
23 -1 4 11 1 13 -11 9 -14 -6 -15 -4 -5 8 9 11 10 25 4 47 -5 17 -7 33 -3 36
3 4 -3 13 -14 22 -19 15 -19 16 0 9 21 -6 36 9 36 38 0 12 -8 17 -25 17 -14 0
-25 5 -25 10 0 6 11 10 25 10 27 0 34 15 10 24 -18 7 -20 35 -2 38 6 0 17 2
23 2 20 2 64 63 64 89 0 14 5 29 10 32 6 4 8 10 5 15 -3 4 6 11 20 14 14 4 25
12 25 18 0 6 7 20 16 30 16 17 18 17 30 0 12 -15 15 -15 23 -2 7 11 6 16 -3
20 -9 3 -11 12 -5 25 6 16 8 17 8 3 1 -23 19 -32 37 -17 8 7 12 20 8 31 -4 15
-1 19 13 17 36 -4 81 13 86 32 3 10 1 22 -4 25 -14 9 0 24 23 24 16 0 19 5 14
24 -5 20 -1 25 21 31 39 9 56 35 36 57 -20 22 -10 37 22 30 15 -2 25 0 25 7 0
6 13 11 29 11 17 0 33 5 36 10 3 6 15 10 26 10 10 0 19 5 19 10 0 6 7 10 15
10 8 0 15 4 15 9 0 12 108 44 126 37 7 -3 16 -1 19 3 2 5 37 16 77 25 40 10
81 21 90 27 10 5 26 9 36 9 11 0 32 7 48 15 16 8 52 16 79 19 28 3 66 10 85
16 48 14 52 13 45 -10 -8 -24 16 -28 34 -6 7 8 21 12 31 9 11 -3 20 -1 20 4 0
6 32 20 71 33 66 20 84 21 143 3 13 -3 16 -1 11 7 -5 9 -2 10 13 6 29 -9 193
-10 220 -2 15 5 22 3 22 -6 0 -8 15 -21 34 -29 30 -14 39 -14 73 -2 21 8 52
14 68 12 32 -2 39 -2 123 2 37 2 56 -1 62 -11 10 -15 180 -24 180 -9 0 15 22
10 43 -8 18 -17 19 -17 32 1 8 10 19 15 25 11 6 -4 2 -13 -12 -25 -13 -10 -20
-22 -16 -26 5 -4 16 0 26 9 16 15 21 15 38 2 31 -24 44 -19 38 15 -7 33 10 42
19 10 3 -11 12 -20 21 -20 9 0 16 -5 16 -11 0 -5 5 -7 10 -4 6 3 10 2 10 -3 0
-13 45 -21 61 -11 7 4 9 14 4 25 -13 31 -11 39 10 45 11 3 19 11 17 17 -1 7 5
12 14 12 8 0 12 -4 9 -10 -3 -5 0 -10 7 -10 10 0 10 -2 -1 -9 -20 -13 3 -23
34 -15 14 3 25 10 25 15 0 16 26 10 50 -11 24 -21 65 -27 75 -10 3 5 12 7 20
3 10 -3 15 2 15 16 0 40 29 23 41 -24 6 -25 15 -45 19 -45 20 0 27 78 10 111
-9 15 -7 19 5 19 9 0 14 -4 11 -9 -3 -5 17 -11 45 -15 55 -7 89 -22 103 -46 8
-12 11 -10 16 10 8 33 40 40 40 9 0 -18 3 -20 12 -11 16 16 28 15 28 -3 0 -8
7 -15 16 -15 8 0 12 -4 9 -10 -3 -5 0 -7 8 -4 8 3 18 1 22 -5 3 -6 15 -11 26
-11 11 0 18 4 14 9 -10 17 18 24 30 8 7 -10 22 -17 33 -17 11 0 24 -4 27 -10
9 -15 42 -12 49 5 3 8 10 15 16 15 15 0 40 -25 40 -39 0 -6 12 -11 26 -11 20
0 25 -4 20 -16 -4 -12 -1 -14 14 -9 16 5 19 3 13 -10 -7 -20 15 -37 38 -29 10
2 19 -2 23 -12 3 -9 12 -14 20 -11 13 5 25 -16 30 -48 0 -5 11 -11 24 -13 12
-2 22 -10 22 -17 0 -17 60 -105 72 -105 4 0 8 -6 8 -14 0 -7 7 -19 15 -26 9
-7 13 -15 11 -17 -3 -3 13 -22 35 -44 21 -21 39 -45 39 -54 0 -8 3 -15 8 -15
4 0 12 -10 18 -23 19 -38 62 -115 79 -140 8 -13 12 -27 9 -30 -4 -4 1 -9 10
-13 9 -3 16 -14 16 -24 0 -19 39 -101 54 -111 5 -4 6 -13 4 -20 -3 -8 2 -27
10 -44 16 -30 18 -36 20 -67 1 -10 18 -33 37 -53 23 -23 30 -35 20 -35 -8 0
-15 -7 -15 -15 0 -8 5 -15 10 -15 6 0 10 -6 9 -12 -2 -13 4 -33 22 -73 18 -42
41 -111 46 -140 3 -16 12 -37 20 -46 8 -10 15 -31 15 -48 1 -18 5 -34 10 -37
4 -3 8 -18 8 -35 0 -16 5 -29 10 -29 6 0 10 -6 9 -12 -4 -24 13 -98 22 -98 5
0 9 -15 9 -34 0 -19 4 -38 10 -41 5 -3 10 -16 9 -28 0 -33 10 -113 21 -160 5
-23 12 -94 15 -157 4 -63 12 -121 18 -128 7 -9 8 -16 0 -20 -7 -5 -8 -27 -3
-62 4 -30 4 -64 0 -75 -11 -34 -12 -197 0 -190 15 9 12 -11 -4 -24 -7 -6 -17
-39 -20 -72 -6 -47 -4 -66 9 -85 8 -13 11 -24 5 -24 -5 0 -10 5 -10 10 0 6 -7
10 -15 10 -8 0 -15 5 -15 11 0 5 -5 7 -12 3 -7 -5 -9 -2 -6 8 4 10 -4 19 -29
29 -19 7 -39 21 -44 31 -12 23 -37 23 -62 1 -14 -13 -21 -14 -24 -6 -3 8 -12
9 -29 3 -15 -6 -34 -6 -50 0 -36 14 -52 12 -31 -4 13 -10 15 -16 7 -21 -8 -5
-4 -11 10 -19 30 -15 31 -30 2 -34 -28 -4 -84 17 -77 28 8 13 -27 22 -39 10
-7 -7 -5 -10 8 -10 9 0 15 -4 11 -9 -3 -5 -25 -9 -50 -8 -25 1 -40 4 -34 6 6
2 1 10 -10 18 -26 18 -28 38 -3 24 10 -5 24 -6 31 -2 15 10 -18 21 -62 21 -16
0 -26 4 -22 10 3 6 -1 10 -9 10 -9 0 -16 7 -16 15 0 9 -10 15 -26 15 -14 0
-23 4 -19 10 3 6 0 10 -9 10 -8 0 -16 -5 -18 -11 -6 -18 -76 -21 -111 -5 -79
36 -107 45 -113 34 -4 -6 -10 -5 -15 3 -8 12 -11 12 -18 -1 -6 -8 -22 -15 -38
-16 -15 -1 -30 -3 -33 -5 -11 -5 -120 -4 -120 2 0 3 -7 6 -15 6 -8 0 -15 -8
-15 -18 0 -33 -97 -41 -120 -9 -18 25 -30 26 -30 2 0 -9 -9 -23 -20 -30 -17
-10 -23 -9 -40 8 -21 21 -80 28 -80 10 0 -5 14 -10 31 -10 20 0 39 -8 50 -22
25 -27 24 -28 -11 -28 -21 0 -28 4 -24 14 4 10 0 13 -14 9 -10 -2 -26 3 -36
12 -15 15 -16 14 -17 -12 -1 -31 -3 -38 -14 -71 -6 -19 -14 -22 -43 -20 -36 3
-36 2 -37 -34 -1 -25 -8 -43 -20 -53 -19 -14 -19 -14 10 -15 17 -1 24 -4 18
-7 -23 -9 -14 -25 10 -18 19 6 20 6 6 -6 -9 -8 -19 -22 -22 -31 -5 -14 -1 -17
15 -15 11 1 23 -4 25 -10 3 -7 -3 -13 -12 -13 -9 0 -14 -4 -11 -9 4 -5 2 -20
-2 -33 -11 -28 -5 -48 14 -48 20 0 17 -20 -3 -20 -17 -1 -17 -1 0 -14 10 -8
19 -27 20 -42 1 -16 7 -32 12 -36 6 -5 4 -8 -5 -8 -10 0 -15 -10 -15 -30 0
-16 3 -30 8 -30 13 0 8 -118 -5 -123 -10 -4 -10 -6 0 -6 6 -1 12 -13 12 -28 0
-38 11 -51 40 -49 19 1 25 -4 23 -19 -1 -11 4 -23 10 -27 9 -6 8 -11 -3 -18
-10 -6 -11 -10 -2 -10 6 0 12 -6 12 -14 0 -8 -6 -17 -12 -19 -10 -4 -9 -6 1
-6 11 -1 11 -4 1 -16 -8 -9 -8 -15 -2 -15 6 0 13 -8 15 -17 4 -17 5 -17 6 0 1
24 21 11 21 -14 0 -10 7 -19 15 -19 8 0 15 7 15 15 0 8 4 15 10 15 5 0 7 -7 4
-15 -4 -8 -2 -15 4 -15 5 0 27 -7 47 -16 30 -12 35 -18 24 -25 -9 -6 -3 -7 19
-3 38 8 45 -12 7 -22 -14 -3 -22 -10 -19 -15 8 -13 42 -11 46 3 3 9 6 9 12 0
4 -7 2 -12 -3 -12 -17 0 -13 -27 5 -34 8 -3 12 -10 9 -16 -3 -5 -2 -10 4 -10
5 0 14 7 19 16 5 9 15 14 21 10 6 -4 9 -12 6 -17 -3 -5 1 -6 9 -3 13 5 15 0
10 -24 -4 -18 -1 -32 5 -37 8 -5 10 1 5 19 -4 15 -2 26 4 26 6 0 12 7 14 16 3
14 6 13 26 -4 12 -11 43 -23 67 -27 25 -3 45 -10 45 -16 0 -5 15 -9 34 -9 18
0 39 -7 46 -15 7 -8 23 -15 36 -15 14 0 32 -5 43 -11 12 -8 23 -9 36 -2 19 11
75 -10 75 -28 0 -5 7 -9 16 -9 8 0 12 5 9 10 -3 6 3 10 14 10 12 0 21 -4 21
-10 0 -13 27 -13 32 -1 2 5 26 -1 53 -14 52 -24 65 -24 65 1 0 8 5 14 10 14 6
0 10 -12 10 -26 0 -32 29 -30 46 4 6 13 15 23 20 23 12 -1 14 158 2 165 -4 3
-8 12 -8 20 0 10 11 13 40 12 22 -1 40 -5 40 -9 0 -14 79 -5 85 10 3 7 12 11
20 7 8 -3 17 -1 21 5 4 6 12 5 22 -3 15 -12 16 -11 3 5 -13 16 -12 19 8 24 18
4 21 11 17 29 -3 12 -1 26 4 29 6 4 8 9 6 13 -2 4 0 27 5 52 6 25 9 67 9 94
-1 27 3 52 9 55 5 4 11 35 13 70 3 56 6 65 30 83 18 12 28 29 28 44 0 13 4 24
10 24 5 0 7 13 3 31 -4 21 -1 34 8 40 11 7 10 11 -6 23 -16 11 -17 17 -8 27
10 10 15 9 28 -1 13 -11 14 -6 10 41 -2 30 -1 48 3 42 5 -7 7 39 6 102 -2 95
0 117 13 124 13 7 16 25 14 90 -2 68 0 81 13 81 9 0 16 8 16 19 0 11 4 23 10
26 5 3 8 27 7 53 -1 35 2 46 11 44 9 -2 12 6 10 25 -2 19 2 27 10 25 9 -2 10
3 4 15 -5 10 -12 31 -16 47 -6 23 -4 27 9 22 21 -8 28 14 15 48 -8 22 -7 35 4
57 11 23 12 35 3 58 -9 24 -8 33 5 48 22 26 29 63 16 87 -6 12 -12 30 -13 41
-1 11 -6 28 -10 38 -6 16 -4 18 16 15 20 -2 24 1 25 22 0 14 3 31 8 38 4 6 5
16 2 21 -4 5 -1 31 5 58 11 47 7 82 -17 162 -6 21 -4 23 11 18 15 -6 16 -4 10
15 -4 13 -8 42 -9 65 -1 23 -5 45 -9 49 -4 4 -2 13 4 20 7 9 7 19 -1 34 -14
26 -6 37 15 20 13 -10 15 -9 15 7 0 10 4 23 9 29 10 10 -19 111 -35 122 -12 9
-17 62 -5 62 5 0 11 -7 15 -15 3 -8 10 -15 15 -15 6 0 -1 24 -14 53 -14 28
-25 57 -25 62 0 6 -13 25 -29 43 -29 31 -49 72 -36 72 10 0 30 -23 38 -44 6
-15 10 -17 19 -8 9 9 8 18 -1 39 -29 62 -40 78 -55 78 -24 0 -24 18 -1 21 12
2 34 -9 52 -26 17 -16 34 -26 37 -23 10 10 7 35 -3 29 -5 -4 -7 3 -4 14 3 11
0 20 -6 20 -6 0 -11 5 -11 11 0 6 -18 33 -40 59 -22 26 -40 53 -40 59 0 6 -5
11 -10 11 -6 0 -38 27 -73 61 -34 33 -74 67 -89 75 -16 8 -28 19 -28 24 0 6
-10 10 -22 10 -21 1 -99 37 -88 41 3 1 37 3 75 4 59 2 78 -1 118 -23 26 -14
47 -29 47 -34 0 -4 8 -8 18 -8 14 1 14 3 -5 19 -13 11 -24 29 -26 40 -6 41
-46 59 -139 60 -27 1 -48 6 -48 11 0 6 9 10 20 10 11 0 20 5 20 10 0 6 14 10
31 10 28 0 29 1 15 16 -9 8 -24 14 -33 13 -10 -2 -28 2 -40 9 -12 7 -34 17
-49 22 -24 9 -25 9 -14 -5 10 -12 10 -15 -4 -15 -9 0 -16 5 -16 11 0 5 -4 8
-10 4 -5 -3 -7 -12 -3 -20 4 -11 -3 -15 -26 -15 -17 0 -31 5 -31 11 0 6 9 8
22 4 17 -6 20 -4 15 10 -4 9 -7 19 -7 21 0 2 -6 4 -14 4 -8 0 -16 7 -20 15 -4
10 1 15 15 15 21 0 20 1 -2 20 -13 10 -19 19 -12 20 7 0 10 7 6 16 -3 8 0 33
7 56 11 32 11 41 1 47 -9 6 -10 14 -3 27 6 12 7 37 1 69 -5 28 -13 77 -19 110
-14 92 -18 105 -56 190 -10 22 -17 56 -16 75 2 33 2 34 -13 15 -14 -17 -17
-18 -25 -5 -5 8 -10 20 -10 27 0 7 -11 23 -25 37 -25 25 -34 42 -15 31 6 -3
10 1 10 9 0 9 -4 16 -9 16 -9 0 -22 28 -27 59 -3 16 -21 35 -34 37 -23 3 -24
5 -10 14 11 8 12 12 3 18 -8 5 -9 13 -3 22 15 23 12 30 -12 30 -13 0 -32 7
-42 15 -29 22 -40 18 -24 -7 17 -26 31 -98 19 -98 -16 0 -42 38 -52 75 -8 28
-13 35 -20 24 -7 -12 -9 -11 -9 2 0 8 5 20 11 26 8 8 5 17 -11 34 -11 13 -32
38 -45 54 -25 32 -48 27 -27 -5 16 -26 15 -60 0 -60 -17 1 -58 66 -58 91 0 11
-11 37 -25 59 -14 22 -25 44 -25 50 0 13 -37 50 -50 50 -13 0 -13 17 0 22 6 2
4 14 -4 30 -9 16 -11 30 -5 33 5 4 9 1 9 -4 0 -6 10 -10 21 -8 12 1 24 -5 27
-13 5 -13 3 -13 -11 -1 -11 8 -17 9 -17 3 0 -6 8 -16 18 -21 10 -5 27 -26 37
-45 14 -25 26 -36 43 -36 13 0 22 -5 20 -13 -2 -7 13 -33 33 -57 20 -25 44
-61 54 -80 10 -19 23 -38 29 -42 35 -23 35 13 0 50 -29 31 -66 97 -58 105 6 6
-54 102 -83 132 -10 11 -69 79 -130 150 -99 116 -176 195 -190 195 -3 0 -17
11 -31 24 -81 73 -111 96 -121 96 -6 0 -11 4 -11 10 0 11 -77 33 -89 25 -16
-9 -43 25 -31 40 13 16 -23 50 -45 41 -9 -3 -35 3 -57 14 -22 11 -45 17 -49
14 -5 -3 -9 0 -9 6 0 6 -4 9 -9 5 -5 -3 -12 -1 -16 5 -3 5 -16 10 -28 10 -28
0 -14 -11 53 -41 30 -13 70 -34 88 -46 18 -12 38 -24 45 -26 7 -2 10 -7 6 -10
-5 -7 -109 33 -131 50 -7 5 -35 21 -61 34 -27 13 -44 25 -38 27 27 9 6 20 -66
36 -43 9 -95 21 -116 27 -45 12 -165 10 -173 -3z m86 -36 c0 -13 -12 -22 -22
-16 -10 6 -1 24 13 24 5 0 9 -4 9 -8z m182 -9 c-6 -2 -10 -9 -6 -14 3 -5 0 -9
-5 -9 -12 0 -14 13 -4 23 3 4 11 7 17 6 6 0 5 -3 -2 -6z m-299 -20 c-7 -2 -19
-2 -25 0 -7 3 -2 5 12 5 14 0 19 -2 13 -5z m-208 -13 c3 -5 -1 -11 -9 -11 -58
-5 -76 -3 -76 9 0 15 76 17 85 2z m634 -34 c13 -7 20 -16 15 -18 -13 -8 -54 9
-54 22 0 13 10 12 39 -4z m-579 -6 c19 -12 -2 -20 -78 -31 -37 -5 -76 -12 -87
-14 -11 -3 -2 4 20 15 22 11 36 20 32 20 -5 0 -6 4 -2 9 7 12 97 12 115 1z
m778 -118 c15 -10 34 -22 42 -25 36 -16 210 -149 210 -161 0 -14 -30 -4 -55
19 -15 14 -59 48 -99 75 -80 55 -145 109 -133 110 5 0 21 -8 35 -18z m192 -44
c0 -15 -27 -8 -55 14 -25 20 -26 22 -10 28 18 6 65 -24 65 -42z m128 -98 c7
-11 8 -20 2 -20 -5 0 -14 9 -20 20 -6 11 -7 20 -3 20 5 0 14 -9 21 -20z m-2
-108 c3 -16 19 -37 40 -51 19 -13 34 -30 34 -37 0 -8 3 -14 8 -14 12 0 53 -99
50 -123 -3 -20 -5 -19 -24 13 -11 20 -24 48 -28 63 -3 15 -11 27 -16 27 -16 0
-85 102 -85 127 -1 32 14 29 21 -5z m139 -32 c3 -5 1 -10 -4 -10 -6 0 -11 5
-11 10 0 6 2 10 4 10 3 0 8 -4 11 -10z m-1155 -165 c0 -11 -19 -4 -41 15 l-24
21 33 -16 c17 -8 32 -18 32 -20z m69 -53 c-12 -5 -39 17 -39 30 0 5 11 1 24
-9 13 -10 20 -20 15 -21z m1165 -64 c9 -17 16 -38 16 -47 0 -24 -37 18 -45 52
-10 37 10 35 29 -5z m-1834 -208 c18 -12 2 -12 -25 0 -13 6 -15 9 -5 9 8 0 22
-4 30 -9z m1065 -550 c3 -5 1 -10 -4 -10 -6 0 -11 5 -11 10 0 6 2 10 4 10 3 0
8 -4 11 -10z m-889 -85 c-23 -17 -36 -19 -36 -6 0 5 8 12 18 14 32 9 37 6 18
-8z m914 -6 c0 -6 -4 -7 -10 -4 -5 3 -10 11 -10 16 0 6 5 7 10 4 6 -3 10 -11
10 -16z m-176 2 c3 -5 -5 -11 -19 -13 -14 -3 -26 0 -29 8 -6 16 39 20 48 5z
m1452 -66 c-4 -19 -12 -37 -18 -41 -8 -5 -9 3 -3 27 4 19 7 45 6 59 0 22 1 23
10 7 6 -10 8 -34 5 -52z m-1540 28 c-7 -7 -26 7 -26 19 0 6 6 6 15 -2 9 -7 13
-15 11 -17z m156 2 c0 -5 -5 -11 -11 -13 -6 -2 -11 4 -11 13 0 9 5 15 11 13 6
-2 11 -8 11 -13z m-122 -25 c0 -5 -4 -10 -10 -10 -5 0 -10 5 -10 10 0 6 5 10
10 10 6 0 10 -4 10 -10z m850 -24 c0 -3 -4 -8 -10 -11 -5 -3 -10 -1 -10 4 0 6
5 11 10 11 6 0 10 -2 10 -4z m630 -56 c-9 -16 -8 -22 6 -27 9 -3 20 0 24 8 5
7 12 10 16 7 3 -4 -9 -16 -27 -27 -38 -23 -49 -26 -49 -11 0 6 5 10 12 10 9 0
9 3 1 11 -9 9 -9 16 0 30 16 26 31 24 17 -1z m20 -66 c0 -8 -5 -12 -10 -9 -6
4 -8 11 -5 16 9 14 15 11 15 -7z m167 -230 c-3 -3 -12 -4 -19 -1 -8 3 -5 6 6
6 11 1 17 -2 13 -5z m-4227 -276 c0 -5 -7 -8 -15 -8 -15 0 -20 21 -8 33 7 7
23 -11 23 -25z m4454 -77 c11 -12 15 -21 9 -21 -14 0 -63 39 -63 51 0 13 30
-4 54 -30z m51 -42 c10 -14 1 -21 -19 -13 -9 3 -13 10 -10 15 7 12 21 11 29
-2z m82 -65 c-7 -7 -47 33 -47 47 0 7 12 0 27 -15 14 -14 23 -29 20 -32z m-77
6 c0 -5 -5 -10 -11 -10 -5 0 -7 5 -4 10 3 6 8 10 11 10 2 0 4 -4 4 -10z m14
-76 c3 -8 2 -12 -4 -9 -6 3 -10 10 -10 16 0 14 7 11 14 -7z m-4644 -274 c0 -5
-4 -10 -10 -10 -5 0 -10 5 -10 10 0 6 5 10 10 10 6 0 10 -4 10 -10z m110 -554
c0 -2 -7 -6 -15 -10 -8 -3 -15 -1 -15 4 0 6 7 10 15 10 8 0 15 -2 15 -4z m44
-47 c-29 -11 -34 -10 -28 5 3 8 13 12 27 8 20 -5 20 -6 1 -13z m-144 -9 c0 -5
-5 -10 -11 -10 -5 0 -7 5 -4 10 3 6 8 10 11 10 2 0 4 -4 4 -10z m103 -60 c3
-12 0 -20 -8 -20 -8 0 -11 8 -8 20 3 11 7 20 8 20 1 0 5 -9 8 -20z m64 -176
c-3 -3 -12 -4 -19 -1 -8 3 -5 6 6 6 11 1 17 -2 13 -5z m83 -214 c0 -5 -7 -7
-15 -4 -8 4 -15 8 -15 10 0 2 7 4 15 4 8 0 15 -4 15 -10z m40 -40 c0 -5 -4
-10 -10 -10 -5 0 -10 5 -10 10 0 6 5 10 10 10 6 0 10 -4 10 -10z m-70 -9 c0
-6 -4 -13 -10 -16 -5 -3 -10 1 -10 9 0 9 5 16 10 16 6 0 10 -4 10 -9z m120
-21 c0 -5 -2 -10 -4 -10 -3 0 -8 5 -11 10 -3 6 -1 10 4 10 6 0 11 -4 11 -10z
m20 -50 c0 -5 -4 -10 -9 -10 -6 0 -13 5 -16 10 -3 6 1 10 9 10 9 0 16 -4 16
-10z m633 3 c-7 -2 -19 -2 -25 0 -7 3 -2 5 12 5 14 0 19 -2 13 -5z m-713 -13
c0 -5 -3 -10 -7 -10 -5 0 -18 -3 -30 -6 -17 -5 -23 -2 -23 10 0 11 9 16 30 16
17 0 30 -4 30 -10z m540 0 c0 -13 -59 -42 -73 -36 -7 2 -2 8 11 11 12 4 22 11
22 16 0 5 7 6 15 3 8 -4 15 -1 15 5 0 6 2 11 5 11 3 0 5 -4 5 -10z m-646 -21
c-3 -5 -10 -7 -15 -3 -5 3 -7 10 -3 15 3 5 10 7 15 3 5 -3 7 -10 3 -15z m949
14 c-7 -2 -21 -2 -30 0 -10 3 -4 5 12 5 17 0 24 -2 18 -5z m487 -13 c0 -5 -7
-10 -16 -10 -8 0 -12 5 -9 10 3 6 10 10 16 10 5 0 9 -4 9 -10z m-153 -6 c-3
-3 -12 -4 -19 -1 -8 3 -5 6 6 6 11 1 17 -2 13 -5z m85 -19 c17 -11 16 -13 -5
-22 -13 -6 -39 -7 -62 -3 -24 5 -30 8 -17 9 15 1 26 9 29 20 5 20 21 19 55 -4z
m-172 11 c0 -2 -9 -6 -20 -9 -11 -3 -18 -1 -14 4 5 9 34 13 34 5z m-1200 -36
c0 -5 -4 -10 -10 -10 -5 0 -10 5 -10 10 0 6 5 10 10 10 6 0 10 -4 10 -10z
m1200 0 c0 -11 -14 -11 -50 0 -22 7 -21 8 13 9 20 1 37 -3 37 -9z m-1150 -32
c0 -13 -23 -5 -28 10 -2 7 2 10 12 6 9 -3 16 -11 16 -16z m327 -24 c-3 -3 -12
-4 -19 -1 -8 3 -5 6 6 6 11 1 17 -2 13 -5z m-517 -48 c0 -3 -4 -8 -10 -11 -5
-3 -10 -1 -10 4 0 6 5 11 10 11 6 0 10 -2 10 -4z m3867 -71 c0 -8 -4 -12 -9
-9 -4 3 -8 9 -8 15 0 5 4 9 8 9 5 0 9 -7 9 -15z m-477 -5 c0 -5 -7 -10 -15
-10 -8 0 -15 5 -15 10 0 6 7 10 15 10 8 0 15 -4 15 -10z m-140 -10 c0 -5 -4
-10 -10 -10 -5 0 -10 5 -10 10 0 6 5 10 10 10 6 0 10 -4 10 -10z m650 0 c0 -5
-2 -10 -4 -10 -3 0 -8 5 -11 10 -3 6 -1 10 4 10 6 0 11 -4 11 -10z m43 -27
c-7 -2 -19 -2 -25 0 -7 3 -2 5 12 5 14 0 19 -2 13 -5z m-4053 -13 c0 -5 -7
-10 -16 -10 -8 0 -12 5 -9 10 3 6 10 10 16 10 5 0 9 -4 9 -10z m-80 -14 c0
-11 -19 -15 -25 -6 -3 5 1 10 9 10 9 0 16 -2 16 -4z m3278 -18 c-6 -18 -28
-21 -28 -4 0 9 7 16 16 16 9 0 14 -5 12 -12z m-3238 -28 c0 -5 -7 -7 -15 -4
-8 4 -15 8 -15 10 0 2 7 4 15 4 8 0 15 -4 15 -10z m19 -36 c9 -8 -21 -23 -36
-17 -7 3 -23 -5 -34 -18 l-21 -24 26 -3 c14 -2 26 -8 26 -13 0 -6 12 -9 27 -7
16 2 28 -2 31 -11 4 -11 -5 -13 -44 -7 -27 3 -50 11 -52 16 -2 6 -10 10 -17
10 -19 0 -26 27 -9 34 8 3 14 14 14 24 0 10 3 21 6 25 7 7 75 0 83 -9z m29
-14 c-10 -16 -10 -22 0 -32 13 -13 26 -3 52 42 5 8 12 11 16 7 4 -4 0 -21 -9
-36 -9 -16 -17 -37 -17 -46 0 -9 -4 -13 -10 -10 -5 3 -10 -2 -10 -12 -1 -12
-5 -8 -15 12 -7 17 -14 26 -14 21 -1 -5 -7 -3 -15 3 -12 10 -12 16 2 42 9 16
20 29 25 29 4 0 2 -9 -5 -20z m3128 -68 c-12 -11 -18 7 -10 30 l8 23 4 -23 c2
-13 1 -26 -2 -30z m-2996 -76 c0 -3 -4 -8 -10 -11 -5 -3 -10 -1 -10 4 0 6 5
11 10 11 6 0 10 -2 10 -4z m4480 -56 c0 -13 -11 -13 -30 0 -12 8 -11 10 8 10
12 0 22 -4 22 -10z m-4859 -44 c-6 -8 -25 -16 -41 -18 -23 -4 -27 -2 -19 8 6
7 16 11 24 8 7 -3 16 -1 20 5 3 6 11 11 17 11 7 0 7 -5 -1 -14z m14 -36 c3 -6
-1 -7 -9 -4 -18 7 -21 14 -7 14 6 0 13 -4 16 -10z m315 -10 c0 -5 -4 -10 -10
-10 -5 0 -10 5 -10 10 0 6 5 10 10 10 6 0 10 -4 10 -10z m-355 -60 c3 -5 1
-10 -4 -10 -6 0 -11 5 -11 10 0 6 2 10 4 10 3 0 8 -4 11 -10z m4835 -26 c0
-14 -4 -23 -10 -19 -5 3 -10 15 -10 26 0 10 5 19 10 19 6 0 10 -12 10 -26z
m-840 -4 c0 -5 -7 -10 -15 -10 -8 0 -15 5 -15 10 0 6 7 10 15 10 8 0 15 -4 15
-10z m-3800 -30 c0 -5 -7 -10 -15 -10 -8 0 -15 5 -15 10 0 6 7 10 15 10 8 0
15 -4 15 -10z m-95 -30 c8 -13 -5 -13 -25 0 -13 8 -13 10 2 10 9 0 20 -4 23
-10z m-95 -16 c0 -9 -5 -14 -12 -12 -18 6 -21 28 -4 28 9 0 16 -7 16 -16z
m1671 -27 c4 -5 34 -9 68 -9 33 0 63 -3 66 -9 7 -10 -10 -12 -120 -9 -44 1
-81 6 -83 11 -2 5 -12 9 -23 9 -21 0 -26 16 -6 23 19 7 91 -5 98 -16z m69 13
c0 -5 -7 -10 -15 -10 -8 0 -15 5 -15 10 0 6 7 10 15 10 8 0 15 -4 15 -10z
m272 -12 c15 -5 26 -15 24 -21 -1 -7 -1 -9 1 -4 3 4 11 7 19 7 15 0 16 -11 5
-48 l-6 -24 -28 22 c-38 30 -34 19 8 -23 21 -21 42 -34 50 -30 8 3 15 0 15 -6
0 -14 -120 -12 -139 3 -11 8 -15 8 -18 -1 -3 -7 -14 -13 -25 -13 -14 0 -18 -5
-15 -15 8 -19 -10 -30 -27 -16 -10 8 -31 9 -70 3 -58 -9 -73 -4 -62 23 3 9 -1
15 -9 15 -9 0 -12 -6 -9 -15 4 -8 1 -15 -5 -15 -6 0 -11 14 -11 30 0 28 2 30
27 24 22 -6 25 -4 20 10 -4 10 -3 15 4 11 5 -4 17 -1 26 6 13 11 17 10 28 -4
14 -20 45 -23 45 -4 0 6 5 4 11 -5 7 -12 22 -18 46 -18 34 0 35 1 30 30 -6 29
5 41 18 20 8 -14 25 -3 25 16 0 9 -7 14 -18 12 -11 -2 -27 4 -38 12 -18 14
-18 14 -5 -3 8 -9 11 -21 7 -25 -4 -4 -12 1 -18 11 -6 12 -13 15 -21 9 -7 -5
-27 -7 -45 -5 -26 4 -30 8 -21 19 6 8 26 14 43 15 17 1 42 5 56 9 14 4 32 6
40 3 8 -3 27 -9 42 -15z m-1879 -5 c-7 -2 -19 -2 -25 0 -7 3 -2 5 12 5 14 0
19 -2 13 -5z m2027 -14 c0 -6 7 -17 15 -26 21 -20 9 -34 -22 -27 -22 6 -25 4
-20 -10 5 -11 1 -16 -12 -16 -14 0 -18 5 -14 20 3 11 0 20 -6 20 -22 0 -11 39
12 43 40 8 47 7 47 -4z m60 -25 c0 -14 -3 -14 -15 -4 -8 7 -15 14 -15 16 0 2
7 4 15 4 8 0 15 -7 15 -16z m82 -5 c15 -8 22 -8 27 0 10 16 63 -10 56 -28 -5
-11 -3 -12 10 -1 12 10 15 10 15 -4 0 -9 0 -19 0 -23 0 -5 -9 -9 -20 -9 -11
-1 -17 3 -13 8 3 6 -3 8 -14 4 -25 -8 -55 3 -47 16 4 6 -4 8 -22 4 -32 -7 -70
11 -45 21 11 5 11 7 0 14 -21 13 28 11 53 -2z m-2162 -9 c0 -5 -4 -10 -10 -10
-5 0 -10 5 -10 10 0 6 5 10 10 10 6 0 10 -4 10 -10z m1395 -10 c3 -6 18 -7 32
-4 19 5 24 3 21 -7 -3 -9 -17 -13 -37 -11 -24 1 -31 -2 -31 -15 0 -13 -3 -14
-12 -5 -8 8 -8 15 2 27 11 13 10 15 -3 10 -8 -4 -18 -2 -22 4 -4 7 4 11 19 11
14 0 28 -5 31 -10z m132 -38 c21 -18 29 -32 24 -41 -7 -10 -13 -8 -30 10 -11
12 -21 26 -21 31 0 4 -7 8 -15 8 -8 0 -15 5 -15 10 0 18 24 10 57 -18z m23 18
c0 -5 -4 -10 -10 -10 -5 0 -10 5 -10 10 0 6 5 10 10 10 6 0 10 -4 10 -10z
m-91 -42 c-9 -16 -14 -19 -17 -9 -2 7 2 17 9 22 20 13 21 11 8 -13z m-44 2 c3
-5 -1 -10 -9 -10 -9 0 -16 5 -16 10 0 6 4 10 9 10 6 0 13 -4 16 -10z m-1395
-20 c0 -5 -4 -10 -10 -10 -5 0 -10 5 -10 10 0 6 5 10 10 10 6 0 10 -4 10 -10z
m3588 -35 c1 -25 -3 -35 -13 -35 -8 0 -15 9 -15 19 0 11 -3 26 -6 35 -4 11 0
16 13 16 16 0 20 -7 21 -35z m-83 13 c3 -3 3 -13 -1 -22 -5 -14 -36 -21 -71
-17 -7 1 -13 -3 -13 -9 0 -5 -9 -10 -19 -10 -10 0 -21 -6 -24 -13 -2 -7 -16
-13 -31 -15 -20 -1 -26 3 -26 18 0 11 -6 20 -12 21 -10 0 -10 2 0 6 6 2 12 11
12 19 0 17 12 18 28 2 9 -9 15 -9 23 -1 9 9 16 9 30 0 10 -6 22 -7 26 -3 4 5
2 11 -5 13 -6 3 -10 8 -8 11 5 8 83 8 91 0z m243 -18 c2 -5 10 -6 18 -3 19 7
18 -12 -3 -37 -13 -15 -20 -17 -30 -8 -11 9 -13 8 -11 -2 2 -8 -5 -16 -14 -18
-11 -2 -18 2 -18 12 0 12 -7 14 -32 9 -22 -4 -29 -3 -24 5 4 7 2 12 -3 12 -6
0 -11 -4 -11 -10 0 -5 -4 -10 -9 -10 -6 0 -8 59 -2 66 5 6 137 -9 139 -16z
m129 -31 c25 -9 26 -11 10 -20 -9 -6 -27 -9 -40 -7 -17 2 -21 -1 -19 -17 3
-17 -1 -15 -22 9 -14 16 -23 33 -20 37 7 12 57 11 91 -2z m173 -24 c0 -8 -4
-15 -10 -15 -5 0 -10 7 -10 15 0 8 5 15 10 15 6 0 10 -7 10 -15z m-640 -45 c0
-5 -5 -10 -11 -10 -5 0 -7 5 -4 10 3 6 8 10 11 10 2 0 4 -4 4 -10z m-1403 -6
c-3 -3 -12 -4 -19 -1 -8 3 -5 6 6 6 11 1 17 -2 13 -5z m-1927 -19 c-7 -9 -15
-13 -19 -10 -3 3 1 10 9 15 21 14 24 12 10 -5z m4261 -68 c-10 -9 -11 -8 -5 6
3 10 9 15 12 12 3 -3 0 -11 -7 -18z m-2758 6 c-7 -2 -19 -2 -25 0 -7 3 -2 5
12 5 14 0 19 -2 13 -5z m-1513 -52 c0 -11 -39 -25 -47 -18 -3 3 -2 10 2 16 8
13 45 15 45 2z m3535 -29 c-3 -3 -11 0 -18 7 -9 10 -8 11 6 5 10 -3 15 -9 12
-12z m-3465 -12 c0 -5 -5 -10 -11 -10 -5 0 -7 5 -4 10 3 6 8 10 11 10 2 0 4
-4 4 -10z m120 -200 c0 -5 -4 -10 -9 -10 -6 0 -13 5 -16 10 -3 6 1 10 9 10 9
0 16 -4 16 -10z m-40 -40 c0 -5 -2 -10 -4 -10 -3 0 -8 5 -11 10 -3 6 -1 10 4
10 6 0 11 -4 11 -10z m-955 -87 c5 -18 3 -22 -9 -17 -20 8 -21 -12 -2 -48 12
-23 12 -29 0 -39 -12 -10 -12 -14 -2 -20 9 -6 9 -9 1 -9 -7 0 -10 -9 -8 -21 2
-11 -5 -35 -15 -54 -12 -21 -15 -37 -9 -40 11 -7 3 -25 -12 -25 -5 0 -9 6 -9
14 0 8 -9 18 -20 21 -11 4 -20 15 -20 27 0 30 43 182 52 186 4 2 8 11 8 21 0
21 21 44 31 34 4 -5 10 -18 14 -30z m1082 -130 c-3 -10 -5 -4 -5 12 0 17 2 24
5 18 2 -7 2 -21 0 -30z m29 -58 c-8 -21 -23 -19 -29 4 -3 13 1 21 12 23 19 4
25 -6 17 -27z m-726 5 c0 -5 -5 -10 -11 -10 -5 0 -7 5 -4 10 3 6 8 10 11 10 2
0 4 -4 4 -10z m779 -53 c-2 -2 -16 -9 -31 -16 -15 -8 -30 -22 -34 -33 -6 -19
-19 -24 -29 -9 -9 15 36 83 51 77 8 -3 14 -1 14 5 0 6 7 3 16 -6 9 -9 15 -17
13 -18z m1846 -44 c-11 -7 -22 -13 -27 -13 -14 0 -8 19 9 29 25 13 40 1 18
-16z m-1885 -113 c0 -13 -20 -13 -40 0 -12 8 -9 10 13 10 15 0 27 -4 27 -10z
m2577 -236 c-3 -3 -12 -4 -19 -1 -8 3 -5 6 6 6 11 1 17 -2 13 -5z m-2477 -28
c0 -2 -7 -7 -16 -10 -8 -3 -12 -2 -9 4 6 10 25 14 25 6z m-93 -22 c-3 -3 -12
-4 -19 -1 -8 3 -5 6 6 6 11 1 17 -2 13 -5z m107 -9 c-4 -8 -10 -12 -15 -9 -11
6 -2 24 11 24 5 0 7 -7 4 -15z m-1604 -31 c0 -9 5 -12 12 -8 24 15 98 12 107
-3 6 -11 25 -15 65 -14 31 0 61 3 66 6 13 8 13 -11 0 -35 -9 -17 -8 -19 7 -13
10 4 21 11 24 16 12 18 49 -29 52 -64 1 -19 10 -40 20 -48 10 -7 16 -20 12
-28 -3 -9 -1 -21 4 -27 15 -18 -19 -83 -46 -90 -15 -4 -23 -14 -23 -28 0 -21
0 -21 -25 2 -20 18 -28 21 -37 12 -18 -18 -27 -14 -21 8 3 12 0 20 -6 20 -7 0
-10 4 -6 9 3 5 1 12 -4 15 -5 4 -12 2 -16 -4 -9 -14 -35 -12 -35 3 0 14 -41
53 -52 49 -5 -1 -8 3 -8 9 0 5 -6 7 -12 3 -10 -6 -10 -4 0 7 19 20 15 26 -15
22 -33 -4 -59 10 -48 26 5 9 10 9 20 1 17 -14 38 -3 28 13 -4 7 -8 23 -8 37 0
26 -4 30 -32 29 -11 0 -13 -3 -5 -6 6 -2 12 -9 12 -14 0 -6 -6 -9 -12 -8 -7 1
-21 -1 -31 -6 -12 -5 -24 -1 -37 10 -11 10 -26 15 -35 12 -9 -4 -15 -1 -15 8
0 8 -8 15 -17 16 -10 0 -13 3 -6 5 7 3 9 12 6 20 -3 8 1 14 11 14 9 0 16 -8
16 -17 0 -14 3 -13 20 5 11 12 27 19 35 16 10 -4 15 0 15 15 0 12 5 21 10 21
6 0 10 -7 10 -16z m4950 -40 c0 -8 -4 -12 -10 -9 -5 3 -10 10 -10 16 0 5 5 9
10 9 6 0 10 -7 10 -16z m-3880 -4 c0 -5 -2 -10 -4 -10 -3 0 -8 5 -11 10 -3 6
-1 10 4 10 6 0 11 -4 11 -10z m1706 -37 c-11 -11 -17 4 -9 23 7 18 8 18 11 1
2 -10 1 -21 -2 -24z m-2796 -54 c0 -5 -12 -9 -26 -9 -22 0 -24 2 -14 14 12 15
40 11 40 -5z m1993 -40 c-6 -6 -7 3 -4 23 4 28 6 29 9 9 2 -13 0 -27 -5 -32z
m718 33 c-7 -2 -18 1 -23 6 -8 8 -4 9 13 5 13 -4 18 -8 10 -11z m-41 -14 c0
-6 -7 -7 -16 -4 -9 3 -18 6 -20 6 -3 0 -3 4 1 10 7 11 35 2 35 -12z m90 2 c0
-5 -2 -10 -4 -10 -3 0 -8 5 -11 10 -3 6 -1 10 4 10 6 0 11 -4 11 -10z m-2786
-15 c-4 -8 -8 -15 -10 -15 -2 0 -4 7 -4 15 0 8 4 15 10 15 5 0 7 -7 4 -15z
m1993 -1 c2 -7 -12 -13 -37 -16 -41 -4 -48 0 -30 18 13 13 62 12 67 -2z m671
-10 c20 -10 29 -10 40 -2 10 9 16 8 22 -3 7 -10 3 -16 -10 -21 -11 -4 -20 -12
-20 -18 0 -13 27 -13 35 0 6 10 65 14 65 4 0 -16 -28 -31 -43 -23 -11 6 -24 5
-38 -3 -17 -10 -23 -10 -26 0 -3 6 -14 12 -25 12 -14 0 -18 -5 -14 -15 7 -18
-26 -20 -72 -4 -34 12 -34 29 -1 29 10 0 19 4 19 8 0 5 10 8 23 7 34 -3 41 5
17 22 -16 11 -25 12 -33 4 -13 -13 -47 -15 -47 -3 0 15 8 18 45 19 20 1 48 -5
63 -13z m2077 -13 c-3 -6 -11 -11 -17 -11 -6 0 -6 6 2 15 14 17 26 13 15 -4z
m-2615 -11 c0 -5 -4 -10 -10 -10 -5 0 -10 5 -10 10 0 6 5 10 10 10 6 0 10 -4
10 -10z m-226 -15 c3 -8 1 -15 -3 -15 -5 0 -11 7 -15 15 -3 8 -1 15 3 15 5 0
11 -7 15 -15z m3356 -5 c-19 -13 -30 -13 -30 0 0 6 10 10 23 10 18 0 19 -2 7
-10z m50 0 c12 -7 12 -12 2 -22 -10 -10 -15 -10 -22 2 -19 29 -9 39 20 20z
m167 -27 c-3 -10 -5 -4 -5 12 0 17 2 24 5 18 2 -7 2 -21 0 -30z m-770 -15 c-3
-8 -6 -5 -6 6 -1 11 2 17 5 13 3 -3 4 -12 1 -19z m44 9 c-1 -12 -15 -9 -19 4
-3 6 1 10 8 8 6 -3 11 -8 11 -12z m-2861 -7 c0 -5 -4 -10 -10 -10 -5 0 -10 5
-10 10 0 6 5 10 10 10 6 0 10 -4 10 -10z m280 0 c0 -5 -5 -10 -11 -10 -5 0 -7
5 -4 10 3 6 8 10 11 10 2 0 4 -4 4 -10z m3170 -6 c0 -9 -5 -14 -12 -12 -18 6
-21 28 -4 28 9 0 16 -7 16 -16z m-2830 -4 c18 0 29 -6 32 -18 6 -21 -14 -42
-38 -42 -16 0 -16 2 1 20 18 20 17 20 -18 20 -27 0 -37 4 -37 16 0 11 5 14 16
10 9 -3 28 -6 44 -6z m84 -21 c-3 -5 -10 -7 -15 -3 -5 3 -7 10 -3 15 3 5 10 7
15 3 5 -3 7 -10 3 -15z m136 11 c0 -5 -8 -10 -17 -10 -15 0 -16 2 -3 10 19 12
20 12 20 0z m-50 -10 c13 -8 13 -10 -2 -10 -9 0 -20 5 -23 10 -8 13 5 13 25 0z
m-540 -4 c0 -2 -7 -7 -16 -10 -8 -3 -12 -2 -9 4 6 10 25 14 25 6z m80 -12 c0
-2 -9 -4 -21 -4 -11 0 -18 4 -14 10 5 8 35 3 35 -6z m2661 4 c9 -2 31 -16 48
-31 27 -22 29 -27 13 -27 -11 0 -25 7 -32 14 -8 11 -18 12 -36 6 -13 -5 -24
-7 -24 -4 0 3 -5 2 -11 -1 -6 -4 9 -17 34 -29 24 -13 54 -33 67 -46 23 -23 24
-23 30 -4 5 14 2 20 -11 22 -25 4 -24 18 1 25 11 3 18 2 15 -3 -3 -4 2 -13 10
-20 17 -14 20 -37 4 -42 -14 -5 0 -38 16 -38 7 0 15 -7 19 -15 3 -8 13 -15 22
-15 10 0 14 -5 10 -15 -4 -11 1 -15 17 -15 12 0 17 -3 11 -8 -13 -9 -26 -42
-16 -42 5 0 13 5 20 12 14 14 42 -6 42 -31 -1 -14 -3 -13 -15 3 -18 24 -39 12
-25 -15 6 -10 8 -19 4 -19 -3 0 -1 -6 5 -14 24 -28 -6 -24 -31 5 -15 16 -24
29 -21 29 3 0 -6 9 -21 21 -14 11 -26 27 -26 35 0 8 -5 14 -11 14 -7 0 -9 -10
-5 -25 4 -14 4 -25 1 -25 -8 0 -69 44 -73 53 -2 4 -10 7 -18 7 -9 0 -13 4 -10
9 3 5 0 11 -7 14 -8 3 -13 -3 -13 -14 0 -11 7 -19 16 -19 12 -1 10 -4 -5 -16
-17 -12 -18 -16 -5 -24 8 -5 11 -12 8 -16 -4 -3 -1 -13 7 -21 8 -8 15 -21 15
-29 0 -27 -20 -14 -38 24 -9 20 -20 39 -23 42 -4 3 -8 14 -10 25 -3 12 -14 21
-29 23 -20 3 -23 1 -12 -9 17 -18 15 -34 -3 -19 -8 7 -15 20 -15 30 0 9 -9 25
-19 34 -24 22 -36 60 -16 52 30 -11 25 70 -5 89 -5 3 -7 11 -4 17 4 6 -1 8
-15 3 -27 -8 -25 12 3 36 15 12 36 16 85 13 36 -2 73 -5 82 -6z m534 2 c3 -5
-1 -10 -9 -10 -9 0 -16 5 -16 10 0 6 4 10 9 10 6 0 13 -4 16 -10z m-5165 -10
c0 -5 -5 -10 -11 -10 -5 0 -7 5 -4 10 3 6 8 10 11 10 2 0 4 -4 4 -10z m2226
-18 c-3 -5 -17 -12 -31 -14 -33 -7 -28 14 6 23 27 7 34 4 25 -9z m2929 -22
c-3 -5 -11 -10 -16 -10 -6 0 -7 5 -4 10 3 6 11 10 16 10 6 0 7 -4 4 -10z
m-2955 -44 c0 -3 -4 -8 -10 -11 -5 -3 -10 -1 -10 4 0 6 5 11 10 11 6 0 10 -2
10 -4z m1024 -22 c4 -10 1 -14 -6 -12 -15 5 -23 28 -10 28 5 0 13 -7 16 -16z
m-1089 -4 c3 -5 1 -10 -4 -10 -6 0 -11 5 -11 10 0 6 2 10 4 10 3 0 8 -4 11
-10z m2345 -6 c0 -17 -22 -14 -28 4 -2 7 3 12 12 12 9 0 16 -7 16 -16z m-2285
-33 c10 -17 -27 -30 -50 -19 -19 11 -19 11 0 19 28 11 43 11 50 0z m970 -21
c-3 -5 -10 -10 -16 -10 -5 0 -9 5 -9 10 0 6 7 10 16 10 8 0 12 -4 9 -10z
m-3032 -22 c-6 -7 -13 -20 -16 -28 -3 -9 -6 -3 -6 13 -1 19 4 27 15 27 12 0
14 -4 7 -12z m1967 8 c0 -3 -4 -8 -10 -11 -5 -3 -10 -1 -10 4 0 6 5 11 10 11
6 0 10 -2 10 -4z m-63 -22 c-3 -3 -12 -4 -19 -1 -8 3 -5 6 6 6 11 1 17 -2 13
-5z m53 -20 c0 -2 -7 -4 -15 -4 -8 0 -15 4 -15 10 0 5 7 7 15 4 8 -4 15 -8 15
-10z m302 -2 c-10 -3 -10 -7 -1 -18 8 -10 8 -14 1 -14 -10 0 -32 30 -32 43 0
3 10 3 22 -1 13 -3 17 -7 10 -10z m752 3 c3 -9 0 -15 -9 -15 -9 0 -12 6 -9 15
4 8 7 15 9 15 2 0 5 -7 9 -15z m-257 -11 c-3 -3 -12 -4 -19 -1 -8 3 -5 6 6 6
11 1 17 -2 13 -5z m-556 -47 c-8 -8 -11 -7 -11 4 0 20 13 34 18 19 3 -7 -1
-17 -7 -23z m2374 -19 c20 -15 30 -18 33 -10 2 7 8 9 14 6 6 -4 5 -10 -3 -16
-11 -7 -11 -11 -1 -15 14 -5 16 -23 3 -23 -5 0 -29 18 -52 40 -46 42 -41 55 6
18z m-4555 -66 c0 -15 -2 -15 -10 -2 -13 20 -13 33 0 25 6 -3 10 -14 10 -23z
m4550 4 c0 -3 -4 -8 -10 -11 -5 -3 -10 -1 -10 4 0 6 5 11 10 11 6 0 10 -2 10
-4z m180 -68 c0 -12 -24 -10 -37 3 -6 6 -9 18 -6 26 5 11 9 11 24 -3 11 -9 19
-21 19 -26z m-3060 -2 c0 -11 -19 -15 -25 -6 -3 5 1 10 9 10 9 0 16 -2 16 -4z
m80 -30 c0 -3 -4 -8 -10 -11 -5 -3 -10 -1 -10 4 0 6 5 11 10 11 6 0 10 -2 10
-4z m3340 -10 c0 -8 -4 -18 -10 -21 -5 -3 -10 3 -10 14 0 12 5 21 10 21 6 0
10 -6 10 -14z m-300 -27 c0 -5 -4 -9 -10 -9 -5 0 -10 7 -10 16 0 8 5 12 10 9
6 -3 10 -10 10 -16z m-2993 -91 c-3 -7 -5 -2 -5 12 0 14 2 19 5 13 2 -7 2 -19
0 -25z m56 18 c5 -14 -10 -36 -25 -36 -4 0 -8 8 -8 18 0 31 23 44 33 18z
m-383 -14 c0 -5 -7 -9 -15 -9 -8 0 -15 4 -15 9 0 4 7 8 15 8 8 0 15 -4 15 -8z
m3255 -42 c3 -5 1 -10 -4 -10 -6 0 -11 5 -11 10 0 6 2 10 4 10 3 0 8 -4 11
-10z m-2835 -30 c0 -5 -5 -10 -11 -10 -5 0 -7 5 -4 10 3 6 8 10 11 10 2 0 4
-4 4 -10z m-123 -46 c-3 -3 -12 -4 -19 -1 -8 3 -5 6 6 6 11 1 17 -2 13 -5z
m38 -14 c-3 -5 -10 -10 -16 -10 -5 0 -9 5 -9 10 0 6 7 10 16 10 8 0 12 -4 9
-10z m3265 0 c0 -5 -4 -10 -10 -10 -5 0 -10 5 -10 10 0 6 5 10 10 10 6 0 10
-4 10 -10z m-3270 -55 c0 -8 -4 -15 -10 -15 -5 0 -7 7 -4 15 4 8 8 15 10 15 2
0 4 -7 4 -15z m-10 -55 c0 -5 -5 -10 -11 -10 -5 0 -7 5 -4 10 3 6 8 10 11 10
2 0 4 -4 4 -10z m1445 -89 c3 -5 1 -12 -4 -15 -8 -6 -25 -64 -22 -79 1 -5 -3
-6 -9 -2 -5 3 -10 0 -11 -7 0 -10 -2 -10 -6 0 -2 6 -18 12 -34 12 -16 0 -29 5
-29 11 0 6 7 9 15 5 8 -3 15 -1 15 3 0 5 9 7 20 4 13 -4 20 0 20 9 0 19 23 68
32 68 4 0 9 -4 13 -9z m225 -1 c0 -5 -6 -10 -14 -10 -25 0 -10 -34 17 -41 15
-4 25 -4 23 0 -3 4 -1 13 3 20 6 9 26 11 80 5 40 -4 68 -10 62 -14 -7 -4 -2
-12 14 -20 14 -7 25 -17 25 -22 0 -5 5 -6 10 -3 8 5 7 11 0 20 -12 14 -6 35 9
35 16 0 40 -48 34 -69 -3 -11 -9 -18 -14 -16 -4 3 -17 -3 -29 -15 -12 -12 -33
-20 -54 -20 -19 0 -38 -4 -41 -10 -3 -5 -13 -10 -22 -10 -9 0 -13 3 -10 7 13
13 -14 33 -32 23 -15 -7 -151 -12 -151 -4 0 1 7 10 16 19 9 9 13 23 9 33 -6
16 -7 16 -19 -1 -21 -27 -99 -20 -114 11 -9 19 -8 24 6 30 9 4 17 13 17 21 0
8 6 16 13 19 7 2 12 -5 12 -17 0 -12 5 -21 10 -21 6 0 10 -8 10 -17 0 -15 2
-14 14 2 12 17 12 21 -2 31 -14 10 -11 13 23 18 32 5 71 16 93 25 1 1 2 -3 2
-9z m-339 -55 c-1 -15 -24 -12 -29 3 -3 9 2 13 12 10 10 -1 17 -7 17 -13z
m129 -59 c0 -5 -7 -3 -15 4 -8 7 -12 17 -9 22 7 10 24 -9 24 -26z m520 14 c0
-11 -4 -20 -9 -20 -5 0 -7 9 -4 20 3 11 7 20 9 20 2 0 4 -9 4 -20z m-1490
-130 c12 -8 9 -10 -13 -10 -16 0 -26 4 -22 10 8 12 16 12 35 0z m2416 -37 c-8
-8 -12 -3 -21 27 l-7 25 17 -23 c9 -13 14 -26 11 -29z m-2266 27 c0 -5 -21 -9
-47 -9 l-48 2 40 7 c22 4 43 8 48 9 4 0 7 -3 7 -9z m1900 -46 c0 -2 -9 0 -20
6 -11 6 -20 13 -20 16 0 2 9 0 20 -6 11 -6 20 -13 20 -16z m-115 -62 c-3 -3
-8 4 -12 16 -3 12 -9 19 -14 16 -11 -6 -12 10 -2 20 4 4 13 -5 21 -20 7 -14
11 -29 7 -32z m-1305 29 c-11 -21 -30 -37 -30 -25 0 8 30 44 37 44 2 0 -1 -9
-7 -19z m250 -39 c0 -10 -7 -27 -15 -38 -15 -18 -15 -18 -12 6 4 41 27 68 27
32z m-975 -12 c-3 -5 -10 -10 -16 -10 -5 0 -9 5 -9 10 0 6 7 10 16 10 8 0 12
-4 9 -10z m872 -32 c-3 -8 -6 -5 -6 6 -1 11 2 17 5 13 3 -3 4 -12 1 -19z m203
13 c0 -6 -4 -13 -10 -16 -5 -3 -10 1 -10 9 0 9 5 16 10 16 6 0 10 -4 10 -9z
m-250 -15 c0 -3 -4 -8 -10 -11 -5 -3 -10 -1 -10 4 0 6 5 11 10 11 6 0 10 -2
10 -4z m1220 -22 c0 -8 -4 -12 -10 -9 -5 3 -10 10 -10 16 0 5 5 9 10 9 6 0 10
-7 10 -16z m113 -41 c-7 -2 -19 -2 -25 0 -7 3 -2 5 12 5 14 0 19 -2 13 -5z
m637 -28 c0 -8 -4 -15 -10 -15 -5 0 -10 7 -10 15 0 8 5 15 10 15 6 0 10 -7 10
-15z m-30 -45 c0 -11 -4 -20 -10 -20 -5 0 -10 9 -10 20 0 11 5 20 10 20 6 0
10 -9 10 -20z m-40 -25 c0 -8 -6 -15 -14 -15 -20 0 -29 17 -14 23 22 9 28 7
28 -8z m-730 -45 c0 -5 -5 -10 -11 -10 -5 0 -7 5 -4 10 3 6 8 10 11 10 2 0 4
-4 4 -10z m-43 -175 c9 -25 -2 -27 -22 -5 -17 18 -17 20 -1 20 9 0 19 -7 23
-15z m603 -15 c0 -5 -4 -10 -10 -10 -5 0 -10 5 -10 10 0 6 5 10 10 10 6 0 10
-4 10 -10z m-852 -49 c3 -8 -1 -12 -9 -9 -7 2 -15 10 -17 17 -3 8 1 12 9 9 7
-2 15 -10 17 -17z m-658 -36 c0 -9 10 -20 23 -25 15 -6 17 -9 6 -9 -19 -1 -33
-51 -18 -65 14 -15 11 -33 -8 -40 -24 -9 -32 11 -26 63 3 25 5 56 5 69 0 12 4
22 9 22 5 0 9 -7 9 -15z m350 -5 c0 -11 -2 -20 -4 -20 -2 0 -6 9 -9 20 -3 11
-1 20 4 20 5 0 9 -9 9 -20z m1100 10 c0 -5 -4 -10 -10 -10 -5 0 -10 5 -10 10
0 6 5 10 10 10 6 0 10 -4 10 -10z m-1285 -19 c-3 -11 -1 -22 5 -26 12 -7 -11
-35 -29 -35 -15 0 -14 11 5 48 17 35 29 43 19 13z m-242 -18 c-6 -2 -8 -14 -5
-26 5 -19 4 -20 -11 -9 -15 13 -15 16 0 39 12 17 19 21 22 12 2 -7 -1 -15 -6
-16z m-408 -9 c-16 -25 -16 -26 3 -20 14 5 21 1 25 -14 7 -26 27 -26 27 0 0
11 5 20 10 20 6 0 10 7 10 16 0 8 5 12 10 9 6 -3 10 -20 10 -36 0 -17 -4 -28
-9 -25 -5 3 -11 -3 -14 -14 -5 -20 -27 -28 -27 -10 0 6 -5 10 -11 10 -6 0 -9
-7 -5 -15 3 -8 -4 -24 -16 -35 -25 -23 -38 -26 -38 -7 0 8 -11 20 -25 27 -25
13 -33 30 -15 30 6 0 10 11 10 24 0 24 22 51 33 39 4 -3 9 2 13 11 3 9 11 16
16 16 6 0 3 -12 -7 -26z m755 5 c0 -14 -17 -10 -23 5 -4 10 -1 13 9 9 7 -3 14
-9 14 -14z m130 2 c14 -27 13 -31 -7 -24 -21 8 -34 24 -27 35 9 14 23 9 34
-11z m310 5 c0 -2 -7 -6 -15 -10 -8 -3 -15 -1 -15 4 0 6 7 10 15 10 8 0 15 -2
15 -4z m-1300 -21 c0 -8 -4 -15 -10 -15 -5 0 -10 7 -10 15 0 8 5 15 10 15 6 0
10 -7 10 -15z m937 -11 c3 -8 1 -20 -5 -26 -8 -8 -8 -17 -1 -30 13 -24 4 -23
-21 2 -16 16 -18 25 -10 45 11 28 28 33 37 9z m371 -13 c3 -38 -12 -47 -32
-19 -11 16 -13 25 -4 35 18 22 34 15 36 -16z m678 -8 c-11 -11 -19 6 -11 24 8
17 8 17 12 0 3 -10 2 -21 -1 -24z m-1356 23 c0 -3 -4 -8 -10 -11 -5 -3 -10 -1
-10 4 0 6 5 11 10 11 6 0 10 -2 10 -4z m150 -21 c0 -8 -4 -15 -10 -15 -5 0
-10 7 -10 15 0 8 5 15 10 15 6 0 10 -7 10 -15z m-40 -20 c0 -8 -4 -15 -10 -15
-5 0 -10 7 -10 15 0 8 5 15 10 15 6 0 10 -7 10 -15z m120 -5 c0 -5 -2 -10 -4
-10 -3 0 -8 5 -11 10 -3 6 -1 10 4 10 6 0 11 -4 11 -10z m-450 -35 c0 -16 -28
-40 -37 -31 -4 4 -2 16 5 27 7 11 9 25 5 32 -4 7 0 7 10 -2 9 -7 17 -19 17
-26z m370 -6 c0 -24 -4 -38 -10 -34 -17 10 -11 75 7 75 2 0 3 -18 3 -41z m210
21 c0 -5 -4 -10 -10 -10 -5 0 -10 5 -10 10 0 6 5 10 10 10 6 0 10 -4 10 -10z
m-1067 -45 c-6 -16 -16 -19 -26 -8 -9 8 13 34 24 28 4 -3 6 -12 2 -20z m965 3
c-6 -18 -25 -20 -31 -3 -5 10 0 15 14 15 12 0 19 -5 17 -12z m-448 -14 c0 -8
-5 -12 -10 -9 -6 4 -8 11 -5 16 9 14 15 11 15 -7z m-276 -9 c-4 -8 -10 -15
-15 -15 -5 0 -9 7 -9 15 0 8 7 15 15 15 9 0 12 -6 9 -15z m430 0 c-4 -8 -1
-15 6 -15 6 0 8 -4 5 -10 -3 -5 -10 -10 -15 -10 -11 0 -21 30 -14 41 9 15 24
10 18 -6z m-516 -47 c-10 -28 -12 -29 -18 -12 -6 15 10 41 27 44 1 0 -3 -14
-9 -32z m1772 -20 c0 -9 4 -8 10 2 8 13 10 12 10 -2 0 -20 -1 -21 -24 -12 -18
7 -22 24 -6 24 6 0 10 -6 10 -12z m-445 -1768 c3 -5 1 -10 -4 -10 -6 0 -11 5
-11 10 0 6 2 10 4 10 3 0 8 -4 11 -10z"/>
<path d="M5980 5730 c0 -5 5 -10 10 -10 6 0 10 5 10 10 0 6 -4 10 -10 10 -5 0
-10 -4 -10 -10z"/>
<path d="M2980 4230 c0 -5 5 -10 11 -10 5 0 7 5 4 10 -3 6 -8 10 -11 10 -2 0
-4 -4 -4 -10z"/>
<path d="M2877 4199 c7 -7 15 -10 18 -7 3 3 -2 9 -12 12 -14 6 -15 5 -6 -5z"/>
<path d="M6468 10723 c6 -2 18 -2 25 0 6 3 1 5 -13 5 -14 0 -19 -2 -12 -5z"/>
<path d="M4500 10390 c-8 -5 -10 -10 -5 -10 6 0 17 5 25 10 8 5 11 10 5 10 -5
0 -17 -5 -25 -10z"/>
<path d="M7930 9929 c0 -3 5 -20 11 -38 11 -32 29 -42 29 -17 0 13 -39 67 -40
55z"/>
<path d="M8101 9804 c0 -11 3 -14 6 -6 3 7 2 16 -1 19 -3 4 -6 -2 -5 -13z"/>
<path d="M8140 9746 c0 -9 5 -16 10 -16 6 0 10 4 10 9 0 6 -4 13 -10 16 -5 3
-10 -1 -10 -9z"/>
<path d="M5988 9053 c7 -3 16 -2 19 1 4 3 -2 6 -13 5 -11 0 -14 -3 -6 -6z"/>
<path d="M7015 9030 c-4 -6 3 -10 14 -10 25 0 27 6 6 13 -8 4 -17 2 -20 -3z"/>
<path d="M7140 9010 c-9 -6 -10 -10 -3 -10 6 0 15 5 18 10 8 12 4 12 -15 0z"/>
<path d="M5295 8940 c-2 -3 0 -12 4 -19 6 -9 11 -10 15 -3 4 6 15 9 26 7 10
-2 24 3 31 11 10 12 5 14 -30 12 -23 -1 -44 -4 -46 -8z"/>
<path d="M8643 8703 c9 -2 17 -9 17 -14 0 -6 5 -7 11 -3 14 8 -8 24 -31 23
-11 -1 -10 -3 3 -6z"/>
<path d="M8608 8543 c7 -3 16 -2 19 1 4 3 -2 6 -13 5 -11 0 -14 -3 -6 -6z"/>
<path d="M8645 8540 c3 -5 8 -10 11 -10 2 0 4 5 4 10 0 6 -5 10 -11 10 -5 0
-7 -4 -4 -10z"/>
<path d="M4440 8489 c0 -5 5 -7 10 -4 6 3 10 8 10 11 0 2 -4 4 -10 4 -5 0 -10
-5 -10 -11z"/>
<path d="M4560 8470 c0 -5 5 -10 10 -10 6 0 10 5 10 10 0 6 -4 10 -10 10 -5 0
-10 -4 -10 -10z"/>
<path d="M4398 8451 c-13 -15 -14 -21 -3 -24 7 -3 17 5 24 19 13 29 2 31 -21
5z"/>
<path d="M4640 8431 c0 -6 5 -13 10 -16 6 -3 10 1 10 9 0 9 -4 16 -10 16 -5 0
-10 -4 -10 -9z"/>
<path d="M4577 8393 c-5 -9 10 -53 18 -53 3 0 5 14 5 30 0 28 -13 40 -23 23z"/>
<path d="M4551 8311 c-8 -6 -9 -11 -3 -15 6 -3 14 -1 17 5 9 14 2 20 -14 10z"/>
<path d="M8910 8031 c0 -6 4 -13 10 -16 6 -3 7 1 4 9 -7 18 -14 21 -14 7z"/>
<path d="M4308 7733 c17 -31 15 -42 -8 -36 -25 7 -28 -22 -4 -31 9 -4 18 -5
18 -4 9 15 26 61 24 62 -2 1 -12 8 -22 16 -18 14 -19 14 -8 -7z"/>
<path d="M4270 7650 c0 -5 5 -10 10 -10 6 0 10 5 10 10 0 6 -4 10 -10 10 -5 0
-10 -4 -10 -10z"/>
<path d="M4330 7610 c0 -5 7 -10 15 -10 8 0 15 5 15 10 0 6 -7 10 -15 10 -8 0
-15 -4 -15 -10z"/>
<path d="M4740 7570 c0 -5 5 -10 10 -10 6 0 10 5 10 10 0 6 -4 10 -10 10 -5 0
-10 -4 -10 -10z"/>
<path d="M4270 7491 c0 -6 5 -13 10 -16 6 -3 10 1 10 9 0 9 -4 16 -10 16 -5 0
-10 -4 -10 -9z"/>
<path d="M4307 7474 c-4 -4 -7 -18 -7 -31 0 -12 -6 -23 -12 -23 -7 0 -5 -5 5
-11 19 -11 14 -31 -6 -24 -16 6 -41 -10 -34 -22 6 -9 75 -9 84 1 3 3 1 12 -6
20 -9 11 -8 15 3 19 18 7 14 71 -6 75 -8 1 -17 0 -21 -4z"/>
<path d="M4467 7211 c-4 -17 -3 -21 5 -13 5 5 8 16 6 23 -3 8 -7 3 -11 -10z"/>
<path d="M4480 7182 c0 -5 7 -13 16 -16 10 -4 14 -1 12 6 -5 15 -28 23 -28 10z"/>
<path d="M4440 7166 c0 -8 5 -18 10 -21 6 -3 10 3 10 14 0 12 -4 21 -10 21 -5
0 -10 -6 -10 -14z"/>
<path d="M4477 6961 c-5 -22 1 -33 14 -25 12 7 12 44 0 44 -5 0 -11 -9 -14
-19z"/>
<path d="M4511 6924 c0 -11 3 -14 6 -6 3 7 2 16 -1 19 -3 4 -6 -2 -5 -13z"/>
<path d="M5165 6750 c-3 -5 -1 -10 4 -10 6 0 11 5 11 10 0 6 -2 10 -4 10 -3 0
-8 -4 -11 -10z"/>
<path d="M5435 6700 c-3 -5 -1 -10 4 -10 6 0 11 5 11 10 0 6 -2 10 -4 10 -3 0
-8 -4 -11 -10z"/>
<path d="M6507 6594 c-16 -13 -25 -29 -22 -34 3 -6 0 -10 -7 -10 -9 0 -9 -3 2
-10 8 -5 18 -10 21 -10 6 0 42 80 38 85 -2 2 -17 -8 -32 -21z"/>
<path d="M4660 6580 c0 -5 5 -10 10 -10 6 0 10 5 10 10 0 6 -4 10 -10 10 -5 0
-10 -4 -10 -10z"/>
<path d="M7220 6501 c0 -12 23 -31 37 -31 24 0 13 28 -12 32 -14 3 -25 2 -25
-1z"/>
<path d="M7480 6470 c0 -5 5 -10 11 -10 5 0 7 5 4 10 -3 6 -8 10 -11 10 -2 0
-4 -4 -4 -10z"/>
<path d="M7170 6455 c0 -8 8 -15 18 -14 10 0 12 3 4 6 -6 2 -10 9 -6 14 3 5 0
9 -5 9 -6 0 -11 -7 -11 -15z"/>
<path d="M7220 6445 c0 -8 5 -15 10 -15 6 0 10 7 10 15 0 8 -4 15 -10 15 -5 0
-10 -7 -10 -15z"/>
<path d="M8492 6438 c5 -15 28 -23 28 -10 0 5 -7 13 -16 16 -10 4 -14 1 -12
-6z"/>
<path d="M7196 6385 c8 -37 14 -45 14 -19 0 10 -5 26 -10 34 -8 11 -9 7 -4
-15z"/>
<path d="M6790 6270 c0 -5 7 -10 16 -10 8 0 12 5 9 10 -3 6 -10 10 -16 10 -5
0 -9 -4 -9 -10z"/>
<path d="M7150 6170 c-13 -8 -12 -10 3 -10 9 0 17 5 17 10 0 12 -1 12 -20 0z"/>
<path d="M4072 6029 c18 -12 46 -11 53 1 3 5 -9 9 -30 8 -23 -1 -31 -4 -23 -9z"/>
<path d="M4020 6010 c0 -5 7 -10 15 -10 8 0 15 5 15 10 0 6 -7 10 -15 10 -8 0
-15 -4 -15 -10z"/>
<path d="M4000 5974 c0 -8 5 -12 10 -9 6 4 8 11 5 16 -9 14 -15 11 -15 -7z"/>
<path d="M4118 5944 c12 -8 28 -13 35 -11 7 3 5 6 -5 6 -10 1 -18 6 -18 11 0
6 -8 10 -17 10 -14 0 -13 -3 5 -16z"/>
<path d="M4076 5935 c4 -8 12 -15 20 -15 20 0 17 7 -6 20 -16 9 -18 8 -14 -5z"/>
<path d="M4185 5870 c3 -5 8 -10 11 -10 2 0 4 5 4 10 0 6 -5 10 -11 10 -5 0
-7 -4 -4 -10z"/>
<path d="M8686 5822 c-3 -5 1 -9 9 -9 8 0 12 4 9 9 -3 4 -7 8 -9 8 -2 0 -6 -4
-9 -8z"/>
<path d="M4120 5706 c0 -15 37 -32 47 -22 9 8 -17 36 -33 36 -8 0 -14 -6 -14
-14z"/>
<path d="M4200 5680 c0 -5 5 -10 10 -10 6 0 10 5 10 10 0 6 -4 10 -10 10 -5 0
-10 -4 -10 -10z"/>
<path d="M4090 5671 c0 -10 30 -24 37 -17 3 3 2 9 -2 15 -8 13 -35 15 -35 2z"/>
<path d="M4280 5670 l-25 -7 27 -8 c29 -7 66 1 54 12 -10 10 -27 11 -56 3z"/>
<path d="M4160 5651 c6 -12 8 -26 5 -31 -3 -5 -1 -11 5 -15 5 -3 10 -2 10 4 0
5 3 16 6 24 3 10 -3 20 -16 27 -20 11 -21 10 -10 -9z"/>
<path d="M4120 5565 c-10 -12 -10 -15 4 -15 9 0 16 7 16 15 0 8 -2 15 -4 15
-2 0 -9 -7 -16 -15z"/>
<path d="M7250 5555 c0 -16 16 -20 24 -6 3 5 -1 11 -9 15 -9 3 -15 0 -15 -9z"/>
<path d="M2641 5544 c0 -11 3 -14 6 -6 3 7 2 16 -1 19 -3 4 -6 -2 -5 -13z"/>
<path d="M6160 5505 c-8 -9 -9 -15 -2 -15 6 0 14 5 17 10 4 6 16 8 27 4 14 -4
18 -2 14 5 -10 16 -41 14 -56 -4z"/>
<path d="M5887 5454 c-8 -8 1 -24 14 -24 5 0 9 7 9 15 0 15 -12 20 -23 9z"/>
<path d="M2604 5305 c0 -71 1 -99 3 -62 2 37 2 96 0 130 -2 34 -3 4 -3 -68z"/>
<path d="M7385 5420 c-3 -5 1 -10 9 -10 9 0 16 5 16 10 0 6 -4 10 -9 10 -6 0
-13 -4 -16 -10z"/>
<path d="M4165 5410 c-7 -12 2 -30 16 -30 12 0 12 27 0 35 -5 3 -12 1 -16 -5z"/>
<path d="M8677 5403 c-8 -14 -5 -63 4 -69 5 -3 9 13 9 35 0 40 -4 49 -13 34z"/>
<path d="M4220 5390 c12 -7 13 -13 4 -27 -9 -14 -8 -21 2 -31 12 -11 16 -8 24
14 12 30 -1 54 -29 54 -14 0 -14 -2 -1 -10z"/>
<path d="M7292 5320 c0 -14 2 -19 5 -12 2 6 2 18 0 25 -3 6 -5 1 -5 -13z"/>
<path d="M7470 5320 c-8 -5 -12 -12 -9 -15 4 -3 12 1 19 10 14 17 11 19 -10 5z"/>
<path d="M8670 5270 c0 -5 5 -10 11 -10 5 0 7 5 4 10 -3 6 -8 10 -11 10 -2 0
-4 -4 -4 -10z"/>
<path d="M7544 5245 c30 -16 43 -14 31 4 -3 6 -18 11 -33 11 l-27 0 29 -15z"/>
<path d="M7320 5240 c0 -5 5 -10 11 -10 5 0 7 5 4 10 -3 6 -8 10 -11 10 -2 0
-4 -4 -4 -10z"/>
<path d="M4370 5168 c0 -4 7 -8 15 -8 8 0 15 4 15 8 0 5 -7 9 -15 9 -8 0 -15
-4 -15 -9z"/>
<path d="M2682 5023 c2 -4 -3 -27 -11 -50 -14 -43 -10 -73 10 -73 6 0 9 7 6
15 -4 8 -2 17 3 20 12 7 10 84 -2 91 -5 3 -7 2 -6 -3z"/>
<path d="M4476 4951 c-7 -10 22 -51 36 -51 14 0 9 20 -11 41 -11 12 -21 16
-25 10z"/>
<path d="M4435 4910 c-3 -5 -1 -10 4 -10 6 0 11 5 11 10 0 6 -2 10 -4 10 -3 0
-8 -4 -11 -10z"/>
<path d="M2880 4848 c11 -12 22 -19 25 -16 7 7 -23 38 -36 38 -5 0 -1 -10 11
-22z"/>
<path d="M2651 4808 c-1 -43 14 -60 21 -23 3 14 2 25 -3 25 -4 0 -10 8 -12 18
-3 9 -5 0 -6 -20z"/>
<path d="M6660 4819 c0 -11 5 -17 10 -14 6 3 10 13 10 21 0 8 -4 14 -10 14 -5
0 -10 -9 -10 -21z"/>
<path d="M6560 4775 c0 -8 2 -15 4 -15 2 0 6 7 10 15 3 8 1 15 -4 15 -6 0 -10
-7 -10 -15z"/>
<path d="M2638 4708 c5 -61 -9 -88 -33 -68 -8 6 -9 -2 -6 -28 4 -30 6 -32 9
-12 l4 24 14 -24 14 -25 -6 30 c-4 23 -3 26 5 15 6 -8 11 -31 11 -50 0 -23 -3
-30 -9 -21 -5 7 -11 9 -14 4 -4 -6 0 -19 7 -29 13 -17 15 -16 21 21 3 22 12
51 18 64 9 19 9 25 0 28 -9 3 -9 12 -2 29 13 35 11 47 -5 41 -10 -4 -12 0 -9
13 3 11 -1 26 -9 33 -12 13 -13 6 -10 -45z"/>
<path d="M6610 4750 c0 -5 7 -10 15 -10 8 0 15 5 15 10 0 6 -7 10 -15 10 -8 0
-15 -4 -15 -10z"/>
<path d="M7511 4744 c0 -11 3 -14 6 -6 3 7 2 16 -1 19 -3 4 -6 -2 -5 -13z"/>
<path d="M3080 4740 c0 -5 5 -10 10 -10 6 0 10 5 10 10 0 6 -4 10 -10 10 -5 0
-10 -4 -10 -10z"/>
<path d="M6663 4712 c-11 -15 -13 -15 -22 -2 -8 11 -15 12 -28 4 -20 -13 -27
-98 -7 -90 6 2 16 0 21 -5 13 -13 34 12 50 60 13 39 5 61 -14 33z"/>
<path d="M7520 4690 c0 -19 3 -21 12 -12 9 9 9 15 0 24 -9 9 -12 7 -12 -12z"/>
<path d="M4465 4681 c-3 -5 -1 -12 5 -16 5 -3 10 1 10 9 0 18 -6 21 -15 7z"/>
<path d="M7540 4654 c0 -8 5 -12 10 -9 6 4 8 11 5 16 -9 14 -15 11 -15 -7z"/>
<path d="M7550 4610 c0 -5 7 -10 16 -10 8 0 12 5 9 10 -3 6 -10 10 -16 10 -5
0 -9 -4 -9 -10z"/>
<path d="M6628 4593 c7 -3 16 -2 19 1 4 3 -2 6 -13 5 -11 0 -14 -3 -6 -6z"/>
<path d="M2685 4570 c-3 -5 1 -10 9 -10 9 0 16 5 16 10 0 6 -4 10 -9 10 -6 0
-13 -4 -16 -10z"/>
<path d="M6106 4505 c-3 -9 0 -15 9 -15 8 0 15 7 15 15 0 8 -4 15 -9 15 -5 0
-11 -7 -15 -15z"/>
<path d="M7175 4469 c-5 -14 -3 -25 4 -27 6 -2 11 -10 11 -18 0 -8 9 -14 20
-14 11 0 20 -4 20 -8 0 -5 11 -14 25 -20 23 -10 25 -9 26 11 1 31 6 58 13 65
3 3 6 0 6 -6 0 -7 5 -12 10 -12 16 0 11 17 -7 24 -9 4 -20 2 -23 -5 -6 -8 -13
-8 -29 0 -12 7 -27 9 -33 5 -6 -4 -17 1 -24 10 -11 16 -13 16 -19 -5z m62 -25
c-3 -3 -12 -4 -19 -1 -8 3 -5 6 6 6 11 1 17 -2 13 -5z"/>
<path d="M4452 4468 c3 -7 13 -15 22 -16 12 -3 17 1 14 10 -3 7 -13 15 -22 16
-12 3 -17 -1 -14 -10z"/>
<path d="M2660 4449 c0 -23 7 -24 25 -5 12 12 11 15 -5 19 -15 4 -20 0 -20
-14z"/>
<path d="M2636 4445 c4 -8 8 -15 10 -15 2 0 4 7 4 15 0 8 -4 15 -10 15 -5 0
-7 -7 -4 -15z"/>
<path d="M6080 4450 c0 -5 5 -10 10 -10 6 0 10 5 10 10 0 6 -4 10 -10 10 -5 0
-10 -4 -10 -10z"/>
<path d="M8470 4449 c0 -5 5 -7 10 -4 6 3 10 8 10 11 0 2 -4 4 -10 4 -5 0 -10
-5 -10 -11z"/>
<path d="M4620 4433 c8 -2 22 -7 30 -10 13 -4 12 -7 -4 -18 -17 -13 -15 -35 3
-35 11 0 32 50 26 61 -4 5 -21 9 -38 8 -18 0 -25 -3 -17 -6z"/>
<path d="M4700 4430 c0 -5 5 -10 10 -10 6 0 10 5 10 10 0 6 -4 10 -10 10 -5 0
-10 -4 -10 -10z"/>
<path d="M8504 4393 c2 -27 -2 -54 -7 -60 -12 -17 5 -17 21 -1 20 20 13 108
-8 108 -4 0 -7 -21 -6 -47z"/>
<path d="M5510 4378 c0 -6 3 -8 7 -5 3 4 12 2 20 -5 15 -12 28 -5 18 11 -8 15
-45 14 -45 -1z"/>
<path d="M7210 4360 c28 -21 33 -20 24 4 -3 9 -16 16 -28 16 -20 0 -20 -1 4
-20z"/>
<path d="M3008 4363 c6 -2 18 -2 25 0 6 3 1 5 -13 5 -14 0 -19 -2 -12 -5z"/>
<path d="M4762 4361 c-10 -6 -10 -10 3 -21 13 -11 15 -9 15 9 0 24 0 24 -18
12z"/>
<path d="M5313 4363 c-15 -5 -18 -33 -4 -33 8 0 25 30 19 35 -2 1 -9 0 -15 -2z"/>
<path d="M5971 4336 c13 -14 25 -23 27 -21 7 7 -24 45 -36 45 -9 0 -6 -9 9
-24z"/>
<path d="M5670 4330 c0 -5 5 -10 11 -10 5 0 7 5 4 10 -3 6 -8 10 -11 10 -2 0
-4 -4 -4 -10z"/>
<path d="M5756 4302 c-3 -6 3 -12 15 -15 12 -3 19 -1 16 6 -5 15 -24 20 -31 9z"/>
<path d="M4660 4270 c0 -5 5 -10 10 -10 6 0 10 5 10 10 0 6 -4 10 -10 10 -5 0
-10 -4 -10 -10z"/>
<path d="M5630 4270 c0 -5 5 -10 10 -10 6 0 10 5 10 10 0 6 -4 10 -10 10 -5 0
-10 -4 -10 -10z"/>
<path d="M4690 4250 c0 -5 5 -10 10 -10 6 0 10 5 10 10 0 6 -4 10 -10 10 -5 0
-10 -4 -10 -10z"/>
<path d="M5338 4253 c7 -3 16 -2 19 1 4 3 -2 6 -13 5 -11 0 -14 -3 -6 -6z"/>
<path d="M4981 4234 c0 -11 3 -14 6 -6 3 7 2 16 -1 19 -3 4 -6 -2 -5 -13z"/>
<path d="M5440 4240 c0 -5 5 -10 10 -10 6 0 10 5 10 10 0 6 -4 10 -10 10 -5 0
-10 -4 -10 -10z"/>
<path d="M4748 4219 c-19 -24 -13 -53 9 -45 8 3 19 6 24 6 5 0 9 5 9 10 0 6
-10 10 -22 10 -17 0 -19 3 -10 12 10 10 17 10 32 0 22 -13 27 -3 8 16 -17 17
-31 15 -50 -9z"/>
<path d="M5220 4215 c0 -8 -4 -15 -10 -15 -5 0 -10 -4 -10 -10 0 -5 9 -10 20
-10 11 0 19 6 18 13 -2 6 5 11 15 11 21 -2 22 12 1 20 -25 10 -34 7 -34 -9z"/>
<path d="M5848 4223 c7 -3 16 -2 19 1 4 3 -2 6 -13 5 -11 0 -14 -3 -6 -6z"/>
<path d="M5526 4211 c-12 -5 -15 -10 -9 -14 6 -4 16 0 23 8 14 17 13 17 -14 6z"/>
<path d="M5800 4210 c0 -5 5 -10 11 -10 5 0 7 5 4 10 -3 6 -8 10 -11 10 -2 0
-4 -4 -4 -10z"/>
<path d="M4908 4198 c9 -9 15 -9 24 0 9 9 7 12 -12 12 -19 0 -21 -3 -12 -12z"/>
<path d="M5338 4193 c7 -3 16 -2 19 1 4 3 -2 6 -13 5 -11 0 -14 -3 -6 -6z"/>
<path d="M5405 4170 c-19 -7 -19 -8 -2 -15 19 -8 31 -2 26 13 -2 5 -13 6 -24
2z"/>
<path d="M8505 4170 c-3 -5 -1 -10 4 -10 6 0 11 5 11 10 0 6 -2 10 -4 10 -3 0
-8 -4 -11 -10z"/>
<path d="M5324 4159 c-9 -16 2 -22 21 -11 15 8 16 10 1 15 -8 3 -18 2 -22 -4z"/>
<path d="M8565 4130 c-5 -31 -14 -44 -36 -55 -26 -14 -29 -14 -29 0 0 8 5 24
12 35 7 10 9 22 5 26 -12 12 -20 -4 -26 -49 -5 -31 -11 -43 -26 -46 -11 -2
-25 -11 -32 -20 -9 -13 -8 -20 9 -38 12 -13 30 -23 40 -23 22 0 24 16 2 24 -8
3 -12 11 -8 17 3 6 0 15 -7 20 -12 7 -12 9 0 9 8 0 20 -8 28 -17 12 -16 13
-15 11 11 -2 17 2 31 11 34 11 3 12 -4 7 -34 -3 -22 -7 -44 -8 -51 -1 -7 -8
-15 -16 -18 -13 -5 -13 -7 2 -18 16 -11 15 -14 -6 -36 -15 -16 -18 -26 -10
-29 7 -2 12 -16 12 -31 0 -15 6 -33 13 -40 10 -11 8 -12 -8 -7 -16 4 -21 1
-22 -13 -1 -11 5 -22 13 -25 8 -3 14 -17 14 -31 0 -16 6 -25 16 -25 8 0 12 5
9 10 -3 6 1 13 9 16 9 3 16 15 16 25 0 10 4 19 9 19 12 0 20 59 9 66 -12 8 -8
61 9 116 8 25 15 73 16 105 1 32 6 61 11 64 14 11 -4 49 -24 49 -14 0 -20 -10
-25 -40z m-5 -229 c0 -6 -4 -13 -10 -16 -5 -3 -10 1 -10 9 0 9 5 16 10 16 6 0
10 -4 10 -9z m-13 -83 c-3 -8 -6 -5 -6 6 -1 11 2 17 5 13 3 -3 4 -12 1 -19z
m-2 -48 c3 -5 2 -10 -4 -10 -5 0 -13 5 -16 10 -3 6 -2 10 4 10 5 0 13 -4 16
-10z"/>
<path d="M5793 4133 c-7 -2 -13 -13 -13 -24 0 -10 -7 -19 -15 -19 -8 0 -15 -5
-15 -11 0 -23 32 -2 45 29 8 17 13 32 12 31 -1 0 -8 -3 -14 -6z"/>
<path d="M5100 4110 c0 -5 5 -10 10 -10 6 0 10 5 10 10 0 6 -4 10 -10 10 -5 0
-10 -4 -10 -10z"/>
<path d="M8210 4105 c-13 -16 -6 -35 15 -35 9 0 12 -6 9 -15 -7 -18 11 -20 22
-3 4 6 -1 17 -10 24 -11 8 -13 14 -6 19 11 7 5 25 -9 25 -5 0 -14 -7 -21 -15z"/>
<path d="M5163 4102 c-31 -5 -29 -22 2 -22 14 0 25 -4 25 -8 0 -5 7 -9 15 -9
9 0 15 10 15 24 0 13 -4 23 -10 23 -5 0 -7 -7 -4 -15 4 -8 1 -15 -4 -15 -6 0
-12 6 -14 13 -2 6 -13 11 -25 9z"/>
<path d="M8465 3930 c-10 -16 7 -31 23 -21 10 6 10 10 -2 20 -10 9 -16 9 -21
1z"/>
<path d="M6168 3845 c-13 -17 -14 -25 -5 -28 18 -6 40 20 30 37 -6 11 -11 9
-25 -9z"/>
<path d="M8488 3654 c6 -12 9 -24 6 -26 -3 -3 2 -8 10 -11 11 -4 14 2 14 26
-1 18 -3 26 -6 19 -3 -10 -7 -10 -20 0 -13 11 -14 10 -4 -8z"/>
<path d="M8441 3649 c-1 -9 6 -20 14 -23 12 -4 13 -10 5 -25 -12 -23 -3 -51
16 -51 9 0 13 10 13 28 -2 43 -9 62 -24 62 -7 0 -16 6 -18 13 -4 7 -6 6 -6 -4z"/>
<path d="M8386 3554 c-6 -16 2 -18 22 -5 11 7 11 9 -1 14 -9 3 -18 -1 -21 -9z"/>
<path d="M8444 3482 c3 -6 2 -13 -4 -17 -12 -8 -13 -25 -1 -25 13 0 21 39 9
47 -6 3 -8 1 -4 -5z"/>
<path d="M8402 3427 c-9 -11 -5 -20 18 -42 31 -29 32 -29 43 23 3 12 1 22 -4
22 -5 0 -9 -7 -9 -15 0 -10 -7 -14 -22 -11 -13 3 -25 5 -28 5 -3 1 2 5 10 11
8 5 12 12 9 15 -4 3 -11 -1 -17 -8z"/>
<path d="M8428 3333 c7 -3 16 -2 19 1 4 3 -2 6 -13 5 -11 0 -14 -3 -6 -6z"/>
<path d="M8460 3244 c0 -8 5 -12 10 -9 6 4 8 11 5 16 -9 14 -15 11 -15 -7z"/>
<path d="M8353 2880 c-8 -12 -9 -21 -3 -25 6 -3 10 0 10 7 0 9 3 9 10 -2 8
-12 10 -9 10 13 0 32 -10 35 -27 7z"/>
<path d="M8286 2611 c-4 -7 -5 -15 -2 -18 9 -9 19 4 14 18 -4 11 -6 11 -12 0z"/>
<path d="M7725 1840 c-3 -5 1 -10 10 -10 9 0 13 5 10 10 -3 6 -8 10 -10 10 -2
0 -7 -4 -10 -10z"/>
</g>
</svg>
